<?xml version="1.0" encoding="utf-8"?>
<!-- Generator: Adobe Illustrator 16.0.0, SVG Export Plug-In . SVG Version: 6.00 Build 0)  -->
<!DOCTYPE svg PUBLIC "-//W3C//DTD SVG 1.1//EN" "http://www.w3.org/Graphics/SVG/1.1/DTD/svg11.dtd">
<svg version="1.1" id="image" xmlns="http://www.w3.org/2000/svg" xmlns:xlink="http://www.w3.org/1999/xlink" x="0px" y="0px"
	 width="285px" height="408px" viewBox="-4071.713 -5453.283 285 408" enable-background="new -4071.713 -5453.283 285 408"
	 xml:space="preserve">
<rect x="-4071.713" y="-5453.283" fill="#FFFFFF" width="285" height="408"/>
<rect x="-4047.713" y="-5427.95" fill="#A0DDFF" width="236.263" height="234.5"/>
<path fill="#407AAE" d="M-3845.528-5195.415c-17.471-13.432-28.667-27.235-26.382-35.633l0.001-0.001
	c5.265-17.513,2.071-15.59,12.017-43.419c2.864-8.017-5.563-11.35-3.414-13.936c1.74-2.093,3.285-4.141,4.801-6.688
	c0.036-0.062,0.072-0.121,0.109-0.184c0.625-1.057,1.245-2.21,1.871-3.481c0.067-0.135,0.133-0.266,0.201-0.405
	c0.063-0.13,0.125-0.267,0.191-0.4c0.109-0.232,0.221-0.464,0.334-0.705c0.081-0.177,0.164-0.365,0.247-0.547
	c0.093-0.207,0.187-0.411,0.281-0.624c0.1-0.228,0.204-0.47,0.306-0.706c0.078-0.177,0.153-0.351,0.23-0.534
	c0.1-0.237,0.204-0.489,0.305-0.734c0.08-0.193,0.16-0.382,0.241-0.582c0.078-0.192,0.155-0.395,0.235-0.59
	c0.106-0.268,0.213-0.532,0.322-0.809c0.084-0.216,0.171-0.447,0.256-0.667c0.102-0.266,0.204-0.527,0.308-0.801
	c0.123-0.323,0.245-0.661,0.368-0.996c0.072-0.19,0.14-0.376,0.212-0.569c0.088-0.241,0.177-0.494,0.264-0.744
	c0.113-0.308,0.22-0.61,0.335-0.931c0.045-0.126,0.092-0.265,0.136-0.395c0.156-0.446,0.313-0.894,0.475-1.362
	c0.056-0.168,0.116-0.345,0.173-0.516c0.15-0.443,0.3-0.885,0.453-1.345c0.074-0.222,0.15-0.458,0.225-0.681
	c0.138-0.426,0.277-0.844,0.421-1.283c0.097-0.3,0.199-0.618,0.297-0.925c0.121-0.382,0.245-0.761,0.369-1.157
	c0.091-0.282,0.183-0.582,0.272-0.868c0.139-0.445,0.277-0.881,0.418-1.338c0.094-0.305,0.193-0.628,0.288-0.939
	c0.14-0.455,0.278-0.9,0.421-1.371c0.125-0.419,0.259-0.86,0.388-1.292c0.116-0.386,0.23-0.762,0.347-1.159
	c0.164-0.542,0.332-1.111,0.495-1.674c0.089-0.3,0.176-0.588,0.267-0.894c0.21-0.723,0.428-1.468,0.645-2.221
	c0.047-0.164,0.095-0.317,0.141-0.487c0.537-1.855,1.092-3.804,1.667-5.85c9.781-26.425,17.805-46.905,19.089-55.025
	c0.3-0.467,0.368-1.22,0.156-2.427c-0.027-0.301-0.073-0.568-0.156-0.771c-13.504-33.453-87.465-2.556-138.46,10.972
	c-0.273-0.015-19.934,2.899-19.934,2.899c-32.747,7.368-26.216,48.828-34.357,64.654c-4.064,18.82-6.097,49.31-7.008,81.728
	l-0.001-0.002c0,0,0.001,0.003,0.001,0.006c-0.108,3.887-0.202,7.8-0.281,11.729c-1.627,7.943-5.787,16.858-11.281,26.04"/>
<path fill="#EDEFF3" d="M-3908.293-5324.402c-12.958,7.722-61.542-9.449-64.553,16.728c-2.96,25.738,5.66,71.314,10.396,91.38
	c1.103,4.672,1.755,11.776,2.155,20.495l74.322,0.249c1.867-13.026,3.626-22.425,4.456-25.486
	c4.469-16.492,8.386-18.881,14.005-28.52c1.108-5.083,2.856-11.583,7.62-24.911c2.864-8.017-5.563-11.35-3.414-13.936
	c1.74-2.093,3.285-4.141,4.801-6.688c0.036-0.062,0.072-0.121,0.109-0.184c0.625-1.057,1.245-2.21,1.871-3.481
	c0.067-0.135,0.133-0.266,0.201-0.405c0.063-0.13,0.125-0.267,0.191-0.4c0.109-0.232,0.221-0.464,0.334-0.705
	c0.081-0.177,0.164-0.365,0.247-0.547c0.093-0.207,0.187-0.411,0.281-0.624c0.1-0.228,0.204-0.47,0.306-0.706
	c0.078-0.177,0.153-0.351,0.23-0.534c0.1-0.237,0.204-0.489,0.305-0.734c0.08-0.193,0.16-0.382,0.241-0.582
	c0.078-0.192,0.155-0.395,0.235-0.59c0.106-0.268,0.213-0.532,0.322-0.809c0.084-0.216,0.171-0.447,0.256-0.667
	c0.102-0.266,0.204-0.527,0.308-0.801c0.123-0.323,0.245-0.661,0.368-0.996c0.072-0.19,0.14-0.376,0.212-0.569
	c0.088-0.241,0.177-0.494,0.264-0.744c0.113-0.308,0.22-0.61,0.335-0.931c0.045-0.126,0.092-0.265,0.136-0.395
	c0.156-0.446,0.313-0.894,0.475-1.362c0.056-0.168,0.116-0.345,0.173-0.516c0.15-0.443,0.3-0.885,0.453-1.345
	c0.074-0.222,0.15-0.458,0.225-0.681c0.138-0.426,0.277-0.844,0.421-1.283c0.097-0.3,0.199-0.618,0.297-0.925
	c0.121-0.382,0.245-0.761,0.369-1.157c0.091-0.282,0.183-0.582,0.272-0.868c0.139-0.445,0.277-0.881,0.418-1.338
	c0.094-0.305,0.193-0.628,0.288-0.939c0.14-0.455,0.278-0.9,0.421-1.371c0.125-0.419,0.259-0.86,0.388-1.292
	c0.116-0.386,0.23-0.762,0.347-1.159c0.164-0.542,0.332-1.111,0.495-1.674c0.089-0.3,0.176-0.588,0.267-0.894
	c0.21-0.723,0.428-1.468,0.645-2.221c0.047-0.164,0.095-0.317,0.141-0.487c0.537-1.855,1.092-3.804,1.667-5.85
	c3.635-9.82,7.026-18.817,9.92-26.667C-3865.624-5353.46-3887.298-5336.917-3908.293-5324.402z"/>
<g>
	<path fill="#BEBFC2" d="M-3945.48-5311.911c0,0-0.512,0.027-1.386,0.132c-0.877,0.11-2.122,0.273-3.598,0.598
		c-0.74,0.161-1.543,0.34-2.391,0.608c-0.846,0.259-1.747,0.59-2.67,1.099c-0.911,0.499-1.911,1.244-2.572,2.358
		c-0.686,1.098-0.931,2.361-0.985,3.471c-0.045,1.126,0.038,2.184,0.188,3.187c0.14,1.007,0.337,1.969,0.547,2.887
		c0.423,1.835,0.905,3.506,1.376,4.93c0.45,1.425,0.891,2.599,1.212,3.421c0.32,0.821,0.537,1.284,0.537,1.284
		s0.037-0.51,0.041-1.393c0.004-0.882-0.014-2.14-0.121-3.63c-0.082-1.496-0.259-3.225-0.459-5.049
		c-0.102-0.911-0.196-1.845-0.282-2.774c-0.078-0.93-0.137-1.855-0.088-2.708c0.028-0.861,0.196-1.595,0.508-2.182
		c0.3-0.597,0.829-1.112,1.484-1.586c1.326-0.939,2.921-1.658,4.226-2.326c1.333-0.643,2.45-1.215,3.222-1.638
		C-3945.913-5311.64-3945.48-5311.911-3945.48-5311.911"/>
</g>
<path fill="#BEBFC2" d="M-3896.485-5278.594l11.509,5.487c1.951,1.594,4.152,7.975,2.877,11.003
	c-4.882,11.602-11.547,24.466-32.894,42.527c-2.386,2.019-2.685,11.167-1.769,23.923l37.183,0.125
	c2.31-12.458,4.319-21.434,5.128-24.421c0.872-3.22,1.608-5.965,2.26-8.394c-0.037-0.952,0.05-1.857,0.28-2.705l0.001-0.001
	c5.265-17.513,2.071-15.59,12.017-43.419c2.864-8.017-5.563-11.35-3.414-13.936c1.74-2.093,3.285-4.141,4.801-6.688
	c0.036-0.062,0.072-0.121,0.109-0.184c0.625-1.057,1.245-2.21,1.871-3.481c0.067-0.135,0.133-0.266,0.201-0.405
	c0.063-0.13,0.125-0.267,0.191-0.4c0.109-0.232,0.221-0.464,0.334-0.705c0.081-0.177,0.164-0.365,0.247-0.547
	c0.093-0.207,0.187-0.411,0.281-0.624c0.1-0.228,0.204-0.47,0.306-0.706c0.078-0.177,0.153-0.351,0.23-0.534
	c0.1-0.237,0.204-0.489,0.305-0.734c0.08-0.193,0.16-0.382,0.241-0.582c0.078-0.192,0.155-0.395,0.235-0.59
	c0.106-0.268,0.213-0.532,0.322-0.809c0.084-0.216,0.171-0.447,0.256-0.667c0.102-0.266,0.204-0.527,0.308-0.801
	c0.123-0.323,0.245-0.661,0.368-0.996c0.072-0.19,0.14-0.376,0.212-0.569c0.088-0.241,0.177-0.494,0.264-0.744
	c0.113-0.308,0.22-0.61,0.335-0.931c0.045-0.126,0.092-0.265,0.136-0.395c0.156-0.446,0.313-0.894,0.475-1.362
	c0.056-0.168,0.116-0.345,0.173-0.516c0.15-0.443,0.3-0.885,0.453-1.345c0.074-0.222,0.15-0.458,0.225-0.681
	c0.138-0.426,0.277-0.844,0.421-1.283c0.097-0.3,0.199-0.618,0.297-0.925c0.121-0.382,0.245-0.761,0.369-1.157
	c0.091-0.282,0.183-0.582,0.272-0.868c0.139-0.445,0.277-0.881,0.418-1.338c0.094-0.305,0.193-0.628,0.288-0.939
	c0.14-0.455,0.278-0.9,0.421-1.371c0.125-0.419,0.259-0.86,0.388-1.292c0.116-0.386,0.23-0.762,0.347-1.159
	c0.164-0.542,0.332-1.111,0.495-1.674c0.089-0.3,0.176-0.588,0.267-0.894c0.21-0.723,0.428-1.468,0.645-2.221
	c0.047-0.164,0.095-0.317,0.141-0.487c0.537-1.855,1.092-3.804,1.667-5.85c3.605-9.739,6.97-18.667,9.848-26.47
	C-3865.531-5305.236-3876.566-5279.833-3896.485-5278.594z"/>
<path fill="#749DC3" d="M-3963.363-5383.108c-0.107-0.006-3.187,0.438-6.893,0.979c68.76,10.75,106.798-46.284,121.467-2.777
	c12.688-18.727,22.928-3.776,21.726-13.066c-0.043-0.145-0.1-0.277-0.146-0.418
	C-3845.332-5424.657-3914.772-5395.999-3963.363-5383.108z"/>
<path fill="#203D57" d="M-3857.716-5380.425c0,0-0.474,0.374-1.31,0.833c-0.842,0.479-2.017,1.001-3.358,1.515
	c-0.653,0.274-1.401,0.484-2.073,0.739c-0.637,0.207-1.307,0.426-2.001,0.652c-0.634,0.185-1.245,0.296-1.93,0.56
	c-0.682,0.227-1.406,0.654-2.113,1.184c-0.708,0.514-1.424,1.131-2.134,1.74c-0.724,0.617-1.436,1.224-2.125,1.812
	c-1.386,1.191-2.73,2.272-3.894,3.182c-2.297,1.84-3.919,2.961-3.919,2.961l-0.441-0.431c0,0.003,1.095-1.632,2.755-4.028
	c0.829-1.199,1.76-2.624,2.813-4.115c0.52-0.748,1.056-1.534,1.647-2.311c0.593-0.78,1.191-1.583,1.901-2.387
	c0.69-0.794,1.427-1.661,2.362-2.44c0.886-0.814,2.019-1.449,3.106-1.83c1.098-0.344,2.166-0.489,3.103-0.463
	c0.969-0.029,1.796,0.117,2.588,0.246c1.557,0.334,2.801,0.763,3.652,1.206c0.858,0.412,1.352,0.761,1.352,0.761L-3857.716-5380.425
	z"/>
<path fill="#336189" d="M-4011.081-5305.526c0,0,0.469,0.726,1.166,2.028c0.358,0.639,0.748,1.469,1.24,2.333
	c0.507,0.86,1.059,1.82,1.606,2.863c0.674,0.993,1.29,2.12,2.056,3.198c0.379,0.537,0.765,1.087,1.164,1.649
	c0.417,0.542,0.874,1.058,1.312,1.602c0.421,0.554,0.935,1.044,1.427,1.559c0.478,0.524,0.996,1.024,1.555,1.502
	c1.064,0.988,2.253,1.923,3.491,2.843c1.219,0.94,2.544,1.834,3.822,2.766c1.322,0.912,2.591,1.855,3.845,2.798
	c1.244,0.927,2.421,1.921,3.524,2.846c1.092,0.954,2.079,1.917,2.982,2.805c0.892,0.907,1.664,1.785,2.341,2.561
	c0.691,0.758,1.202,1.524,1.653,2.11c0.881,1.2,1.328,1.931,1.328,1.931s-0.807-0.332-2.122-0.996
	c-0.648-0.335-1.436-0.74-2.336-1.207c-0.909-0.451-1.925-0.958-2.982-1.567c-2.209-1.102-4.685-2.447-7.382-3.913
	c-2.673-1.487-5.571-3.116-8.379-5.217c-1.377-1.069-2.771-2.191-3.977-3.514c-0.639-0.614-1.21-1.294-1.729-2.006
	c-0.537-0.695-1.084-1.365-1.484-2.118c-0.422-0.736-0.887-1.428-1.229-2.159c-0.319-0.737-0.63-1.456-0.935-2.158
	c-0.587-1.399-0.871-2.802-1.233-4.044c-0.278-1.278-0.432-2.467-0.578-3.499c-0.167-1.026-0.117-1.916-0.159-2.658
	C-4011.131-5304.665-4011.081-5305.526-4011.081-5305.526z"/>
<path fill="#336189" d="M-4011.781-5285.403c0,0,0.445,0.637,1.104,1.787c0.335,0.562,0.706,1.295,1.163,2.056
	c0.471,0.758,0.981,1.6,1.5,2.507c0.614,0.866,1.159,1.864,1.858,2.802c0.341,0.467,0.69,0.947,1.048,1.438
	c0.383,0.454,0.774,0.919,1.171,1.394c0.375,0.481,0.829,0.908,1.265,1.355c0.425,0.454,0.881,0.89,1.373,1.308
	c0.939,0.86,1.985,1.683,3.077,2.493c1.072,0.831,2.247,1.62,3.373,2.456c1.173,0.813,2.295,1.66,3.403,2.513
	c2.207,1.689,4.171,3.481,5.744,5.108c0.774,0.837,1.447,1.637,2.036,2.346c0.604,0.69,1.043,1.392,1.433,1.927
	c0.76,1.096,1.137,1.768,1.137,1.768s-0.738-0.273-1.932-0.832c-1.179-0.576-2.873-1.357-4.813-2.35
	c-1.971-0.962-4.194-2.115-6.6-3.398c-2.386-1.3-4.973-2.741-7.49-4.621c-1.232-0.959-2.482-1.969-3.561-3.165
	c-0.574-0.552-1.084-1.167-1.547-1.812c-0.478-0.625-0.967-1.23-1.324-1.913c-0.372-0.663-0.788-1.29-1.084-1.95
	c-0.28-0.667-0.555-1.314-0.821-1.947c-0.503-1.268-0.761-2.52-1.065-3.639c-0.215-1.155-0.331-2.226-0.442-3.151
	c-0.131-0.921-0.061-1.716-0.082-2.382C-4011.852-5284.627-4011.781-5285.403-4011.781-5285.403z"/>
<path fill="#336189" d="M-4014.891-5266.454c0,0,0.425,0.546,1.049,1.533c0.318,0.48,0.666,1.129,1.114,1.745
	c0.461,0.625,0.888,1.339,1.442,2.06c0.573,0.708,1.087,1.523,1.784,2.229c0.609,0.771,1.381,1.432,2.103,2.155
	c0.419,0.312,0.816,0.645,1.216,0.985c0.416,0.325,0.891,0.609,1.319,0.941c0.926,0.606,1.877,1.232,2.932,1.812
	c0.998,0.627,2.112,1.195,3.167,1.835c1.08,0.608,2.137,1.267,3.167,1.924c2.055,1.313,3.9,2.74,5.381,4.073
	c1.461,1.374,2.593,2.598,3.305,3.55c0.729,0.924,1.094,1.503,1.094,1.503s-0.685-0.148-1.794-0.499
	c-1.097-0.361-2.662-0.851-4.455-1.505c-1.811-0.629-3.863-1.4-6.068-2.287c-1.098-0.444-2.24-0.923-3.397-1.467
	c-1.164-0.543-2.334-1.125-3.523-1.823c-1.165-0.682-2.348-1.477-3.433-2.374c-1.108-0.892-2.076-1.944-2.946-3.01
	c-0.797-1.129-1.526-2.233-1.997-3.382c-0.562-1.104-0.821-2.226-1.107-3.225c-0.272-1.005-0.324-1.995-0.436-2.812
	c-0.14-0.827-0.039-1.521-0.045-2.108C-4014.982-5265.767-4014.891-5266.454-4014.891-5266.454z"/>
<path opacity="0.2" d="M-3971.075-5354.7c8-3.242,25-5.25,33,3.125c-6.051-1.646-10.686,0.251-11.58,0.475
	c-24.801,5.998-40.283,16.965-37.785,27.299c-0.547,2.032-2.011,7.422-1.255,14.45c-4.646-19.222-0.047-36.795,10.285-39.295"/>
<g>
	<path d="M-3941.292-5298.411c16.447,9.355,29.908,13.251,49.193,13.525c13.105,0.575,16.011-1.174,28.769-3.528
		c-21.525,37.29-72.811,4.038-93.269-17.483"/>
</g>
<g>
	<rect x="-4001.189" y="-5175.761" width="143.951" height="11.631"/>
</g>
<g>
	<rect x="-3975.61" y="-5125.967" fill="#8C96A9" width="17.355" height="17.338"/>
	<rect x="-3937.846" y="-5125.967" fill="#8C96A9" width="17.354" height="17.334"/>
	<rect x="-3900.129" y="-5125.967" fill="#8C96A9" width="17.354" height="17.334"/>
</g>
<g>
	<path fill="#2D659D" d="M-3813.713-5426.283v230.432h-231v-230.432H-3813.713 M-3809.713-5430.283h-239v238.432h239V-5430.283z"/>
</g>
<g>
	<rect x="-4021.754" y="-5148.042" fill="#8C96A9" width="185.079" height="6.155"/>
</g>
<path fill="#FFFFFF" d="M-3949.655-5351.1c-23.183,5.214-31.126,14.013-37.785,27.299
	C-4002.632-5389.133-3955.898-5368.925-3949.655-5351.1z"/>
<path d="M-3961.876-5347.518c0.338-1.507,0.322-3.105-0.128-4.684c-1.489-5.229-7.108-8.228-12.555-6.704
	c-5.436,1.527-8.642,6.991-7.149,12.218c0.92,3.234,3.424,5.614,6.487,6.6C-3971.71-5342.953-3967.402-5345.42-3961.876-5347.518z"
	/>
<path fill="#FFFFFF" d="M-3975.713-5348.364c0.582,2.046,2.783,3.223,4.913,2.625c2.13-0.596,3.384-2.736,2.801-4.783
	c-0.583-2.047-2.783-3.221-4.915-2.625C-3975.042-5352.549-3976.297-5350.41-3975.713-5348.364z"/>
<path fill="#739CC2" d="M-4012.891-5271.454c3.107,5.42,7.107,9.504,14.788,13.9c6.101,3.492,10.234,6.438,14.284,12.446
	C-3997.533-5254.283-4014.033-5260.321-4012.891-5271.454z"/>
<path fill="#739CC2" d="M-4010.242-5289.74c3.085,6.691,8.161,10.783,16.11,16.372c6.314,4.438,10.572,8.817,14.63,16.252
	c-6.318-6-12.134-9.78-17.638-14.151C-4002.616-5275.616-4009.28-5284.191-4010.242-5289.74z"/>
<path fill="#739CC2" d="M-4008.576-5308.24c3.085,6.691,8.161,10.783,16.11,16.372c6.314,4.438,10.572,8.817,14.63,16.252
	c-6.318-6-12.134-9.78-17.638-14.151C-4000.949-5294.116-4007.613-5302.691-4008.576-5308.24z"/>
</svg>
