<?xml version="1.0" encoding="utf-8"?>
<!-- Generator: Adobe Illustrator 23.0.4, SVG Export Plug-In . SVG Version: 6.00 Build 0)  -->
<svg version="1.1" id="Layer_1" xmlns="http://www.w3.org/2000/svg" xmlns:xlink="http://www.w3.org/1999/xlink" x="0px" y="0px"
	 viewBox="0 0 320 320" style="enable-background:new 0 0 320 320;" xml:space="preserve">
<style type="text/css">
	.st0{fill:#F6F8FA;}
	.st1{fill:#FFFFFF;}
	.st2{fill:none;}
</style>
<rect class="st0" width="320" height="320"/>
<path class="st1" d="M59.1,285.8c0.1-0.1,0.1-0.3,0.2-0.4c0.4-0.7,0.9-1.3,1.6-1.8c1-0.8,2.2-1.6,3.7-2.3c1.5-0.7,3.3-1.3,5.3-1.8
	c1.8-0.5,3.3-0.9,4.6-1.3c1-0.3,1.9-0.6,2.8-1.1c0.7-0.3,1.3-0.8,1.9-1.3c0.9-0.8,1.5-1.8,2-2.9c0.4-1.1,0.7-2.3,0.9-3.6
	c0.1-0.6,0.1-1.2,0.1-1.7c0-1-0.3-1.9-0.6-2.5c-0.2-0.5-0.4-0.8-0.5-1.1c-0.2-0.4-0.4-0.8-0.5-1.4c-0.1-0.6-0.3-1.6-0.3-3
	c0-0.6-0.1-1.1-0.2-1.7c-0.1-0.5-0.4-1-0.7-1.3c-0.2-0.3-0.5-0.6-0.7-0.7c-0.1-0.1-0.2-0.1-0.2-0.2c0-0.1,0-0.3-0.1-0.5
	c0-0.4,0-1,0.1-1.7c0.1-0.3,0.1-0.6,0.2-0.7l0-0.1c0.8-0.5,1.3-1.4,1.3-2.4c0,0,0-0.1,0-0.2c0-0.7,0-3.8,0.2-6.1c0-0.1,0-0.2,0-0.3
	c0.1-0.8,0.5-1.9,1.2-3c0.7-1.1,1.6-2.1,2.9-2.8c0.4-0.2,1-0.4,1.7-0.6c1.1-0.3,2.4-0.4,3.6-0.5c1.2,0,2.4,0,3.2,0.2
	c0.1,0,0.3,0,0.4,0.1c0.3,0,0.9,0.3,1.2,0.5l0.1,0.1c0.3,0.5,0.7,1,1.3,1.3c0.3,0.1,0.5,0.3,0.7,0.3c0.1,0.1,0.2,0.1,0.2,0.1l0.1,0
	c0,0,0.2,0.1,0.4,0.3c1.1,1.1,1.8,2.3,2.1,3.6c0.4,1.3,0.4,2.6,0.2,3.4c0,0.1,0,0.2-0.1,0.3v0c-0.3,1.3-0.7,2.8-1.1,4
	c-0.2,0.6-0.3,1.1-0.4,1.5c-0.1,0.2-0.1,0.3-0.1,0.4s0,0.1,0,0.1c-0.3,0.9-0.1,2,0.5,2.7c0,0.1,0,0.4,0,0.8
	c-0.3,1.2-0.5,1.9-0.7,2.1c-0.1,0-0.2,0.1-0.4,0.2c-0.4,0.2-1,0.6-1.5,1.2c-0.5,0.6-0.8,1.2-1,1.9v0c-0.4,1.4-0.8,2.3-1.2,2.8
	c-0.5,0.8-0.8,1-1.5,1.8c-0.4,0.4-0.8,0.9-1.2,1.7c-0.4,0.7-0.6,1.5-0.7,2.4c-0.2,1.6-0.3,3-0.1,4.4c0.1,1,0.5,2.1,1.1,3
	c0.4,0.7,0.9,1.2,1.4,1.8c0.8,0.8,1.7,1.4,2.7,2.1c1,0.7,2.1,1.4,3.5,2.2c1.5,1,2.9,2,4.1,2.9c1.7,1.5,3,2.9,3.7,4.4
	c0.3,0.6,0.5,1.3,0.6,1.9L59.1,285.8 M50.3,271.9L50.3,271.9c0.3-0.6,0.6-1,1-1.4c0.6-0.6,1.3-1.1,2.3-1.7c1.1-0.5,2.4-1,4.1-1.5
	c1.4-0.4,2.7-0.7,3.9-1.1c0.9-0.3,1.7-0.6,2.5-1c1.2-0.6,2.3-1.3,3.2-2.4c0.9-1,1.5-2.3,1.9-3.7c0.4-1.5-0.5-3.1-2-3.6
	c-2.6-0.8-4.3-1.7-5.3-2.6c-0.6-0.5-1.1-1-1.3-1.5c0.4-0.5,0.9-1.2,1.4-2.1c0.5-1,1.1-2.3,1.5-4c0.8-2.9,1.1-5.7,1.6-8.1
	c0.2-1.2,0.5-2.3,0.8-3.3c0.3-1,0.8-1.9,1.3-2.7l0,0c1.1-1.6,2.5-2.7,4-3.3c1.5-0.6,3.2-0.8,4.5-0.6c0,0,0,0,0.1,0
	c0.7,0.1,1.3,0.3,1.8,0.6c0.5,0.3,0.8,0.5,0.9,0.8c0.4,0.6,1,1,1.7,1.2c1,0.2,1.8,0.6,2.4,1.2c0.2,0.2,0.3,0.3,0.5,0.5
	c-0.6,0.2-1.1,0.4-1.6,0.7l0,0c-2.3,1.3-3.9,3.1-5,4.9c-1.1,1.8-1.7,3.6-2,5.2c0,0.2-0.1,0.5-0.1,0.8c-0.1,1.9-0.2,4-0.2,5.4
	c-0.7,0.9-1.3,2.1-1.5,3.7l0,0.2c-0.1,1.7-0.1,2.9,0.1,4.1c0.1,0.4,0.2,0.8,0.4,1.2c0.3,0.7,0.7,1.3,1.1,1.6
	c0.1,0.1,0.1,0.1,0.2,0.2c0,1.7,0.2,3,0.4,4.1c0.4,1.8,1.1,2.9,1.3,3.4c0.1,0.2,0.1,0.3,0.1,0.4c0,0.1,0,0.3,0,0.7
	c-0.2,1.3-0.4,2.1-0.7,2.6c-0.2,0.3-0.3,0.5-0.5,0.6c-0.1,0.1-0.3,0.3-0.7,0.4c-0.5,0.2-1.2,0.5-2.3,0.8c-1,0.3-2.3,0.6-3.9,1.1
	c-0.6,0.2-1.2,0.4-1.8,0.6L50.3,271.9 M76.6,221.6c0,0-0.1,0-0.1,0c-2.4-0.4-5.1-0.1-7.6,0.9c-2.5,1-5,2.8-6.7,5.5l0,0
	c-0.9,1.3-1.5,2.7-2,4.1c-0.7,2.1-1.1,4.1-1.4,6.1c-0.3,2-0.6,3.9-1.1,5.7c-0.3,1.2-0.6,2-0.9,2.5c-0.2,0.4-0.4,0.7-0.5,0.9
	c-0.2,0.3-0.4,0.5-0.7,0.8c-0.2,0.2-0.4,0.4-0.6,0.8c-0.3,0.4-0.5,1-0.6,1.6c-0.1,0.4-0.1,0.8,0,1.2c0.1,0.4,0.1,0.7,0.2,0.9l0,0
	c0.6,1.7,1.7,3.4,3.5,4.9c1,0.8,2.3,1.6,3.7,2.3c-0.4,0.2-1,0.5-1.7,0.7c-1,0.4-2.3,0.7-3.9,1.2c-1.7,0.5-3.2,1-4.6,1.6
	c-1,0.5-2,1-2.9,1.7c-1.3,1-2.5,2.3-3.3,3.8c-0.8,1.5-1.3,3.2-1.6,5.1c0,0.2,0,0.4,0,0.6c0.1,1.4,1.1,2.5,2.5,2.7c0,0,0,0,0,0l0,0
	l11.2,1.7c-0.5,0.4-0.9,0.8-1.3,1.2c-0.9,1-1.7,2.1-2.4,3.4c-0.6,1.3-1.1,2.7-1.3,4.2c-0.1,0.8,0.1,1.6,0.5,2.2
	c0.5,0.6,1.1,1,1.9,1.2l0,0l54.7,8.3c0.8,0.1,1.6-0.1,2.2-0.5c0.6-0.5,1-1.2,1.2-1.9c0.3-2,0.2-4-0.3-5.8c-0.4-1.4-0.9-2.6-1.6-3.8
	c-1.1-1.7-2.4-3.3-4-4.6c-1.6-1.4-3.3-2.6-5.2-3.8c-1.6-1-2.9-1.9-3.9-2.5c-0.7-0.5-1.2-0.9-1.5-1.2c-0.2-0.2-0.4-0.4-0.5-0.6
	c-0.1-0.2-0.2-0.4-0.3-0.9c0-0.5,0-1.3,0.2-2.4c0-0.3,0.1-0.5,0.1-0.6c0.1-0.2,0.1-0.1,0.2-0.3c0.1-0.1,0.3-0.4,0.7-0.7
	c0.5-0.5,1.1-1.2,1.7-2.3c0.6-1,1.1-2.2,1.6-3.7c0.2-0.1,0.4-0.2,0.6-0.3c0.4-0.2,0.8-0.5,1.1-0.9c0.5-0.6,0.9-1.3,1.3-2.1
	c0.3-0.8,0.6-1.8,0.9-2.9l0-0.2c0.3-1.6,0.1-3-0.3-4c0.4-1.3,1-3.4,1.4-5.2l0,0c0.1-0.3,0.1-0.5,0.1-0.8c0.2-1.6,0.2-3.6-0.4-5.8
	c-0.6-2.1-1.7-4.4-3.7-6.4c-0.2-0.2-0.4-0.4-0.7-0.6c-0.3-0.3-0.8-0.6-1.1-0.8c-0.1,0-0.2-0.1-0.3-0.1c-0.3-0.4-0.6-0.6-0.9-0.9
	c-0.6-0.5-1.2-0.8-1.8-1.1c-0.6-0.3-1.3-0.5-2-0.7c-0.2,0-0.3-0.1-0.5-0.1c0,0-0.1,0-0.1,0c-1.3-0.2-2.8-0.3-4.4-0.2
	c-0.7-1.5-1.6-2.8-2.8-3.9c-1.2-1.1-2.6-1.8-4-2.3c-0.7-0.7-1.4-1.3-2.3-1.7C79.1,222.2,77.9,221.9,76.6,221.6"/>
<path class="st1" d="M201.8,256C201.8,256,201.8,256,201.8,256c3.9-2.4,5.2-7.4,3.3-11.3c1.6-1.5,2.9-3.3,3.7-5.3l9.9,15.8
	c0.4,0.6,0.5,1.3,0.3,2c-0.2,0.7-0.6,1.3-1.2,1.7l-46.2,28.9c0,0,0,0,0,0c-0.6,0.4-1.3,0.5-2,0.3c-0.7-0.2-1.3-0.6-1.7-1.2
	l-9.9-15.8c2.1,0.1,4.3-0.2,6.4-1c2.7,3.5,7.7,4.4,11.5,2.1c0,0,0,0,0.1,0c3.8-2.4,5.1-7.2,3.3-11.1l11.1-7
	C193.2,257.5,198,258.3,201.8,256 M172.8,267.3c-1.4,0.8-3.2,0.4-4-0.9l-1.9-3c-0.9-1.4-0.4-3.2,0.9-4c0,0,0,0,0,0
	c1.4-0.8,3.2-0.4,4,0.9l1.9,3C174.6,264.6,174.2,266.4,172.8,267.3C172.9,267.2,172.9,267.2,172.8,267.3 M198.7,251
	c-1.4,0.8-3.2,0.4-4-0.9l-1.9-3c-0.9-1.4-0.4-3.2,0.9-4c0,0,0,0,0,0c1.4-0.8,3.2-0.4,4,0.9l1.9,3C200.5,248.4,200.1,250.2,198.7,251
	C198.7,251,198.7,251,198.7,251 M161.3,265.1c-1.4,0.4-2.8,0.4-4.1,0.1c-2.1-0.5-4-1.8-5.2-3.7l-0.8-1.3l-0.4-0.7l-1.4-2.3l-4.5-7.2
	c-0.4-0.6-0.5-1.3-0.3-2c0.2-0.7,0.6-1.3,1.2-1.7l46.2-28.9l0,0c0.6-0.4,1.3-0.5,2-0.3c0.7,0.2,1.3,0.6,1.7,1.2l4.5,7.2l1.4,2.3
	l0.4,0.7l0.8,1.3c1.2,2,1.5,4.2,1.1,6.3c-0.3,1.4-1,2.6-1.9,3.7c-2.8-3.1-7.5-3.9-11.1-1.6c0,0,0,0-0.1,0c-3.8,2.4-5.1,7.2-3.3,11.1
	l-11.1,7c-2.7-3.3-7.6-4.2-11.4-1.9c0,0,0,0-0.1,0C161.1,256.6,159.7,261.2,161.3,265.1 M157.1,232.1l-1.5-2.4
	c-0.4-0.6-0.5-1.3-0.3-2c0.2-0.7,0.6-1.3,1.2-1.7l12.3-7.7c0,0,0,0,0,0c0.6-0.4,1.3-0.5,2-0.3c0.7,0.2,1.3,0.6,1.7,1.2l1.5,2.4
	L157.1,232.1 M165.8,213.3C165.8,213.4,165.7,213.4,165.8,213.3l-12.4,7.8c-2,1.2-3.3,3.2-3.8,5.3c-0.5,2.1-0.2,4.4,1.1,6.4l1.5,2.4
	l-9.7,6.1c-2,1.2-3.3,3.2-3.8,5.3c-0.5,2.1-0.2,4.4,1.1,6.4l6,9.5l0.4,0.7l0.8,1.3l0,0l16,25.5c1.2,2,3.2,3.3,5.3,3.8
	c2.1,0.5,4.4,0.2,6.4-1c0,0,0,0,0.1,0l46.2-28.9c2-1.2,3.3-3.2,3.8-5.3c0.5-2.1,0.2-4.4-1.1-6.4l-16-25.6l-0.8-1.3l-0.4-0.7
	l-1.4-2.3l-4.5-7.2c-1.2-2-3.2-3.3-5.3-3.8c-2.1-0.5-4.4-0.2-6.4,1c0,0,0,0-0.1,0l-9.7,6.1l-1.5-2.4c-1.2-2-3.2-3.3-5.3-3.8
	C170.1,211.8,167.8,212.1,165.8,213.3"/>
<g>
	<path class="st1" d="M68.7,144.6c-1.2,1.1-2.4,2.4-3.6,3.7c0,0,0,0-0.1,0.1c-0.7,0.9-0.8,2.1-0.4,3.1c0,0,0,0,0,0
		c0.1,0.1,0.1,0.3,0.2,0.4c0.2,0.4,0.5,0.7,0.8,1.1c0.8,1,1.6,2,2.4,3c2.7,3,5.7,5.4,9,7.3c3.8,2.2,7.9,3.7,12.3,4.7
		c6.5,1.5,13.4,1.7,20.2,1.2c1.9-0.1,3.8-0.4,5.7-0.6c2,1.7,5,3.7,9,5c4.8,1.5,11.2,1.8,19-0.6c1.2-0.4,2.1-1.5,2.1-2.8
		c0-1.3-0.9-2.4-2.1-2.8c-0.1,0-0.3-0.1-0.5-0.2c-0.5-0.2-1.2-0.7-1.9-1.2c-1.1-0.8-2.4-1.9-3.5-2.9c-0.2-0.2-0.4-0.4-0.6-0.6
		c0.1-0.1,0.1-0.3,0.2-0.4c0.6-1.2,1.2-2.8,1.5-5l6.7,0.3c1.6,0.1,3-1.2,3.1-2.8c0.1-1.6-1.2-3-2.8-3.1l-6.7-0.3
		c-0.1-1.1-0.2-2.1-0.4-3c-0.2-0.8-0.4-1.5-0.6-2.1c-0.1-0.2-0.1-0.3-0.2-0.4c0.9-0.7,1.8-1.3,2.7-1.9c1-0.7,1.9-1.3,2.8-1.7
		c0.4-0.2,0.8-0.4,1-0.5c0.3-0.1,0.5-0.2,0.5-0.2c1.3-0.2,2.3-1.3,2.4-2.6c0.1-1.3-0.6-2.5-1.8-3c-7.5-3.2-13.9-3.5-18.9-2.5
		c-4.2,0.8-7.3,2.5-9.5,4c-4.1-1-8.3-1.7-12.4-2.1c-4.5-0.4-9.1-0.5-13.5,0.1c-4.4,0.5-8.7,1.6-12.7,3.4l0,0c-0.1,0-0.1,0-0.1,0.1
		C74.8,139.9,71.6,142,68.7,144.6 M72.5,151.9c-0.4-0.5-0.9-1-1.3-1.5c0.5-0.5,0.9-0.9,1.4-1.4c1.7-1.6,3.6-2.9,5.6-4
		c0.1,0.3,0.2,0.5,0.3,0.8c0.4,1.3,0.6,3,0.5,5c-0.1,2.3-0.7,4.1-1.3,5.4c0,0.1-0.1,0.2-0.1,0.2C75.8,155.2,74,153.7,72.5,151.9
		 M135.1,168.5c-3.6,0.4-6.6,0-9-0.7c-0.8-0.2-1.5-0.5-2.2-0.8c2.1-0.4,4.1-0.9,6.2-1.5l0,0c0.4-0.1,0.9-0.2,1.3-0.4
		C132.4,166.2,133.7,167.4,135.1,168.5 M127.6,138.7c2.5-0.5,5.4-0.6,9,0.2c-0.6,0.4-1.2,0.8-1.8,1.3c-0.8,0.6-1.6,1.2-2.3,1.7
		c-0.4-0.2-0.8-0.3-1.3-0.5c-2-0.7-4-1.4-6-2.1C126,139,126.8,138.8,127.6,138.7 M110.3,141.5c6.4,1.1,12.8,3,18.9,5.3
		c1.1,0.4,2.1,0.8,3.2,1.2c0.2,0.6,0.4,1.4,0.5,2.5l-15.3-0.8c-1.6-0.1-3,1.2-3.1,2.8c-0.1,1.6,1.2,3,2.8,3.1l15.4,0.8
		c-0.1,0.6-0.2,1-0.4,1.5c-0.1,0.4-0.2,0.7-0.4,0.9c-1.1,0.3-2.2,0.6-3.3,0.9l0,0c-8.4,2.2-17.3,3.7-25.7,3.6
		c-4.2,0-8.3-0.4-12.1-1.3c-2.8-0.6-5.5-1.5-8-2.7c0.2-0.5,0.5-1,0.7-1.6c0.7-1.8,1.3-4.1,1.4-6.8c0.2-3.1-0.3-5.7-1-7.6
		c-0.1-0.3-0.2-0.6-0.3-0.9c2.6-0.9,5.4-1.5,8.2-1.9C97.6,140,103.9,140.4,110.3,141.5"/>
	<path class="st1" d="M93.3,157.6c1.5,1.6,3.6,2.7,6,2.8c2.4,0.1,4.6-0.7,6.2-2.2c1.6-1.5,2.7-3.6,2.8-6c0.1-2.4-0.7-4.6-2.2-6.2
		c-1.5-1.6-3.6-2.7-6-2.8l0,0c-2.4-0.1-4.6,0.7-6.2,2.2c-1.6,1.5-2.7,3.6-2.8,6C91,153.8,91.8,156,93.3,157.6 M101.8,150
		c0.5,0.5,0.7,1.2,0.7,2c0,0.8-0.4,1.4-0.9,1.9c-0.5,0.5-1.2,0.7-2,0.7l0,0c-0.8,0-1.4-0.4-1.9-0.9c-0.5-0.5-0.7-1.2-0.7-2
		c0-0.8,0.4-1.4,0.9-1.9c0.5-0.5,1.2-0.7,2-0.7l0,0C100.6,149.1,101.3,149.5,101.8,150"/>
</g>
<path class="st1" d="M309.5,224.7c-0.1-2.2-1.1-4.4-2.9-6c-1.8-1.6-4-2.3-6.2-2.2c-2.2,0.1-4.4,1.1-6,2.9c-1.6,1.8-2.3,4-2.2,6.2
	c0.1,2.2,1.1,4.4,2.9,6h0c1.8,1.6,4,2.3,6.2,2.2c2.2-0.1,4.4-1.1,5.9-2.9C308.9,229.2,309.6,226.9,309.5,224.7 M298.1,225.4
	c0-0.7,0.2-1.4,0.7-2c0.5-0.6,1.2-0.9,1.9-0.9c0.7,0,1.4,0.2,2,0.7h0c0.6,0.5,0.9,1.2,0.9,1.9c0,0.7-0.2,1.4-0.7,2
	c-0.5,0.6-1.2,0.9-1.9,0.9c-0.7,0-1.4-0.2-2-0.7l0,0C298.4,226.8,298.1,226.1,298.1,225.4"/>
<path class="st1" d="M205.8,174.6c0-0.2,0-0.3,0-0.5c0-0.8,0.2-1.6,0.4-2.4c0.4-1.2,1.1-2.5,2-3.9c1-1.4,2.2-2.8,3.6-4.2
	c1.3-1.3,2.4-2.4,3.3-3.5c0.7-0.8,1.3-1.5,1.8-2.4c0.4-0.6,0.7-1.3,0.9-2.1c0.3-1.1,0.4-2.4,0.2-3.5c-0.2-1.2-0.6-2.3-1.1-3.6
	c-0.2-0.6-0.5-1.1-0.8-1.5c-0.5-0.8-1.2-1.4-1.8-1.8c-0.4-0.3-0.8-0.5-1-0.7c-0.4-0.3-0.7-0.5-1.2-0.9c-0.4-0.5-1-1.2-1.8-2.5
	c-0.3-0.5-0.6-0.9-1-1.3c-0.4-0.3-0.8-0.6-1.3-0.8c-0.4-0.2-0.7-0.2-1-0.3c-0.1,0-0.2,0-0.3,0c-0.1-0.1-0.2-0.2-0.3-0.4
	c-0.2-0.3-0.5-0.8-0.8-1.5c-0.1-0.3-0.2-0.6-0.2-0.7l0-0.1c0.4-0.9,0.4-1.9-0.1-2.8c0,0,0,0-0.1-0.1c-0.4-0.6-1.9-3.3-2.9-5.4
	c0-0.1-0.1-0.2-0.1-0.3c-0.3-0.7-0.6-1.9-0.5-3.2c0-1.3,0.3-2.6,1-3.9c0.2-0.4,0.6-0.9,1.2-1.4c0.8-0.8,1.8-1.6,2.9-2.2
	c1-0.7,2.1-1.2,2.9-1.5c0.1-0.1,0.3-0.1,0.4-0.1c0.3-0.1,0.9-0.2,1.2-0.2l0.1,0c0.5,0.3,1.1,0.5,1.8,0.4c0.3,0,0.6-0.1,0.8-0.1
	c0.1,0,0.2,0,0.2,0l0.1,0c0.1,0,0.2,0,0.5,0.1c1.5,0.3,2.7,1.1,3.7,2.1c1,0.9,1.6,2,1.9,2.8c0,0.1,0.1,0.2,0.1,0.3l0,0
	c0.4,1.2,0.8,2.8,1.1,4c0.2,0.6,0.3,1.1,0.4,1.5c0,0.2,0.1,0.3,0.1,0.4c0,0.1,0,0.1,0,0.1c0.2,1,0.9,1.7,1.8,2.1
	c0.1,0.1,0.2,0.3,0.4,0.7c0.4,1.2,0.5,1.9,0.5,2.1c-0.1,0.1-0.2,0.2-0.3,0.4c-0.3,0.4-0.6,1-0.7,1.8c-0.1,0.7,0,1.4,0.1,2.1l0,0
	c0.3,1.4,0.4,2.4,0.4,3c0,1-0.2,1.3-0.4,2.4c-0.1,0.5-0.2,1.2-0.2,2c0.1,0.8,0.3,1.6,0.6,2.4c0.6,1.5,1.2,2.8,2.1,3.9
	c0.7,0.8,1.5,1.5,2.4,2c0.7,0.4,1.4,0.6,2.1,0.8c1.1,0.3,2.2,0.4,3.4,0.4c1.2,0.1,2.6,0.1,4.1,0.2c1.8,0.1,3.5,0.2,5,0.5
	c2.2,0.4,4,1,5.4,1.9c0.6,0.4,1.1,0.8,1.5,1.4L205.8,174.6 M191.1,167.1L191.1,167.1c-0.1-0.6,0-1.2,0.1-1.7
	c0.2-0.8,0.5-1.6,1.2-2.6c0.6-1,1.6-2.1,2.8-3.3c1-1.1,1.9-2,2.7-2.9c0.6-0.7,1.2-1.4,1.6-2.1c0.7-1.1,1.3-2.3,1.5-3.7
	c0.2-1.4,0.1-2.8-0.3-4.2c-0.4-1.5-2-2.4-3.5-2.1c-2.6,0.7-4.6,0.7-5.9,0.5c-0.8-0.1-1.4-0.3-1.9-0.6c0.1-0.6,0.2-1.5,0.2-2.5
	c-0.1-1.2-0.3-2.6-0.7-4.2c-0.8-2.9-1.9-5.4-2.8-7.8c-0.4-1.2-0.8-2.3-1-3.3c-0.2-1-0.3-2-0.3-2.9l0,0c0.1-2,0.8-3.6,1.8-4.9
	c1-1.3,2.3-2.3,3.6-2.8c0,0,0,0,0.1,0c0.7-0.3,1.3-0.4,1.8-0.4c0.5,0,0.9,0.1,1.2,0.2c0.6,0.3,1.4,0.4,2.1,0.1
	c0.9-0.3,1.9-0.3,2.7-0.2c0.2,0.1,0.5,0.1,0.7,0.2c-0.4,0.5-0.7,0.9-1,1.5l0,0c-1.3,2.3-1.8,4.7-1.9,6.8c0,2.1,0.4,4,1,5.5
	c0.1,0.2,0.2,0.5,0.3,0.7c0.8,1.7,1.9,3.6,2.6,4.7c-0.2,1.1,0,2.5,0.6,4l0.1,0.2c0.7,1.5,1.4,2.6,2.2,3.5c0.3,0.3,0.6,0.6,0.9,0.9
	c0.6,0.4,1.3,0.7,1.8,0.8c0.1,0,0.2,0,0.3,0.1c0.9,1.4,1.7,2.5,2.4,3.3c1.2,1.3,2.5,1.9,2.9,2.2c0.2,0.1,0.2,0.2,0.3,0.2
	c0,0.1,0.2,0.2,0.3,0.6c0.5,1.2,0.7,2.1,0.7,2.6c0,0.4,0,0.6-0.1,0.8c-0.1,0.2-0.2,0.4-0.4,0.7c-0.3,0.5-0.8,1.1-1.5,1.9
	c-0.7,0.8-1.7,1.7-2.8,2.9c-0.4,0.5-0.9,0.9-1.3,1.4L191.1,167.1 M188.2,110.5c0,0-0.1,0-0.1,0c-2.3,0.9-4.4,2.5-6.1,4.6
	c-1.7,2.2-2.8,4.9-3,8.1l0,0c-0.1,1.6,0.1,3.1,0.4,4.5c0.5,2.1,1.2,4.1,1.9,6c0.7,1.9,1.4,3.7,1.9,5.4c0.3,1.2,0.5,2,0.5,2.6
	c0,0.5,0,0.8,0,1.1c0,0.4-0.1,0.6-0.2,1.1c0,0.2-0.1,0.5-0.1,1c0,0.5,0,1.1,0.3,1.6c0.2,0.4,0.4,0.7,0.6,1c0.2,0.3,0.5,0.5,0.7,0.7
	h0c1.4,1.2,3.2,2.1,5.5,2.4c1.3,0.2,2.8,0.2,4.4,0.1c-0.2,0.4-0.6,0.9-1.1,1.5c-0.7,0.8-1.6,1.8-2.8,3c-1.2,1.3-2.3,2.5-3.1,3.7
	c-0.7,0.9-1.2,1.9-1.7,2.9c-0.7,1.5-1,3.2-0.9,4.9c0.1,1.7,0.5,3.4,1.2,5.2c0.1,0.2,0.2,0.4,0.3,0.5c0.8,1.1,2.2,1.6,3.5,1.1
	c0,0,0,0,0,0l0,0l10.5-4.2c-0.2,0.6-0.4,1.1-0.5,1.7c-0.3,1.3-0.4,2.7-0.3,4.2c0.1,1.4,0.5,2.9,1,4.3c0.3,0.7,0.9,1.3,1.6,1.6
	c0.7,0.3,1.5,0.3,2.2,0l0,0l51.4-20.7c0.7-0.3,1.3-0.9,1.6-1.6c0.3-0.7,0.3-1.5,0-2.2c-0.8-1.9-1.8-3.5-3.2-4.9
	c-1-1-2.1-1.8-3.3-2.4c-1.8-1-3.8-1.6-5.8-2c-2.1-0.4-4.2-0.6-6.4-0.7c-1.9-0.1-3.4-0.1-4.6-0.2c-0.9-0.1-1.5-0.2-1.9-0.3
	c-0.3-0.1-0.5-0.2-0.7-0.3c-0.2-0.1-0.4-0.3-0.7-0.7c-0.3-0.4-0.7-1.1-1.1-2.2c-0.1-0.3-0.2-0.4-0.2-0.5c0-0.2,0-0.1,0-0.4
	c0-0.2,0.1-0.5,0.2-0.9c0.2-0.7,0.3-1.7,0.3-2.8c0-1.1-0.2-2.4-0.5-4c0.1-0.1,0.2-0.3,0.3-0.5c0.2-0.4,0.4-0.9,0.5-1.4
	c0.2-0.8,0.1-1.6,0-2.4c-0.1-0.9-0.4-1.8-0.7-3l-0.1-0.2c-0.6-1.5-1.4-2.6-2.3-3.3c-0.3-1.3-0.9-3.4-1.4-5.2v0
	c-0.1-0.2-0.2-0.5-0.3-0.7c-0.6-1.5-1.7-3.2-3.3-4.8c-1.6-1.6-3.7-2.9-6.5-3.6c-0.3-0.1-0.6-0.1-0.9-0.2c-0.4-0.1-1-0.1-1.4-0.1
	c-0.1,0-0.2,0-0.3,0c-0.4-0.2-0.8-0.2-1.2-0.3c-0.8-0.1-1.4-0.1-2.1,0c-0.7,0.1-1.4,0.2-2.1,0.5c-0.2,0.1-0.3,0.1-0.5,0.2
	c0,0-0.1,0-0.1,0.1c-1.2,0.5-2.5,1.2-3.9,2c-1.4-1-2.8-1.6-4.3-1.9c-1.6-0.3-3.1-0.3-4.6,0.1c-0.9-0.3-1.9-0.4-2.8-0.3
	C190.7,109.7,189.4,110,188.2,110.5"/>
<path class="st1" d="M108.2,85.7C108.2,85.7,108.2,85.7,108.2,85.7c4.6-0.4,8-4.1,8.1-8.6c2.1-0.6,4.1-1.6,5.7-3l1.6,18.6
	c0.1,0.7-0.2,1.4-0.6,1.9c-0.4,0.5-1.1,0.9-1.8,0.9l-54.3,4.6c0,0,0,0,0,0c-0.7,0.1-1.4-0.2-1.9-0.6c-0.5-0.4-0.9-1.1-0.9-1.8
	l-1.6-18.6c1.8,1.1,3.9,1.8,6.1,2c0.8,4.3,4.8,7.4,9.3,7.1c0,0,0,0,0.1,0c4.4-0.4,7.8-4,8-8.4l13.1-1.1C99.9,83,103.8,86,108.2,85.7
	 M77.3,82.4c-1.6,0.1-3-1.1-3.1-2.7l-0.3-3.6c-0.1-1.6,1.1-3,2.7-3.2c0,0,0,0,0,0c1.6-0.1,3,1.1,3.1,2.7l0.3,3.6
	C80.1,80.8,79,82.3,77.3,82.4C77.3,82.4,77.3,82.4,77.3,82.4 M107.7,79.8c-1.6,0.1-3-1.1-3.1-2.7l-0.3-3.6c-0.1-1.6,1.1-3,2.7-3.2
	c0,0,0,0,0,0c1.6-0.1,3,1.1,3.1,2.7l0.3,3.6C110.6,78.3,109.4,79.7,107.7,79.8C107.7,79.8,107.7,79.8,107.7,79.8 M68.1,75.1
	c-1.4-0.3-2.7-0.9-3.7-1.8c-1.6-1.4-2.8-3.4-2.9-5.7l-0.1-1.5l-0.1-0.8L61,62.6l-0.7-8.5c-0.1-0.7,0.2-1.4,0.6-1.9
	c0.4-0.5,1.1-0.9,1.8-0.9l54.3-4.6h0c0.7-0.1,1.4,0.2,1.9,0.6c0.5,0.4,0.9,1.1,0.9,1.8l0.7,8.5l0.2,2.7l0.1,0.8l0.1,1.5
	c0.2,2.3-0.6,4.5-2,6.1c-0.9,1.1-2,1.9-3.4,2.4c-1-4-4.9-6.9-9.1-6.6c0,0,0,0-0.1,0c-4.4,0.4-7.8,4-8,8.3L85.4,74
	c-0.9-4.2-4.8-7.2-9.2-6.9c0,0-0.1,0-0.1,0C71.7,67.5,68.4,71,68.1,75.1 M79.5,44l-0.2-2.8c-0.1-0.7,0.2-1.4,0.6-1.9
	c0.4-0.5,1.1-0.9,1.8-0.9l14.5-1.2c0,0,0,0,0,0c0.7-0.1,1.4,0.2,1.9,0.6c0.5,0.4,0.9,1.1,0.9,1.8l0.2,2.8L79.5,44 M95.7,31.2
	C95.7,31.2,95.7,31.2,95.7,31.2l-14.6,1.2c-2.3,0.2-4.4,1.3-5.8,3c-1.4,1.7-2.2,3.9-2,6.2l0.2,2.8l-11.4,1c-2.3,0.2-4.4,1.3-5.8,3
	c-1.4,1.7-2.2,3.9-2,6.2l0.9,11.2l0.1,0.8l0.1,1.5l0,0l2.5,30c0.2,2.3,1.3,4.4,3,5.8c1.6,1.4,3.8,2.2,6.1,2c0,0,0,0,0.1,0l54.3-4.6
	c2.3-0.2,4.4-1.3,5.8-3c1.4-1.7,2.2-3.9,2-6.2l-2.5-30.1l-0.1-1.5l-0.1-0.8l-0.2-2.7l-0.7-8.5c-0.2-2.3-1.3-4.4-3-5.8
	c-1.6-1.4-3.8-2.2-6.1-2c0,0-0.1,0-0.1,0l-11.4,1l-0.2-2.8c-0.2-2.3-1.3-4.4-3-5.8C100.2,31.8,98,31.1,95.7,31.2"/>
<g>
	<path class="st1" d="M155.9,11.3c-1.7,0.2-3.3,0.6-5,1c0,0-0.1,0-0.1,0c-1.1,0.3-1.8,1.2-2,2.3c0,0,0,0,0,0c0,0.1,0,0.3,0,0.4
		c0,0.4,0,0.9,0,1.3c0,1.3,0.2,2.6,0.3,3.8c0.5,4,1.7,7.7,3.4,11.1c1.9,4,4.5,7.5,7.5,10.8c4.5,4.9,10.1,9,16,12.4
		c1.7,1,3.3,1.9,5.1,2.7c0.7,2.6,2,5.9,4.6,9.2c3.2,4,8.2,7.8,16.1,10.2c1.2,0.4,2.6-0.1,3.3-1.2c0.7-1.1,0.6-2.5-0.2-3.5
		c0,0-0.2-0.2-0.3-0.5c-0.3-0.5-0.6-1.2-0.9-2.1c-0.5-1.3-0.9-2.9-1.3-4.4c-0.1-0.3-0.1-0.6-0.2-0.8c0.1-0.1,0.3-0.1,0.4-0.2
		c1.2-0.7,2.6-1.7,4-3.3l5.3,4.1c1.3,1,3.1,0.7,4.1-0.6c1-1.3,0.7-3.1-0.6-4.1l-5.3-4.1c0.6-1,1-1.9,1.4-2.7c0.3-0.7,0.5-1.4,0.7-2
		c0-0.2,0.1-0.3,0.1-0.5c1.1,0,2.2-0.1,3.3-0.1c1.2,0,2.3,0.1,3.2,0.2c0.4,0.1,0.8,0.1,1.1,0.2c0.3,0.1,0.5,0.1,0.5,0.2
		c1.2,0.5,2.6,0.2,3.4-0.8c0.9-1,1-2.4,0.2-3.5c-4.4-6.9-9.5-10.8-14.1-12.7c-3.9-1.7-7.4-2-10.1-2c-2.8-3.1-5.8-6.1-9-8.8
		c-3.5-2.9-7.2-5.5-11.1-7.5c-3.9-2-8.1-3.6-12.4-4.3l0,0c-0.1,0-0.1,0-0.2,0C163.6,10.9,159.8,10.8,155.9,11.3 M154.9,19.5
		c-0.1-0.7-0.2-1.3-0.2-2c0.7-0.1,1.3-0.2,2-0.3c2.3-0.3,4.6-0.3,6.9-0.2c-0.1,0.3-0.1,0.5-0.2,0.8c-0.4,1.3-1.2,2.8-2.4,4.4
		c-1.4,1.8-2.9,3-4.1,3.8c-0.1,0.1-0.2,0.1-0.2,0.1C155.8,24,155.2,21.8,154.9,19.5 M197.2,68.5c-3.2-1.8-5.4-3.7-7-5.7
		c-0.5-0.6-1-1.3-1.3-1.9c2,0.8,3.9,1.6,5.9,2.3l0,0c0.4,0.2,0.8,0.3,1.3,0.4C196.3,65.1,196.7,66.8,197.2,68.5 M207.8,39.6
		c2.3,1,4.8,2.6,7.4,5.2c-0.7,0-1.5,0-2.2,0c-1,0-2,0.1-2.9,0.2c-0.3-0.4-0.5-0.7-0.8-1.1c-1.2-1.7-2.5-3.4-3.8-5.1
		C206.3,39.1,207.1,39.3,207.8,39.6 M192,32.3c4.6,4.5,8.8,9.7,12.6,15.1c0.7,0.9,1.3,1.9,1.9,2.8c-0.2,0.6-0.5,1.3-1,2.3l-12.2-9.3
		c-1.3-1-3.1-0.7-4.1,0.6c-1,1.3-0.7,3.1,0.6,4.1l12.2,9.3c-0.4,0.4-0.8,0.7-1.1,1c-0.3,0.2-0.6,0.4-0.8,0.6
		c-1.1-0.4-2.1-0.7-3.2-1.1l0,0c-8.2-2.9-16.4-6.7-23.3-11.5c-3.5-2.4-6.6-5-9.3-7.9c-2-2.1-3.7-4.4-5.1-6.7
		c0.5-0.3,0.9-0.5,1.4-0.9c1.6-1.1,3.4-2.6,5-4.8c1.9-2.5,2.9-4.9,3.5-6.9c0.1-0.3,0.2-0.6,0.2-0.9c2.7,0.7,5.3,1.8,7.8,3.1
		C182.4,23.8,187.4,27.7,192,32.3"/>
	<path class="st1" d="M168.8,35.9c0.3,2.2,1.4,4.3,3.3,5.7c1.9,1.4,4.2,2,6.4,1.7c2.2-0.3,4.3-1.4,5.7-3.3c1.4-1.9,2-4.2,1.7-6.4
		c-0.3-2.2-1.4-4.3-3.3-5.7l0,0c-1.9-1.4-4.2-2-6.4-1.7c-2.2,0.3-4.3,1.4-5.7,3.3C169.1,31.4,168.5,33.8,168.8,35.9 M180.1,34.4
		c0.1,0.7-0.1,1.4-0.5,2c-0.5,0.6-1.1,1-1.8,1.1c-0.7,0.1-1.4-0.1-2-0.5l0,0c-0.6-0.5-1-1.1-1.1-1.8c-0.1-0.7,0.1-1.4,0.5-2
		c0.5-0.6,1.1-1,1.8-1.1c0.7-0.1,1.4,0.1,2,0.5l0,0C179.7,33,180,33.7,180.1,34.4"/>
</g>
<rect y="0" class="st2" width="320" height="320"/>
<rect y="0" class="st2" width="320" height="320"/>
<path class="st1" d="M13.3,0C11.7,0.8,10,1.4,8.2,1.9c0-0.3,0-0.5-0.1-0.8c0-0.3,0-0.7,0-1.1H2.3c0,0.7,0,1.4,0,2
	c0,0.3,0.1,0.6,0.1,0.9C1.6,3,0.8,3.1,0,3.1V9c2.1,0,4.3-0.2,6.4-0.6l0,0c0.1,0,0.1,0,0.2,0c3.7-0.7,7.3-1.9,10.8-3.7
	c1.5-0.8,2.9-1.7,4.3-2.7c0,0,0,0,0.1-0.1c0.6-0.5,1-1.1,1.1-1.8H13.3z"/>
<g>
	<path class="st1" d="M21.8,67.6c-0.1-0.4-0.3-0.9-0.5-1.3c-0.1-0.1-0.1-0.2-0.2-0.3c0-0.5-0.1-0.8-0.3-1.2
		c-0.2-0.7-0.6-1.3-0.9-1.9c-0.4-0.6-0.8-1.1-1.3-1.7c-0.1-0.1-0.3-0.3-0.4-0.4c0,0-0.1-0.1-0.1-0.1c-1-0.9-2.2-1.8-3.5-2.6
		c0.3-1.7,0.2-3.3-0.2-4.7c-0.4-1.6-1.1-2.9-2.1-4.1c-0.2-0.9-0.5-1.8-0.9-2.7c-0.6-1.1-1.4-2.1-2.4-3c0,0-0.1-0.1-0.1-0.1
		c-1.8-1.6-4.2-2.9-6.8-3.4C1.4,40,0.7,39.9,0,39.8v5.9c0.3,0,0.6,0.1,0.9,0.1C2.5,46.2,4,47,5,47.9c0,0,0,0,0.1,0.1
		c0.5,0.5,0.9,1,1.2,1.5c0.3,0.5,0.3,0.9,0.4,1.2c0,0.7,0.3,1.4,0.8,1.9C8,53.2,8.4,54,8.7,54.9c0.1,0.2,0.1,0.5,0.1,0.7
		c-0.6-0.1-1.2-0.3-1.8-0.3l0,0c-2.6-0.2-5,0.4-6.9,1.3c0,0,0,0-0.1,0v7.1c0.5-0.6,1.4-1.3,2.6-1.8c1.2-0.5,2.5-0.9,4-0.8
		c0.5,0,1.1,0.2,1.7,0.4c1,0.4,2.2,1,3.3,1.6c1.1,0.6,2,1.4,2.6,1.9c0.1,0.1,0.2,0.2,0.3,0.3c0.2,0.2,0.6,0.7,0.7,1l0,0.1
		c0,0.6,0.1,1.2,0.4,1.8c0.2,0.3,0.3,0.5,0.4,0.7c0.1,0.1,0.1,0.2,0.1,0.2l0,0.1c0,0.1,0.1,0.2,0.1,0.5c0.3,1.5,0.2,2.9-0.2,4.2
		c-0.4,1.3-1.1,2.4-1.7,2.9c-0.1,0.1-0.2,0.2-0.2,0.2l0,0c-1,0.9-2.1,1.9-3.1,2.7c-0.5,0.4-0.9,0.7-1.2,1c-0.1,0.1-0.3,0.2-0.3,0.3
		s-0.1,0.1-0.1,0.1c-0.8,0.6-1.2,1.6-1.1,2.6c0,0.1-0.2,0.3-0.5,0.7c-0.9,0.9-1.5,1.3-1.7,1.4c-0.1,0-0.2-0.1-0.5-0.1
		c-0.4-0.1-1.2-0.1-1.9,0.1c-0.7,0.2-1.3,0.6-1.8,1l0,0c-0.8,0.7-1.4,1.1-2,1.4v6.4c0.6-0.2,1.3-0.4,2-0.8c1-0.5,2.1-1.2,3.4-2.2
		c0.2,0,0.4,0.1,0.6,0.1c0.4,0,1,0,1.5-0.2c0.8-0.2,1.5-0.6,2.2-1c0.7-0.5,1.5-1.1,2.3-2l0.1-0.1c1.1-1.2,1.7-2.4,1.9-3.5
		c1-0.9,2.7-2.3,4-3.6l0,0c0.2-0.2,0.4-0.4,0.5-0.5c1.1-1.2,2.2-2.9,2.9-5c0.7-2.1,1-4.7,0.4-7.4C21.9,68.1,21.8,67.9,21.8,67.6z"/>
	<path class="st1" d="M1.3,117.4c0.1-2-0.2-4.1-0.8-6.1c-0.2-0.6-0.4-1.2-0.6-1.9v13.4c0.2-0.5,0.4-0.9,0.6-1.4
		C1,120.1,1.3,118.8,1.3,117.4z"/>
</g>
<path class="st1" d="M29,200l-7.5-8.7l2.1-1.8c1.8-1.5,2.8-3.7,2.9-5.8c0.2-2.1-0.5-4.4-2-6.1c0,0,0,0-0.1-0.1l-9.5-11
	c-1.5-1.8-3.7-2.8-5.8-2.9c-2.2-0.2-4.4,0.5-6.2,2L1,167.4l-1-1.1v9l24.6,28.6l0,0c0.5,0.6,0.7,1.2,0.6,1.9
	c-0.1,0.7-0.4,1.3-0.9,1.8l-6.5,5.6l-2,1.8l-0.6,0.5l-1.1,1c-1.8,1.5-3.9,2.2-6.1,2c-1.4-0.1-2.7-0.5-3.9-1.3
	c2.7-3.2,2.7-8-0.1-11.2c0,0,0,0-0.1-0.1c-1.1-1.3-2.5-2.1-3.9-2.6v7.2c0.3,0.7,0.3,1.5,0,2.2v8.7c1.6,1.2,3.5,2.1,5.4,2.5L0,228.5
	v7.7l17.9-15.4l1.1-1l0.6-0.5l2-1.8l6.5-5.6c1.8-1.5,2.8-3.7,2.9-5.8C31.2,204,30.6,201.8,29,200C29.1,200,29.1,200,29,200z
	 M19.9,185.1l-2.1,1.8l-13-15.1l2.1-1.8c0.6-0.5,1.2-0.7,1.9-0.6c0.7,0.1,1.3,0.4,1.8,0.9l9.5,11c0,0,0,0,0,0
	c0.5,0.6,0.7,1.2,0.6,1.9C20.7,183.9,20.4,184.6,19.9,185.1z"/>
<path class="st1" d="M22.9,318.9c0-0.1-0.1-0.3-0.1-0.4c-0.2-0.4-0.3-0.8-0.5-1.2c-0.5-1.2-1-2.4-1.6-3.5c-1.9-3.5-4.3-6.6-7-9.2
	c-3.2-3-6.8-5.5-10.8-7.5c-0.9-0.5-1.9-0.9-2.9-1.3v6.5c0.1,0,0.2,0.1,0.2,0.1c2.6,1.3,5,2.8,7.1,4.5c-0.3,0.4-0.7,0.8-1,1.3
	c-1.1,1.6-2.2,3.6-3,6.2c-0.6,2.1-0.9,4-0.9,5.6h5.9c0-1.1,0.2-2.4,0.7-3.9c0.7-2.2,1.6-3.8,2.5-5c0.1-0.1,0.1-0.1,0.2-0.2
	c1.5,1.7,2.8,3.6,3.9,5.7c0.3,0.6,0.6,1.2,0.9,1.8c-0.6,0.4-1.1,0.7-1.7,1c-0.4,0.2-0.9,0.4-1.3,0.6h9.5
	C22.9,319.6,23,319.3,22.9,318.9C22.9,318.9,22.9,318.9,22.9,318.9z"/>
<path class="st1" d="M298.9,306.3c-0.3-1.6-0.9-2.8-1.6-3.7c0-1.3-0.1-3.5-0.3-5.4l0,0c0-0.3-0.1-0.5-0.1-0.8
	c-0.3-1.6-1-3.5-2.2-5.4c-1.2-1.9-3-3.7-5.6-4.9c-0.3-0.1-0.5-0.3-0.8-0.4c-0.4-0.2-0.9-0.3-1.3-0.4c-0.1,0-0.2,0-0.3,0
	c-0.4-0.3-0.8-0.4-1.1-0.5c-0.7-0.2-1.4-0.4-2.1-0.5c-0.7-0.1-1.4-0.1-2.1,0c-0.2,0-0.4,0-0.5,0.1c0,0-0.1,0-0.1,0
	c-1.3,0.2-2.7,0.6-4.2,1.2c-1.1-1.2-2.4-2.2-3.8-2.8c-1.5-0.6-3-0.9-4.5-0.9c-0.9-0.5-1.8-0.8-2.7-0.9c-1.3-0.2-2.6-0.2-3.8,0
	c0,0-0.1,0-0.1,0c-2.4,0.4-4.8,1.5-6.9,3.2c-2.1,1.8-3.8,4.2-4.7,7.3l0,0c-0.4,1.5-0.6,3-0.6,4.5c0,2.2,0.3,4.3,0.6,6.3
	c0.3,2,0.6,3.9,0.7,5.7c0.1,1.2,0,2.1-0.1,2.7c-0.1,0.5-0.1,0.8-0.2,1c-0.1,0.4-0.2,0.6-0.4,1c-0.1,0.2-0.2,0.5-0.4,1
	c-0.1,0.4-0.2,1.1-0.1,1.7c0.1,0.4,0.2,0.8,0.4,1.1c0.2,0.3,0.3,0.6,0.5,0.8l0,0c0.7,0.9,1.6,1.8,2.8,2.5h13.1c0-0.3,0-0.6,0-0.9
	c-0.1-1.6-1.4-2.8-3-2.8c-2.7,0.1-4.6-0.3-5.9-0.8c-0.8-0.3-1.3-0.6-1.7-1c0.2-0.6,0.5-1.4,0.7-2.4c0.2-1.1,0.3-2.5,0.2-4.3
	c-0.2-3-0.7-5.7-1.1-8.2c-0.2-1.2-0.3-2.4-0.3-3.4c0-1.1,0.1-2,0.4-2.9l0,0c0.5-1.9,1.5-3.3,2.8-4.4c1.3-1.1,2.8-1.7,4.1-1.9
	c0,0,0,0,0.1,0c0.7-0.1,1.4-0.1,1.9,0c0.5,0.1,0.9,0.3,1.1,0.4c0.6,0.4,1.3,0.6,2,0.6c1-0.1,1.9,0.1,2.7,0.4
	c0.2,0.1,0.4,0.2,0.6,0.3c-0.5,0.4-0.9,0.8-1.3,1.2l0,0c-1.8,1.9-2.8,4.2-3.2,6.2c-0.5,2.1-0.5,4-0.2,5.6c0,0.2,0.1,0.5,0.2,0.7
	c0.5,1.8,1.1,3.9,1.5,5.2c-0.4,1-0.5,2.4-0.3,4l0,0.2c0.4,1.7,0.8,2.8,1.4,3.8c0.2,0.4,0.5,0.7,0.7,1c0.5,0.5,1.1,1,1.6,1.2
	c0.1,0,0.2,0.1,0.3,0.1c0.2,0.7,0.5,1.4,0.8,2h7c0,0-0.1-0.1-0.2-0.2c-0.3-0.3-0.6-0.6-0.9-1.2c-0.3-0.6-0.8-1.4-1.2-2.8
	c-0.2-0.5-0.4-1-0.7-1.5c-0.3-0.4-0.7-0.8-1.1-1.1c-0.3-0.2-0.6-0.4-0.9-0.5c-0.1,0-0.2-0.1-0.3-0.1c0-0.1-0.1-0.2-0.2-0.4
	c-0.1-0.4-0.3-0.9-0.5-1.7c-0.1-0.3-0.1-0.6,0-0.7l0-0.1c0.6-0.8,0.8-1.8,0.5-2.7c0,0,0,0,0-0.1c-0.2-0.7-1.2-3.6-1.7-5.9
	c0-0.1,0-0.2-0.1-0.3c-0.1-0.7-0.1-2,0.2-3.2c0.3-1.3,0.9-2.5,1.8-3.6c0.3-0.3,0.8-0.7,1.4-1.1c0.9-0.6,2.1-1.1,3.3-1.6
	c1.2-0.4,2.3-0.7,3.1-0.9c0.1,0,0.3,0,0.4-0.1c0.3,0,0.9,0,1.3,0.1l0.1,0c0.5,0.4,1,0.7,1.6,0.8c0.3,0,0.6,0.1,0.8,0.1
	c0.1,0,0.2,0,0.2,0l0.1,0c0.1,0,0.2,0.1,0.4,0.2c1.4,0.7,2.4,1.7,3.2,2.8c0.7,1.1,1.2,2.3,1.3,3.1c0,0.1,0,0.2,0,0.3l0,0
	c0.1,1.3,0.2,2.9,0.3,4.1c0,0.6,0,1.2,0.1,1.5c0,0.2,0,0.3,0,0.4c0,0.1,0,0.2,0,0.2c0,1,0.5,1.9,1.4,2.4c0.1,0.1,0.2,0.3,0.2,0.8
	c0.1,1.2,0.1,1.9,0,2.2c-0.1,0.1-0.2,0.2-0.4,0.3c-0.3,0.3-0.8,0.9-1.1,1.6c-0.3,0.7-0.3,1.4-0.3,2.1l0,0c0,1.5-0.1,2.4-0.2,3
	c-0.2,1-0.4,1.2-0.9,2.2c-0.2,0.3-0.3,0.8-0.4,1.3h6.3c0.3-0.6,0.6-1.4,0.7-2.3c0.2-1.1,0.4-2.4,0.3-4c0.1-0.1,0.3-0.3,0.4-0.5
	c0.3-0.3,0.6-0.8,0.8-1.2c0.3-0.7,0.5-1.5,0.5-2.4c0.1-0.9,0-1.9-0.1-3.1L298.9,306.3z"/>
<path class="st1" d="M320,244.4c-2.3,0.1-4.5,0-6.7-0.4c0.1-0.2,0.2-0.5,0.3-0.8c0.5-1.3,1.4-2.7,2.7-4.2c1.3-1.4,2.5-2.4,3.6-3
	v-15.3c-0.4-0.5-0.7-1-1.1-1.5c-4.1-5.2-9.3-9.7-15-13.6c-1.6-1.1-3.2-2.1-4.8-3.1c-0.5-2.6-1.5-6-3.9-9.5
	c-2.9-4.2-7.6-8.4-15.2-11.4c-1.2-0.5-2.6-0.1-3.4,0.9c-0.8,1-0.8,2.5-0.1,3.5c0,0,0.1,0.2,0.3,0.5c0.2,0.5,0.5,1.3,0.7,2.1
	c0.4,1.3,0.7,3,0.9,4.5c0,0.3,0.1,0.6,0.1,0.8c-0.1,0.1-0.3,0.1-0.4,0.2c-1.2,0.6-2.7,1.5-4.3,2.9l-5-4.5c-1.2-1.1-3.1-1-4.2,0.2
	c-1.1,1.2-1,3.1,0.2,4.2l5,4.4c-0.7,0.9-1.2,1.8-1.6,2.6c-0.4,0.7-0.6,1.4-0.8,2c-0.1,0.2-0.1,0.3-0.1,0.5c-1.1,0-2.2-0.1-3.3-0.2
	c-1.2-0.1-2.3-0.2-3.2-0.4c-0.4-0.1-0.8-0.2-1.1-0.3c-0.3-0.1-0.5-0.2-0.5-0.2c-1.1-0.6-2.6-0.4-3.5,0.5c-0.9,0.9-1.1,2.3-0.5,3.5
	c3.9,7.2,8.6,11.4,13.1,13.8c3.7,2,7.3,2.6,9.9,2.8c2.6,3.3,5.4,6.5,8.4,9.4c3.3,3.2,6.8,6,10.5,8.4c3.8,2.3,7.8,4.2,12,5.3l0,0
	c0.1,0,0.1,0,0.2,0c3.5,0.9,7.1,1.3,10.9,1.1V244.4z M290.2,196.3c0.5,0.7,0.8,1.4,1.2,2c-1.9-1-3.8-1.9-5.7-2.7l0,0
	c-0.4-0.2-0.8-0.4-1.2-0.5c-0.2-1.5-0.4-3.2-0.8-5C286.8,192.1,288.8,194.2,290.2,196.3z M270.9,218c-2.2-1.2-4.6-3-6.9-5.8
	c0.7,0.1,1.5,0.1,2.2,0.1c1,0,2,0.1,2.9,0.1c0.2,0.4,0.4,0.8,0.7,1.2c1.1,1.8,2.2,3.6,3.4,5.4C272.3,218.7,271.6,218.4,270.9,218z
	 M312,235.1c-2.1,2.3-3.3,4.7-4,6.6c-0.1,0.3-0.2,0.6-0.3,0.9c-2.6-0.9-5.1-2.2-7.6-3.7c-5-3.1-9.7-7.3-13.9-12.2
	c-4.3-4.9-8.1-10.4-11.4-16c-0.6-1-1.1-2-1.7-3c0.2-0.5,0.6-1.3,1.2-2.2l11.5,10.2c1.2,1.1,3.1,1,4.2-0.2c1.1-1.2,1-3.1-0.2-4.2
	L278.1,201c0.4-0.4,0.8-0.7,1.2-0.9c0.3-0.2,0.6-0.4,0.9-0.5c1,0.4,2.1,0.9,3.1,1.3l0,0c7.9,3.5,15.8,8,22.3,13.3
	c3.3,2.7,6.2,5.5,8.6,8.6c1.8,2.3,3.3,4.6,4.6,7.1c-0.5,0.2-1,0.5-1.5,0.8C315.7,231.7,313.8,233.1,312,235.1z"/>
<path class="st1" d="M320,135.8l-5.8,5.2c-0.6,0.5-1.2,0.7-1.9,0.7c-0.7,0-1.3-0.3-1.8-0.9l-36.3-40.6c0,0,0,0,0,0
	c-0.5-0.6-0.7-1.2-0.7-1.9c0-0.7,0.3-1.3,0.9-1.8l13.9-12.4c0.2,2.1,0.9,4.2,2.1,6.1c-3,3.3-3.1,8.3-0.1,11.7c0,0,0,0,0,0.1
	c3,3.3,7.9,3.8,11.5,1.4l8.8,9.8c-2.8,3.3-2.9,8.2,0,11.5c0,0,0,0,0.1,0.1c2.4,2.7,6.1,3.5,9.4,2.4V120l-0.9,0.8
	c-1.2,1.1-3.1,1-4.1-0.2c0,0,0,0,0,0c-1.1-1.2-0.9-3,0.2-4.1l2.7-2.4c0.6-0.5,1.4-0.8,2.1-0.7v-5.8c-1.8,0-3.6,0.5-5.1,1.5l-8.8-9.8
	c2.8-3.3,2.9-8.2,0-11.5c0,0,0,0-0.1-0.1c-2.9-3.2-7.6-3.8-11.2-1.6c-0.6-1.3-0.9-2.7-0.8-4.1c0.1-2.2,1.1-4.2,2.8-5.8l1.1-1
	l0.6-0.5l2-1.8l6.4-5.7c0.6-0.5,1.2-0.7,1.9-0.7c0.7,0,1.3,0.3,1.8,0.9l9.3,10.4V69l-4.9-5.5c-1.6-1.7-3.7-2.7-5.9-2.8
	c-2.2-0.1-4.4,0.6-6.2,2.2l-8.4,7.5l-0.6,0.6l-1.1,1l0,0L270.4,92c-1.7,1.6-2.7,3.7-2.8,5.9c-0.1,2.1,0.6,4.4,2.1,6.1
	c0,0,0,0,0.1,0.1l36.3,40.6c1.6,1.7,3.7,2.7,5.9,2.8c2.2,0.1,4.4-0.6,6.1-2.2l1.9-1.7V135.8z M294.9,93.7l2.7-2.4
	c1.2-1.1,3-1,4.1,0.2c0,0,0,0,0,0c1.1,1.2,1,3-0.2,4.1l-2.7,2.4c-1.2,1.1-3.1,1-4.1-0.2c0,0,0,0,0,0
	C293.6,96.6,293.7,94.8,294.9,93.7z"/>
<path class="st1" d="M296,0.4c0.1-0.1,0.1-0.2,0.2-0.4h-6.3c-0.1,0.2-0.1,0.4-0.1,0.7c-0.1,0.8-0.1,1.6,0.1,2.5
	c0.3,1.6,0.6,3,1.3,4.2c0.5,0.9,1.1,1.8,1.9,2.5c0.6,0.5,1.3,0.9,1.9,1.2c1,0.5,2.1,0.8,3.2,1.1c1.2,0.3,2.5,0.6,4,1
	c1.8,0.5,3.4,0.9,4.8,1.5c2.1,0.8,3.7,1.8,4.9,3c0.5,0.5,0.9,1,1.2,1.6l-47.8,8.2c0-0.2,0.1-0.3,0.1-0.5c0.2-0.8,0.5-1.5,0.9-2.2
	c0.6-1.1,1.6-2.2,2.8-3.3c1.2-1.1,2.7-2.2,4.4-3.4c1.5-1,2.8-1.9,4-2.7c0.8-0.6,1.6-1.2,2.3-1.9c0.5-0.5,1-1.1,1.4-1.8
	c0.6-1,0.9-2.2,0.9-3.4c0.1-1.2,0-2.4-0.3-3.7c-0.1-0.6-0.2-1.1-0.4-1.7c-0.3-0.9-0.9-1.7-1.3-2.2c-0.3-0.3-0.5-0.5-0.7-0.7h-7
	c0.3,0.7,0.6,1.3,0.9,1.8c0.9,1.5,2,2.4,2.3,2.8c0.2,0.2,0.2,0.2,0.2,0.3c0,0.1,0.1,0.2,0.2,0.7c0.2,1.3,0.2,2.2,0.2,2.6
	c-0.1,0.4-0.1,0.5-0.2,0.8c-0.1,0.2-0.2,0.4-0.5,0.6c-0.4,0.4-1,0.9-1.9,1.5c-0.9,0.6-2,1.3-3.3,2.2c-0.5,0.4-1.1,0.7-1.6,1.1
	l-16.1,2.8l0,0c0.1-0.6,0.2-1.1,0.5-1.6c0.3-0.7,0.9-1.5,1.7-2.3c0.8-0.8,2-1.7,3.4-2.7c1.2-0.8,2.3-1.6,3.3-2.3
	c0.7-0.5,1.4-1.1,2-1.7c0.9-0.9,1.8-2,2.3-3.3c0.4-1,0.6-2.1,0.6-3.2h-13.1c0.6,0.4,1.3,0.8,2.1,1c1.2,0.5,2.7,0.8,4.3,1
	c-0.3,0.3-0.8,0.8-1.4,1.2c-0.9,0.7-2,1.4-3.4,2.3c-1.4,1-2.7,1.9-3.9,3c-0.8,0.8-1.6,1.6-2.2,2.5c-1,1.4-1.6,2.9-2,4.6
	c-0.3,1.7-0.3,3.5,0.1,5.3c0,0.2,0.1,0.4,0.2,0.6c0.5,1.3,1.8,2.1,3.2,1.8c0,0,0,0,0,0l0,0l11.1-1.9c-0.3,0.5-0.6,1-0.8,1.6
	c-0.6,1.2-1,2.6-1.2,4c-0.2,1.4-0.2,2.9,0.1,4.4c0.1,0.8,0.6,1.5,1.2,1.9c0.6,0.4,1.4,0.6,2.2,0.5l0,0l54.6-9.3
	c0.8-0.1,1.5-0.6,1.9-1.2c0.4-0.6,0.6-1.4,0.5-2.2c-0.3-2-1.1-3.9-2.1-5.4c-0.8-1.2-1.7-2.2-2.7-3.1c-1.6-1.3-3.3-2.3-5.3-3.2
	c-1.9-0.8-4-1.5-6.1-2c-1.9-0.5-3.3-0.8-4.4-1.2c-0.8-0.2-1.4-0.5-1.8-0.7c-0.3-0.2-0.5-0.3-0.6-0.4c-0.2-0.2-0.3-0.3-0.5-0.8
	c-0.2-0.5-0.4-1.2-0.6-2.3c-0.1-0.3-0.1-0.5-0.1-0.6c0-0.2,0-0.2,0.1-0.4C295.7,1.1,295.8,0.8,296,0.4z"/>
</svg>
