<?xml version="1.0" encoding="utf-8"?>
<!-- Generator: Adobe Illustrator 16.0.0, SVG Export Plug-In . SVG Version: 6.00 Build 0)  -->
<!DOCTYPE svg PUBLIC "-//W3C//DTD SVG 1.1//EN" "http://www.w3.org/Graphics/SVG/1.1/DTD/svg11.dtd">
<svg version="1.1" id="Layer_1" xmlns="http://www.w3.org/2000/svg" xmlns:xlink="http://www.w3.org/1999/xlink" x="0px" y="0px"
	 width="1200px" height="424px" viewBox="0 0 1200 424" enable-background="new 0 0 1200 424" xml:space="preserve">
<g opacity="0">
	
		<image overflow="visible" enable-background="new    " width="1921" height="1081" id="A03RoJ_1_" xlink:href="50F113FBC2DD85EB.jpg"  transform="matrix(0.9994 0 0 0.9994 3653.0938 -1863.166)">
	</image>
</g>
<g>
	
		<image overflow="visible" enable-background="new    " width="1921" height="1081" id="A03RoJ_2_" xlink:href="50F113FBC2DD85E9.jpg"  transform="matrix(0.9994 0 0 0.9994 5030.1348 -1793.1543)">
	</image>
</g>
<g>
	<circle fill="#D4D4D6" cx="3497.622" cy="-1723.49" r="20.188"/>
	<circle fill="#AFD0E9" cx="3557.434" cy="-1654.398" r="20.188"/>
	<circle fill="#D4D4D6" cx="3547.577" cy="-1705.782" r="20.188"/>
	<g>
		<g>
			<defs>
				<circle id="SVGID_2_" cx="3557.434" cy="-1654.398" r="20.188"/>
			</defs>
			<clipPath id="SVGID_3_">
				<use xlink:href="#SVGID_2_"  overflow="visible"/>
			</clipPath>
			<polygon clip-path="url(#SVGID_3_)" fill="#67BA59" points="3587.479,-1646.235 3562.154,-1628.766 3536.613,-1637.118 
				3533.189,-1683.561 3557.434,-1678.4 3557.434,-1674.586 3574.434,-1674.586 			"/>
		</g>
	</g>
	<g>
		<g>
			<defs>
				<circle id="SVGID_4_" cx="3547.577" cy="-1705.782" r="20.188"/>
			</defs>
			<clipPath id="SVGID_5_">
				<use xlink:href="#SVGID_4_"  overflow="visible"/>
			</clipPath>
			<polygon clip-path="url(#SVGID_5_)" fill="#67BA59" points="3577.621,-1697.619 3552.299,-1680.15 3526.758,-1688.502 
				3523.334,-1705.742 3547.576,-1705.782 3547.576,-1725.97 3564.576,-1725.97 			"/>
		</g>
	</g>
	<g>
		<g>
			<defs>
				<circle id="SVGID_6_" cx="3497.622" cy="-1723.49" r="20.188"/>
			</defs>
			<clipPath id="SVGID_7_">
				<use xlink:href="#SVGID_6_"  overflow="visible"/>
			</clipPath>
			<polygon clip-path="url(#SVGID_7_)" fill="#FCCD64" points="3527.666,-1715.327 3502.344,-1697.858 3476.803,-1706.21 
				3489.379,-1700.647 3497.621,-1723.49 3497.621,-1743.678 3514.621,-1743.678 			"/>
		</g>
	</g>
	<circle fill="#D4D4D6" cx="3437.811" cy="-1654.506" r="20.188"/>
	<g>
		<g>
			<defs>
				<circle id="SVGID_8_" cx="3437.811" cy="-1654.506" r="20.188"/>
			</defs>
			<clipPath id="SVGID_9_">
				<use xlink:href="#SVGID_8_"  overflow="visible"/>
			</clipPath>
			<polygon clip-path="url(#SVGID_9_)" fill="#FCCD64" points="3467.854,-1646.343 3442.531,-1628.874 3416.99,-1637.226 
				3422.209,-1638.282 3437.811,-1654.506 3437.811,-1674.694 3454.811,-1674.694 			"/>
		</g>
	</g>
	<circle fill="#D4D4D6" cx="3447.666" cy="-1705.89" r="20.188"/>
	<g>
		<g>
			<defs>
				<circle id="SVGID_10_" cx="3447.666" cy="-1705.89" r="20.188"/>
			</defs>
			<clipPath id="SVGID_11_">
				<use xlink:href="#SVGID_10_"  overflow="visible"/>
			</clipPath>
			<polygon clip-path="url(#SVGID_11_)" fill="#67BA59" points="3474.811,-1700.449 3450.688,-1682.979 3423.947,-1691.332 
				3420.521,-1693.77 3447.666,-1705.89 3447.666,-1726.078 3461.766,-1728.8 			"/>
		</g>
	</g>
	<circle fill="#FFFFFF" cx="3437.811" cy="-1654.506" r="17"/>
	<circle fill="#FFFFFF" cx="3447.666" cy="-1705.89" r="17"/>
	<circle fill="#FFFFFF" cx="3497.621" cy="-1723.49" r="17"/>
	<circle fill="#FFFFFF" cx="3557.434" cy="-1654.398" r="17"/>
	<circle fill="#FFFFFF" cx="3547.576" cy="-1705.782" r="17"/>
	<g>
		<path fill="#525F96" d="M3450.186-1659.657c0-0.223-0.28-0.417-0.696-0.518c-0.191-0.045,0.176-0.667-0.644-0.667
			c-0.521,0-0.975,0.428-1.195,0.794h-2.688v0.794h2.688c0.222,0.366,0.675,0.794,1.195,0.794c0.818,0,0.451-0.622,0.644-0.668
			c0.416-0.1,0.696-0.294,0.696-0.517c0-0.002,0-0.004,0-0.006S3450.186-1659.655,3450.186-1659.657z"/>
		<ellipse fill="#525F96" cx="3431.636" cy="-1660.573" rx="2.265" ry="2.447"/>
		<path fill="#525F96" d="M3432.398-1652.976c0,1.06,0.891,6.153,0.348,6.153c-0.861,0-2.316-0.343-2.316-1.29
			c0-3.475,0-4.18,0-4.864c0-1.06,0.441-1.919,0.984-1.919S3432.398-1654.036,3432.398-1652.976z"/>
		<path fill="#525F96" d="M3440.996-1653.05c0,1.059,0.891,6.153,0.348,6.153c-0.861,0-2.315-0.343-2.315-1.29
			c0-3.475,0-4.179,0-4.863c0-1.061,0.44-1.919,0.983-1.919S3440.996-1654.111,3440.996-1653.05z"/>
		<path fill="#6D81BF" d="M3446.607-1656.583c0,3.371,0.055,7.876,0,9.43c-0.019,0.541-1.021,1.064-2.688,1.064
			c-0.779,0-3.014-0.213-3.014-1.119c0-0.415,0.131-3.646-0.254-3.646c-0.564,0-1.588,0-2.48,0c-0.469,0-0.28,2.917-0.28,3.67
			c0,0.972-2.013,1.094-2.765,1.094c-0.776,0-2.729-0.337-2.729-1.049c0-0.357,0-3.424,0-4.963c0-0.798-0.648-1.291-2.07-1.291
			c-0.613,0-1.801,0.283-2.017,1.854c-0.221,1.622-0.297,2.756-0.297,3.971c0,0.562-1.236,0.81-1.324,0.81
			c-0.289,0-1.258-0.25-1.258-0.81c0-2.482,0-8.623,0-10.026c0-1.728,1.357-3.954,4.699-3.954c0.314,0,1.924-1.475,3.768-1.475
			c1.423,0,1.877,1.087,1.877,1.087c2.363-0.097,4.806-0.067,6.664,0.387C3446.301-1660.604,3446.607-1657.433,3446.607-1656.583z"
			/>
		<ellipse fill="#95A7DA" cx="3430.896" cy="-1648.609" rx="0.565" ry="1.327"/>
		<ellipse fill="#95A7DA" cx="3431.391" cy="-1648.045" rx="0.494" ry="1.098"/>
		<ellipse fill="#95A7DA" cx="3439.495" cy="-1648.684" rx="0.567" ry="1.328"/>
		<ellipse fill="#95A7DA" cx="3439.988" cy="-1648.119" rx="0.494" ry="1.098"/>
		<ellipse fill="#95A7DA" cx="3433.076" cy="-1647.648" rx="0.844" ry="1.297"/>
		<ellipse fill="#95A7DA" cx="3433.814" cy="-1647.679" rx="0.938" ry="1.687"/>
		<ellipse fill="#95A7DA" cx="3434.605" cy="-1647.25" rx="0.791" ry="1.259"/>
		<ellipse fill="#95A7DA" cx="3441.625" cy="-1647.648" rx="0.844" ry="1.297"/>
		<ellipse fill="#95A7DA" cx="3442.363" cy="-1647.679" rx="0.938" ry="1.687"/>
		<ellipse fill="#95A7DA" cx="3443.154" cy="-1647.25" rx="0.791" ry="1.259"/>
		<path fill="#3C3957" d="M3429.686-1657.418c0,0.534-0.414,0.968-0.926,0.968s-0.928-0.434-0.928-0.968
			c0-0.535,0.529-1.067,1.357-1.067c0.334,0-0.724,0.535-0.414,0.535C3429.271-1657.95,3429.686-1657.603,3429.686-1657.418z"/>
		<path fill="#3C3957" d="M3430.188-1653.386c0.166-0.08,0.638-0.505,0.765-0.645c0.149-0.167,0.262-0.358,0.358-0.556
			c0.062-0.127,0.109-0.263,0.154-0.398c0.035-0.103,0.061-0.21,0.082-0.317c0.025-0.129,0.043-0.261,0.062-0.391
			c0.016-0.117,0.03-0.232,0.026-0.35c-0.002-0.06-0.016-0.074-0.073-0.08c-0.029-0.002-0.062,0-0.088-0.01
			c-0.064-0.021-0.129-0.043-0.188-0.073c-0.133-0.064-0.244-0.158-0.332-0.277c-0.039-0.054-0.029-0.129,0.017-0.175
			c0.053-0.054,0.155-0.051,0.198,0c0.023,0.026,0.048,0.051,0.068,0.076c0.088,0.09,0.19,0.16,0.313,0.182
			c0.095,0.018,0.191,0.023,0.289-0.013c0.084-0.031,0.158-0.072,0.224-0.135c0.065-0.064,0.116-0.138,0.153-0.221
			c0.048-0.103,0.101-0.12,0.193-0.103c0.066,0.012,0.117,0.109,0.09,0.17c-0.006,0.011-0.012,0.022-0.018,0.034
			c-0.041,0.101-0.1,0.189-0.172,0.271c-0.096,0.11-0.215,0.188-0.351,0.242c-0.034,0.013-0.043,0.03-0.043,0.06
			c0,0.054,0.002,0.107-0.002,0.16c-0.012,0.125-0.024,0.25-0.039,0.375c-0.012,0.093-0.022,0.187-0.043,0.278
			c-0.026,0.115-0.062,0.228-0.094,0.342c-0.035,0.134-0.082,0.264-0.139,0.391c-0.093,0.205-0.195,0.4-0.334,0.578
			c-0.097,0.122-0.201,0.235-0.32,0.333C3430.92-1653.615,3430.684-1653.323,3430.188-1653.386"/>
		<path fill="#3C3957" d="M3438.186-1657.044c-0.196-0.7-0.92-0.792-1.549-0.792c0.072-0.787,0.053-1.525-0.115-2.274
			c-0.323-1.438-0.748-1.821-0.743-1.823l0,0c0.299,0.685,0.444,1.737,0.506,2.564c0.072,0.986,0.029,2.416-0.69,3.195
			c-0.646,0.699-1.849,0.392-2.291,1.292c-0.072,0.144-0.142,0.515,0.004,0.637c0.131,0.11,0.375,0.032,0.358-0.157
			c-0.051-0.584,0.461-0.725,0.93-0.807c0,0.376-0.409,1.106-0.229,1.436c0.071,0.13,0.682,0.095,0.787,0.024
			c0.297-0.198,0.051-0.79,0.317-1.011c0.218-0.179,0.74-0.021,1.011-0.059c0.344-0.05,0.657-0.09,0.952-0.29
			C3438.039-1655.518,3438.389-1656.328,3438.186-1657.044C3438.145-1657.19,3438.213-1656.949,3438.186-1657.044z
			 M3437.279-1656.415c-0.113,0.578-0.41,0.892-1.017,0.924c-0.526,0.028-0.891,0.01-0.33-0.419
			c0.267-0.385,0.504-0.757,0.595-1.226c0.022-0.123,0.381-0.013,0.448,0.01C3437.291-1657.019,3437.336-1656.709,3437.279-1656.415
			C3437.268-1656.356,3437.305-1656.552,3437.279-1656.415z"/>
		<path fill="#3C3957" d="M3440.773-1647.139c0-0.028,0.004-0.044-0.002-0.058c-0.019-0.055-0.039-0.109-0.058-0.164
			c-0.02-0.063-0.049-0.125-0.043-0.194c0.004-0.046-0.02-0.082-0.041-0.127c-0.008,0.022-0.01,0.039-0.018,0.05
			c-0.078,0.131-0.168,0.25-0.312,0.316c-0.016,0.007-0.039,0.011-0.032,0.039
			C3440.432-1647.221,3440.596-1647.17,3440.773-1647.139z"/>
		<path fill="#3C3957" d="M3432.168-1647.221c-0.004-0.041-0.008-0.076-0.012-0.111c-0.006-0.033-0.014-0.066-0.021-0.1
			c-0.002-0.023-0.002-0.046-0.004-0.07c-0.006-0.06-0.014-0.118-0.02-0.177c-0.002-0.016-0.004-0.032-0.007-0.047
			c-0.004-0.001-0.01-0.003-0.014-0.004c-0.031,0.082-0.078,0.152-0.137,0.214c-0.061,0.062-0.129,0.116-0.213,0.141
			c-0.012,0.034,0.008,0.044,0.033,0.051c0.115,0.035,0.229,0.069,0.344,0.103
			C3432.133-1647.219,3432.146-1647.221,3432.168-1647.221z"/>
		<path fill="#3C3856" d="M3443.494-1657.833c0.254,0,0.506-0.003,0.758,0.001c0.109,0.002,0.217,0.012,0.324,0.029
			c0.117,0.02,0.238,0.042,0.352,0.081c0.15,0.051,0.297,0.117,0.41,0.236c0.037,0.04,0.068,0.084,0.102,0.128
			c0.056,0.075,0.093,0.158,0.125,0.245c0.07,0.191,0.086,0.388,0.072,0.588c-0.006,0.087-0.031,0.172-0.041,0.258
			c-0.016,0.109-0.051,0.214-0.09,0.314c-0.043,0.118-0.102,0.23-0.174,0.335c-0.082,0.122-0.178,0.235-0.285,0.334
			c-0.121,0.109-0.25,0.206-0.395,0.279c-0.074,0.037-0.15,0.063-0.229,0.089c-0.121,0.041-0.246,0.059-0.371,0.077
			c-0.344,0.047-0.688,0.019-1.035,0.026c-0.062,0.001-0.112,0.021-0.159,0.062c-0.048,0.041-0.062,0.094-0.074,0.151
			c-0.017,0.077-0.033,0.153-0.049,0.229c-0.004,0.015-0.004,0.03-0.007,0.044c-0.018,0.077-0.032,0.153-0.049,0.229
			c-0.01,0.058-0.027,0.116-0.029,0.175c-0.004,0.11-0.104,0.208-0.215,0.207c-0.185-0.001-0.367,0-0.551-0.001
			c-0.091-0.001-0.136-0.041-0.146-0.107c-0.006-0.041,0-0.085,0.008-0.126c0.013-0.074,0.027-0.146,0.043-0.219
			c0.013-0.062,0.023-0.125,0.037-0.188c0.015-0.073,0.027-0.146,0.043-0.22c0.017-0.076,0.035-0.153,0.052-0.229
			c0.01-0.056,0.02-0.113,0.028-0.169c0.019-0.081,0.035-0.161,0.05-0.241c0.012-0.064,0.021-0.129,0.032-0.194
			c0.011-0.054,0.021-0.108,0.029-0.162c0.019-0.089,0.033-0.18,0.051-0.269c0.023-0.11,0.048-0.22,0.07-0.331
			c0.017-0.073,0.027-0.145,0.041-0.218c0.014-0.066,0.029-0.132,0.043-0.198c0.014-0.064,0.023-0.129,0.035-0.193
			c0.012-0.069,0.027-0.138,0.041-0.206c0.012-0.066,0.025-0.133,0.037-0.199c0.014-0.068,0.029-0.137,0.043-0.206
			c0.014-0.073,0.025-0.146,0.039-0.219c0.012-0.055,0.02-0.109,0.059-0.153c0.041-0.046,0.088-0.073,0.152-0.073
			c0.219,0.001,0.438,0.001,0.654,0.001c0.057,0,0.111,0,0.166,0C3443.494-1657.835,3443.494-1657.834,3443.494-1657.833z
			 M3443.768-1657.185c0-0.001,0-0.003,0-0.004c-0.1,0-0.2-0.001-0.301,0c-0.1,0.001-0.174,0.066-0.207,0.158
			c-0.016,0.047-0.018,0.095-0.027,0.142c-0.022,0.122-0.051,0.241-0.075,0.362c-0.029,0.157-0.058,0.313-0.086,0.47
			c-0.002,0.006-0.004,0.012-0.007,0.018c-0.012,0.064-0.026,0.128-0.039,0.192c-0.014,0.068-0.022,0.138-0.039,0.206
			c-0.016,0.064,0.013,0.133,0.072,0.157c0.027,0.012,0.062,0.021,0.092,0.021c0.15,0.001,0.302,0.005,0.451-0.018
			c0.092-0.014,0.185-0.016,0.273-0.033c0.084-0.016,0.164-0.049,0.248-0.069c0.121-0.029,0.213-0.099,0.291-0.19
			c0.106-0.125,0.174-0.273,0.215-0.433c0.01-0.043,0.021-0.086,0.029-0.13c0.014-0.077,0.031-0.154,0.037-0.232
			c0.008-0.104-0.008-0.207-0.041-0.307c-0.031-0.099-0.101-0.165-0.188-0.21c-0.127-0.066-0.27-0.087-0.409-0.097
			C3443.961-1657.19,3443.863-1657.185,3443.768-1657.185z"/>
		<path fill="#3C3856" d="M3440.184-1657.17c-0.106,0-0.217-0.002-0.325,0c-0.035,0.001-0.07,0.008-0.104,0.02
			c-0.104,0.038-0.127,0.132-0.145,0.226c-0.014,0.071-0.023,0.144-0.039,0.215c-0.014,0.066-0.029,0.132-0.045,0.198
			c-0.002,0.015-0.004,0.029-0.006,0.044c-0.013,0.08-0.025,0.159-0.05,0.235c-0.014,0.049-0.02,0.1-0.026,0.149
			c-0.013,0.067-0.021,0.134-0.031,0.201c-0.008,0.039-0.019,0.078-0.025,0.117c-0.016,0.069-0.029,0.138-0.043,0.206
			c-0.012,0.059-0.024,0.117-0.035,0.175c-0.02,0.109-0.037,0.218-0.059,0.328c-0.008,0.042-0.014,0.086-0.033,0.122
			c-0.037,0.068-0.094,0.121-0.178,0.122c-0.193,0.002-0.385,0.002-0.576,0.001c-0.076-0.001-0.133-0.059-0.129-0.134
			c0.002-0.057,0.019-0.113,0.027-0.169c0.002-0.012,0.006-0.024,0.01-0.037c0.019-0.113,0.033-0.227,0.057-0.338
			c0.021-0.087,0.039-0.173,0.054-0.261c0.018-0.106,0.045-0.21,0.065-0.315c0.012-0.05,0.021-0.101,0.027-0.15
			c0.021-0.115,0.043-0.23,0.066-0.346c0.014-0.068,0.028-0.137,0.045-0.205c0.01-0.045,0.02-0.091,0.026-0.138
			c0.013-0.066,0.021-0.134,0.031-0.201c0.01-0.056,0.021-0.111,0.033-0.167c0.016-0.087,0.03-0.175,0.049-0.262
			c0.012-0.06,0.029-0.119,0.041-0.178c0.012-0.05,0.021-0.1,0.031-0.149c0.028-0.166,0.059-0.332,0.09-0.497
			c0.014-0.068,0.033-0.136,0.047-0.204c0.013-0.054,0.023-0.108,0.027-0.163c0.006-0.095,0.06-0.156,0.137-0.198
			c0.021-0.011,0.05-0.011,0.074-0.011c0.185-0.001,0.369,0.007,0.553-0.003c0.097-0.005,0.175,0.101,0.146,0.203
			c-0.023,0.077-0.035,0.158-0.053,0.237c-0.015,0.07-0.033,0.14-0.048,0.211c-0.014,0.062-0.021,0.125-0.03,0.188
			c-0.004,0.021-0.004,0.043-0.013,0.062c-0.041,0.083,0.025,0.197,0.146,0.201c0.051,0.002,0.102,0,0.152,0
			c0.2,0.001,0.401,0.001,0.604,0.006c0.109,0.003,0.219,0.01,0.324,0.027c0.115,0.018,0.229,0.042,0.34,0.08
			c0.141,0.048,0.254,0.135,0.324,0.273c0.033,0.068,0.055,0.138,0.078,0.21c0.037,0.113,0.028,0.228,0.021,0.341
			c-0.006,0.086-0.029,0.171-0.045,0.257c-0.01,0.058-0.021,0.117-0.031,0.175c-0.016,0.078-0.032,0.156-0.049,0.235
			c-0.012,0.056-0.021,0.112-0.029,0.168c-0.012,0.067-0.022,0.134-0.034,0.2c-0.017,0.08-0.031,0.159-0.048,0.238
			c-0.012,0.062-0.024,0.125-0.037,0.188c-0.016,0.079-0.028,0.159-0.047,0.238c-0.017,0.085-0.033,0.17-0.055,0.254
			c-0.007,0.021-0.023,0.04-0.037,0.057c-0.048,0.05-0.104,0.078-0.175,0.077c-0.18-0.001-0.358-0.004-0.539,0.001
			c-0.1,0.003-0.172-0.074-0.151-0.172c0.008-0.052,0.018-0.105,0.026-0.157c0.015-0.066,0.031-0.132,0.045-0.199
			c0.013-0.058,0.021-0.117,0.031-0.175c0.017-0.077,0.033-0.152,0.049-0.229c0.009-0.043,0.017-0.087,0.023-0.131
			c0.012-0.057,0.021-0.112,0.031-0.169c0.012-0.064,0.021-0.129,0.033-0.193c0.012-0.062,0.03-0.124,0.041-0.186
			c0.021-0.137,0.045-0.273,0.055-0.411c0.006-0.083,0-0.173-0.072-0.235c-0.031-0.026-0.068-0.051-0.105-0.064
			c-0.057-0.018-0.114-0.031-0.174-0.034c-0.113-0.005-0.227-0.001-0.34-0.001
			C3440.184-1657.167,3440.184-1657.169,3440.184-1657.17z"/>
	</g>
	<g>
		<g opacity="0.2">
			<path d="M3447.646-1698.906c0.323,0.137,0.795,0.096,1.092,0.241c0.289,0.142,0.481,0.513,0.723,0.706
				c0.918,0.727,2.232,1.024,3.383,1.05c1.248,0.028,2.312-0.425,3.438-0.825c1.276-2.142,0.233-4.551-1.435-6.26
				c-1.631-1.67-5.158-1.926-7.01-0.557c-0.93,0.688-1.725,1.899-1.975,3.022c-0.121,0.542-0.146,1.15,0.287,1.546
				C3446.539-1699.626,3447.164-1699.113,3447.646-1698.906z"/>
			<path d="M3447.674-1698.948c0.238,0.679,0.705,1.284,0.992,1.936c0.18,0.405,0.359,0.841,0.535,1.248
				c0.146,0.336,0.154,0.915,0.479,1.146c0.351,0.247,1.182,0.139,1.394-0.299c0.246-0.514-0.361-1.333-0.438-1.842
				c-0.131-0.858-0.258-2.008-0.961-2.63c-0.356-0.319-0.977-0.55-1.41-0.268c-0.207,0.135-0.514,0.53-0.516,0.786"/>
			<path d="M3446.936-1700.62c-2.02,0.682-5.233,0.537-6.641-1.251c-0.967-1.23-0.055-1.136-1.574-1.535
				c-1.688-0.445-2.287-1.762-2.973-3.167c-1.498-3.074,1.32-6.696,4.152-7.689c1.75-0.613,3.424-1.112,5.244-1.479
				c1.446-0.29,3.114,0.167,4.561,0.22c6.074,0.224,10.861,6.696,10.234,12.646c-0.312,2.936-2.769,3.049-4.896,2.711
				C3452.33-1700.594,3449.621-1701.527,3446.936-1700.62C3446.523-1700.482,3447.203-1700.709,3446.936-1700.62z"/>
			<path opacity="0.2" enable-background="new    " d="M3447.928-1710.605c-2.143,0-4.27,0.86-5.432,1.886
				c-0.428,0.377-1.342,0.646-1.342,1.09c0,0.556,0.832,0.802,1.256,1.292c1.059,1.224,3.375,2.424,5.252,2.424
				c2.551,0,4.801-1.2,5.859-2.424c0.426-0.49,1.256-0.737,1.256-1.292c0-0.442-0.986-0.713-1.414-1.09
				c-1.162-1.026-3.291-1.886-5.432-1.886"/>
			<path d="M3447.928-1710.909c-2.143,0-4.27,0.859-5.432,1.885c-0.428,0.378-1.342,0.648-1.342,1.09
				c0,0.557,0.832,0.802,1.256,1.293c1.059,1.225,3.375,2.422,5.252,2.422c2.551,0,4.801-1.198,5.859-2.422
				c0.426-0.491,1.256-0.736,1.256-1.293c0-0.442-0.986-0.712-1.414-1.09c-1.162-1.025-3.291-1.885-5.432-1.885"/>
			<path d="M3441.154-1707.935c0-0.441,0.914-0.712,1.342-1.09c1.16-1.024,3.289-1.885,5.432-1.885h0.004
				c2.144,0,4.271,0.859,5.432,1.885c0.429,0.378,1.416,0.649,1.416,1.09"/>
			<path d="M3447.928-1705.207c3.029,0,5.365-2.395,6.06-2.728c-1.531-0.654-2.709-1.987-6.06-1.987
				c-3.348,0-4.527,1.333-6.057,1.987C3442.562-1707.601,3444.9-1705.207,3447.928-1705.207z"/>
			<g>
				<g>
					<path id="SVGID_1_" d="M3447.928-1705.207c3.029,0,5.365-2.395,6.06-2.728c-1.531-0.654-2.709-1.987-6.06-1.987
						c-3.348,0-4.527,1.333-6.057,1.987C3442.562-1707.601,3444.9-1705.207,3447.928-1705.207z"/>
				</g>
				<g>
					<g>
						<g>
							<defs>
								<path id="SVGID_12_" d="M3447.928-1705.207c3.029,0,5.365-2.395,6.06-2.728c-1.531-0.654-2.709-1.987-6.06-1.987
									c-3.348,0-4.527,1.333-6.057,1.987C3442.562-1707.601,3444.9-1705.207,3447.928-1705.207z"/>
							</defs>
							<clipPath id="SVGID_13_">
								<use xlink:href="#SVGID_12_"  overflow="visible"/>
							</clipPath>
							<path clip-path="url(#SVGID_13_)" d="M3447.967-1710.267c1.494,0,2.703,1.21,2.703,2.704c0,1.493-1.209,2.705-2.703,2.705
								c-1.492,0-2.703-1.211-2.703-2.705C3445.264-1709.057,3446.475-1710.267,3447.967-1710.267z"/>
						</g>
					</g>
				</g>
				<g>
					<g>
						<g>
							<defs>
								<path id="SVGID_14_" d="M3447.928-1705.207c3.029,0,5.365-2.395,6.06-2.728c-1.531-0.654-2.709-1.987-6.06-1.987
									c-3.348,0-4.527,1.333-6.057,1.987C3442.562-1707.601,3444.9-1705.207,3447.928-1705.207z"/>
							</defs>
							<clipPath id="SVGID_15_">
								<use xlink:href="#SVGID_14_"  overflow="visible"/>
							</clipPath>
							<path clip-path="url(#SVGID_15_)" d="M3447.967-1708.635c0.592,0,1.072,0.479,1.072,1.072c0,0.592-0.48,1.071-1.072,1.071
								s-1.072-0.479-1.072-1.071S3447.375-1708.635,3447.967-1708.635z"/>
						</g>
					</g>
				</g>
				<g>
					<g>
						<g>
							<defs>
								<path id="SVGID_16_" d="M3447.928-1705.207c3.029,0,5.365-2.395,6.06-2.728c-1.531-0.654-2.709-1.987-6.06-1.987
									c-3.348,0-4.527,1.333-6.057,1.987C3442.562-1707.601,3444.9-1705.207,3447.928-1705.207z"/>
							</defs>
							<clipPath id="SVGID_17_">
								<use xlink:href="#SVGID_16_"  overflow="visible"/>
							</clipPath>
							<circle clip-path="url(#SVGID_17_)" cx="3446.514" cy="-1708.789" r="0.412"/>
						</g>
					</g>
				</g>
			</g>
		</g>
		<path fill="#FAB78B" d="M3454.859-1704.664c-1.627-1.67-5.15-1.924-7-0.558c-0.929,0.684-1.722,1.896-1.972,3.02
			c-0.121,0.54-0.146,1.147,0.287,1.543c0.392,0.356,1.013,0.869,1.494,1.075c0.017,0.006,0.031,0.011,0.049,0.018
			c0.246,0.654,0.691,1.243,0.972,1.872c0.18,0.406,0.356,0.841,0.532,1.25c0.148,0.333,0.156,0.911,0.479,1.14
			c0.348,0.247,1.182,0.141,1.391-0.296c0.246-0.515-0.361-1.333-0.438-1.842c-0.029-0.184-0.06-0.383-0.088-0.586
			c0.729,0.29,1.545,0.422,2.291,0.439c1.25,0.027,2.312-0.424,3.438-0.824C3457.566-1700.552,3456.525-1702.957,3454.859-1704.664z
			"/>
		<g>
			<g>
				<g>
					<g>
						<defs>
							<path id="SVGID_18_" d="M3446.959-1701.294c-2.016,0.68-5.229,0.535-6.629-1.252c-0.967-1.228-0.055-1.133-1.572-1.534
								c-1.688-0.442-2.285-1.759-2.969-3.162c-1.496-3.068,1.318-6.685,4.146-7.677c1.746-0.613,3.418-1.11,5.235-1.476
								c1.443-0.29,3.111,0.167,4.556,0.22c6.065,0.223,10.846,6.688,10.217,12.627c-0.31,2.932-2.762,3.045-4.885,2.709
								C3452.348-1701.27,3449.641-1702.2,3446.959-1701.294C3446.549-1701.156,3447.227-1701.384,3446.959-1701.294z"/>
						</defs>
						<clipPath id="SVGID_19_">
							<use xlink:href="#SVGID_18_"  overflow="visible"/>
						</clipPath>
						<path clip-path="url(#SVGID_19_)" fill="#FCCEB2" d="M3446.959-1701.294c-2.016,0.68-5.229,0.535-6.629-1.252
							c-0.967-1.228-0.055-1.133-1.572-1.534c-1.688-0.442-2.285-1.759-2.969-3.162c-1.496-3.068,1.318-6.685,4.146-7.677
							c1.746-0.613,3.418-1.11,5.235-1.476c1.443-0.29,3.111,0.167,4.556,0.22c6.065,0.223,10.846,6.688,10.217,12.627
							c-0.31,2.932-2.762,3.045-4.885,2.709C3452.348-1701.27,3449.641-1702.2,3446.959-1701.294
							C3446.549-1701.156,3447.227-1701.384,3446.959-1701.294z"/>
					</g>
				</g>
			</g>
		</g>
		<path fill-opacity="0" d="M3446.709-1704.588c-0.049,0.135-0.016,0.286,0.084,0.388c0.33,0.348,0.707,0.64,1.111,0.872
			c0.123,0.07,0.279,0.069,0.397-0.008l0.584-0.37c0.242,0.093,0.492,0.162,0.746,0.208l0.312,0.622
			c0.062,0.127,0.19,0.209,0.334,0.215c0.467,0.009,0.94-0.045,1.399-0.169c0.144-0.038,0.246-0.148,0.277-0.287l0.154-0.677
			c0.114-0.053,0.231-0.111,0.346-0.174c0.113-0.065,0.226-0.134,0.332-0.206l0.652,0.22c0.139,0.046,0.287,0.013,0.391-0.084
			c0.349-0.332,0.642-0.708,0.873-1.113c0.07-0.124,0.068-0.278-0.01-0.398l-0.369-0.586c0.095-0.241,0.162-0.491,0.209-0.746
			l0.619-0.309c0.131-0.062,0.213-0.193,0.213-0.335c0.014-0.466-0.041-0.939-0.168-1.403c-0.035-0.138-0.146-0.244-0.285-0.275
			l-0.678-0.153c-0.051-0.117-0.108-0.233-0.172-0.347c-0.064-0.114-0.136-0.225-0.205-0.329l0.219-0.657
			c0.047-0.135,0.012-0.285-0.086-0.388c-0.332-0.346-0.707-0.64-1.111-0.872c-0.121-0.072-0.278-0.068-0.396,0.008l-0.588,0.371
			c-0.24-0.093-0.49-0.163-0.746-0.21l-0.31-0.619c-0.061-0.129-0.19-0.211-0.334-0.215c-0.467-0.011-0.938,0.044-1.401,0.168
			c-0.138,0.036-0.246,0.148-0.273,0.287l-0.154,0.676c-0.117,0.051-0.231,0.11-0.348,0.174s-0.221,0.132-0.33,0.206l-0.656-0.221
			c-0.135-0.045-0.285-0.012-0.387,0.086c-0.35,0.332-0.641,0.707-0.873,1.112c-0.072,0.124-0.068,0.278,0.008,0.398l0.369,0.585
			c-0.092,0.242-0.16,0.491-0.207,0.745l-0.621,0.309c-0.127,0.063-0.211,0.194-0.213,0.337c-0.012,0.467,0.043,0.939,0.166,1.402
			c0.039,0.138,0.148,0.244,0.287,0.276l0.676,0.153c0.053,0.116,0.111,0.232,0.174,0.346c0.066,0.116,0.136,0.224,0.205,0.33
			L3446.709-1704.588z M3448.9-1706.801c-0.088-0.155-0.146-0.316-0.187-0.479c-0.031-0.167-0.045-0.332-0.029-0.498
			c0.027-0.329,0.148-0.646,0.354-0.911c0.137-0.175,0.307-0.327,0.516-0.443c0.154-0.087,0.316-0.146,0.482-0.182
			c0.164-0.035,0.33-0.045,0.494-0.032c0.327,0.027,0.646,0.148,0.909,0.352c0.177,0.136,0.328,0.308,0.443,0.515
			c0.088,0.157,0.147,0.319,0.182,0.481c0.037,0.165,0.048,0.332,0.033,0.498c-0.027,0.328-0.147,0.645-0.353,0.909
			c-0.139,0.176-0.311,0.328-0.518,0.444c-0.154,0.088-0.316,0.147-0.48,0.182c-0.164,0.036-0.33,0.046-0.493,0.033
			c-0.33-0.027-0.65-0.149-0.914-0.354C3449.17-1706.42,3449.018-1706.592,3448.9-1706.801z"/>
		<path fill="#5E5F5E" d="M3446.982-1705.054c-0.05,0.132-0.021,0.285,0.075,0.39c0.324,0.355,0.691,0.655,1.093,0.897
			c0.118,0.075,0.274,0.077,0.395,0.001l0.596-0.354c0.24,0.098,0.488,0.175,0.74,0.229l0.293,0.627
			c0.059,0.129,0.188,0.214,0.33,0.22c0.469,0.023,0.939-0.019,1.408-0.132c0.139-0.034,0.248-0.141,0.281-0.28l0.17-0.673
			c0.118-0.048,0.235-0.104,0.352-0.165c0.115-0.061,0.227-0.126,0.334-0.197l0.652,0.237c0.133,0.047,0.285,0.017,0.389-0.077
			c0.357-0.325,0.658-0.69,0.898-1.09c0.075-0.122,0.077-0.275,0.004-0.398l-0.355-0.594c0.098-0.239,0.174-0.488,0.225-0.741
			l0.629-0.293c0.134-0.06,0.216-0.188,0.224-0.329c0.022-0.467-0.021-0.941-0.134-1.407c-0.032-0.139-0.143-0.25-0.278-0.284
			l-0.675-0.169c-0.047-0.119-0.104-0.235-0.164-0.352c-0.062-0.115-0.129-0.227-0.198-0.334l0.237-0.65
			c0.048-0.134,0.019-0.285-0.077-0.391c-0.322-0.355-0.691-0.657-1.091-0.899c-0.121-0.075-0.276-0.076-0.396-0.003l-0.596,0.356
			c-0.238-0.099-0.488-0.175-0.738-0.228l-0.295-0.628c-0.062-0.13-0.188-0.215-0.33-0.222c-0.467-0.023-0.94,0.02-1.408,0.133
			c-0.137,0.033-0.248,0.142-0.28,0.281l-0.17,0.671c-0.117,0.05-0.236,0.104-0.354,0.166c-0.115,0.062-0.226,0.127-0.334,0.199
			l-0.647-0.237c-0.136-0.048-0.285-0.019-0.394,0.077c-0.354,0.322-0.656,0.691-0.897,1.09c-0.074,0.123-0.074,0.276-0.002,0.398
			l0.354,0.594c-0.098,0.24-0.174,0.488-0.228,0.742l-0.629,0.292c-0.129,0.061-0.213,0.188-0.223,0.331
			c-0.021,0.466,0.021,0.939,0.133,1.406c0.035,0.139,0.146,0.25,0.281,0.284l0.672,0.17c0.052,0.117,0.105,0.235,0.168,0.35
			c0.062,0.117,0.127,0.228,0.195,0.336L3446.982-1705.054z M3449.23-1707.211c-0.084-0.157-0.14-0.32-0.175-0.486
			c-0.028-0.165-0.034-0.332-0.018-0.497c0.034-0.327,0.164-0.643,0.375-0.902c0.143-0.171,0.313-0.319,0.524-0.43
			c0.158-0.083,0.322-0.14,0.486-0.171c0.166-0.031,0.334-0.036,0.498-0.019c0.328,0.035,0.641,0.164,0.898,0.375
			c0.174,0.14,0.319,0.314,0.434,0.524c0.082,0.158,0.137,0.322,0.17,0.487c0.031,0.165,0.037,0.332,0.02,0.496
			c-0.037,0.328-0.166,0.644-0.377,0.902c-0.141,0.171-0.313,0.319-0.522,0.431c-0.156,0.083-0.322,0.138-0.488,0.171
			c-0.164,0.03-0.33,0.037-0.496,0.019c-0.327-0.035-0.643-0.164-0.901-0.375C3449.488-1706.824,3449.34-1707.001,3449.23-1707.211z
			"/>
		<path fill="#5E5F5E" d="M3440.387-1708.623c0.053,0.081,0.146,0.126,0.242,0.115l0.465-0.046c0.057,0.064,0.119,0.126,0.182,0.186
			c0.068,0.058,0.136,0.114,0.203,0.167v0.466c0,0.096,0.051,0.187,0.137,0.231c0.285,0.151,0.588,0.258,0.896,0.321
			c0.094,0.02,0.193-0.014,0.252-0.09l0.295-0.36c0.174,0.008,0.35,0,0.521-0.024l0.327,0.33c0.07,0.069,0.17,0.094,0.263,0.066
			c0.301-0.092,0.59-0.227,0.862-0.405c0.078-0.053,0.123-0.146,0.113-0.241l-0.047-0.465c0.063-0.057,0.127-0.12,0.186-0.185
			c0.062-0.066,0.113-0.132,0.166-0.202l0.47,0.002c0.094,0,0.184-0.053,0.229-0.137c0.149-0.286,0.258-0.587,0.32-0.896
			c0.02-0.093-0.017-0.191-0.091-0.252l-0.36-0.297c0.01-0.174,0-0.348-0.023-0.521l0.33-0.329c0.068-0.068,0.095-0.168,0.066-0.259
			c-0.093-0.301-0.228-0.592-0.406-0.861c-0.051-0.08-0.146-0.126-0.24-0.116l-0.465,0.047c-0.057-0.064-0.119-0.126-0.187-0.186
			c-0.062-0.06-0.133-0.114-0.2-0.167l0.004-0.466c0-0.096-0.056-0.186-0.142-0.229c-0.283-0.153-0.584-0.26-0.895-0.323
			c-0.094-0.019-0.191,0.015-0.252,0.09l-0.297,0.361c-0.173-0.008-0.351,0-0.521,0.024l-0.326-0.331
			c-0.07-0.069-0.17-0.093-0.264-0.066c-0.301,0.092-0.59,0.227-0.861,0.405c-0.078,0.052-0.123,0.147-0.113,0.242l0.045,0.465
			c-0.062,0.058-0.125,0.12-0.184,0.185c-0.059,0.065-0.115,0.132-0.166,0.203l-0.469-0.001c-0.094,0-0.185,0.052-0.229,0.137
			c-0.153,0.286-0.26,0.587-0.323,0.896c-0.019,0.094,0.018,0.19,0.092,0.251l0.358,0.295c-0.006,0.174,0,0.349,0.025,0.521
			l-0.332,0.329c-0.066,0.067-0.093,0.168-0.064,0.26C3440.072-1709.182,3440.209-1708.892,3440.387-1708.623z M3442.346-1709.93
			c-0.051-0.089-0.09-0.181-0.113-0.277c-0.045-0.192-0.039-0.396,0.029-0.585c0.045-0.125,0.111-0.244,0.209-0.351
			c0.072-0.079,0.152-0.143,0.238-0.195c0.088-0.05,0.182-0.087,0.277-0.11c0.193-0.047,0.396-0.038,0.586,0.028
			c0.125,0.045,0.244,0.113,0.35,0.208c0.078,0.073,0.144,0.153,0.195,0.241c0.051,0.087,0.088,0.18,0.111,0.276
			c0.047,0.192,0.035,0.396-0.029,0.585c-0.045,0.125-0.111,0.244-0.211,0.35c-0.072,0.079-0.15,0.144-0.238,0.195
			c-0.086,0.051-0.178,0.089-0.274,0.113c-0.193,0.047-0.396,0.037-0.586-0.03c-0.125-0.043-0.242-0.113-0.351-0.209
			C3442.459-1709.764,3442.396-1709.845,3442.346-1709.93z"/>
	</g>
	<g>
		<path fill="#D5D3C7" d="M3493.406-1715.3c-2.432,0-2.326-2.293-4.402-6.219c-0.412-0.004-0.83-0.004-1.258-0.004l-1.822-1.839
			v-3.489l1.822-1.84c11.035,0,17.637-1.038,17.637-4.714h1.574v16.597h-1.574c0-2.886-4.066-4.146-11.158-4.554
			c0.392,0.657,1.729,2.911-0.129,2.753C3494.096-1716.125,3495.637-1715.74,3493.406-1715.3z"/>
		<rect x="3505.383" y="-1733.406" fill="#F4F2DC" width="1.574" height="16.597"/>
		<polygon fill="#B6B1AB" points="3494.225,-1720.572 3490,-1719.421 3489.004,-1721.519 3494.225,-1721.364 		"/>
		<path fill="#506BA1" d="M3494.234-1721.364c0.391,0.657,3.465,2.915-0.129,2.754"/>
		<g>
			<path fill="#666666" d="M3506.957-1733.406v16.597h-1.574c0-2.886-4.065-4.146-11.158-4.554c0.373,0.627,2.865,2.768,0.271,2.768
				c-0.123,0-0.256-0.005-0.4-0.015c0,2.485,1.541,2.87-0.688,3.311c-2.432,0-2.326-2.293-4.402-6.22
				c-0.412-0.004-0.83-0.004-1.258-0.004l-1.822-1.839v-3.49l1.822-1.84c2.371,0,4.537-0.047,6.479-0.16
				c7.09-0.408,11.157-1.666,11.157-4.554L3506.957-1733.406 M3506.957-1733.861h-1.574c-0.25,0-0.453,0.203-0.453,0.455
				c0,2.375-3.409,3.679-10.729,4.1c-1.842,0.107-3.951,0.159-6.453,0.159c-0.121,0-0.235,0.049-0.321,0.135l-1.822,1.84
				c-0.084,0.085-0.133,0.2-0.133,0.32v3.49c0,0.12,0.049,0.235,0.133,0.32l1.822,1.84c0.086,0.086,0.2,0.134,0.321,0.134
				c0.002,0,0.004,0,0.007,0c0.33,0,0.653,0,0.977,0.002c0.549,1.064,0.93,1.989,1.27,2.812c0.847,2.053,1.406,3.409,3.408,3.409
				c0.029,0,0.06-0.003,0.088-0.008c0.758-0.15,1.24-0.312,1.463-0.694c0.215-0.371,0.086-0.752-0.062-1.194
				c-0.117-0.346-0.269-0.794-0.322-1.399c0.361-0.003,1.187-0.047,1.461-0.648c0.295-0.639-0.248-1.396-0.797-2.053
				c6.604,0.483,9.692,1.771,9.692,4.033c0,0.251,0.203,0.455,0.455,0.455h1.572c0.25,0,0.455-0.204,0.455-0.455v-16.597
				C3507.41-1733.658,3507.207-1733.861,3506.957-1733.861L3506.957-1733.861z"/>
		</g>
		<path fill="#506BA1" d="M3494.225-1721.364l-5.221-0.155c-0.412-0.004-0.83-0.004-1.258-0.004l-1.822-1.839v-3.489l1.822-1.84
			c2.371,0,4.537-0.047,6.479-0.16"/>
	</g>
	<g>
		<g>
			<g>
				<defs>
					<path id="SVGID_20_" d="M3569.834-1654.398c0,6.852-5.549,12.4-12.4,12.4c-6.851,0-12.399-5.548-12.399-12.4
						c0-6.849,5.549-12.4,12.399-12.4C3564.285-1666.798,3569.834-1661.247,3569.834-1654.398z"/>
				</defs>
				<clipPath id="SVGID_21_">
					<use xlink:href="#SVGID_20_"  overflow="visible"/>
				</clipPath>
				<polygon clip-path="url(#SVGID_21_)" fill="#000089" points="3569.363,-1651.005 3570.439,-1649.428 3568.986,-1649.887 
					3566.846,-1646.325 3566.936,-1639.799 3560.758,-1642.445 3557.434,-1647.092 3553.982,-1642.482 3543.221,-1641.423 
					3548.021,-1646.325 3551.479,-1650.668 3545.879,-1649.887 3539.26,-1654.153 3545.504,-1651.005 3552.309,-1653.639 
					3545.5,-1657.772 3543.387,-1658.261 3545.877,-1658.9 3549.182,-1659.636 3548.016,-1662.462 3547.637,-1666.265 
					3553.982,-1666.311 3557.059,-1660.261 3560.758,-1666.348 3573.607,-1666.798 3566.85,-1662.462 3566.271,-1659.721 
					3568.99,-1658.9 3571.23,-1659.179 3569.365,-1657.772 3566.312,-1654.928 				"/>
			</g>
		</g>
		<g>
			<g>
				<defs>
					<path id="SVGID_22_" d="M3569.834-1654.398c0,6.852-5.549,12.4-12.4,12.4c-6.851,0-12.399-5.548-12.399-12.4
						c0-6.849,5.549-12.4,12.399-12.4C3564.285-1666.798,3569.834-1661.247,3569.834-1654.398z"/>
				</defs>
				<clipPath id="SVGID_23_">
					<use xlink:href="#SVGID_22_"  overflow="visible"/>
				</clipPath>
				<polygon clip-path="url(#SVGID_23_)" fill="#FFFFFF" points="3546.705,-1648.176 3547.539,-1646.92 3541.748,-1643.279 
					3542.941,-1643.279 3576.105,-1663.167 3576.105,-1665.51 3568.164,-1660.615 3567.33,-1661.87 3571.926,-1665.51 
					3538.76,-1645.613 				"/>
			</g>
		</g>
		<g>
			<g>
				<defs>
					<path id="SVGID_24_" d="M3569.834-1654.398c0,6.852-5.549,12.4-12.4,12.4c-6.851,0-12.399-5.548-12.399-12.4
						c0-6.849,5.549-12.4,12.399-12.4C3564.285-1666.798,3569.834-1661.247,3569.834-1654.398z"/>
				</defs>
				<clipPath id="SVGID_25_">
					<use xlink:href="#SVGID_24_"  overflow="visible"/>
				</clipPath>
				<polygon clip-path="url(#SVGID_25_)" fill="#FFFFFF" points="3576.105,-1643.279 3571.926,-1643.279 3538.76,-1663.167 
					3538.76,-1663.833 3546.143,-1659.532 3546.82,-1660.811 3542.941,-1665.51 3576.105,-1645.613 3568.723,-1649.257 
					3568.043,-1647.974 				"/>
			</g>
		</g>
		<g>
			<g>
				<defs>
					<path id="SVGID_26_" d="M3569.834-1654.398c0,6.852-5.549,12.4-12.4,12.4c-6.851,0-12.399-5.548-12.399-12.4
						c0-6.849,5.549-12.4,12.399-12.4C3564.285-1666.798,3569.834-1661.247,3569.834-1654.398z"/>
				</defs>
				<clipPath id="SVGID_27_">
					<use xlink:href="#SVGID_26_"  overflow="visible"/>
				</clipPath>
				<polygon clip-path="url(#SVGID_27_)" fill="#D30214" points="3556.609,-1653.438 3538.76,-1663.833 3538.76,-1665.51 
					3556.609,-1655.11 				"/>
			</g>
		</g>
		<g>
			<g>
				<defs>
					<path id="SVGID_28_" d="M3569.834-1654.398c0,6.852-5.549,12.4-12.4,12.4c-6.851,0-12.399-5.548-12.399-12.4
						c0-6.849,5.549-12.4,12.399-12.4C3564.285-1666.798,3569.834-1661.247,3569.834-1654.398z"/>
				</defs>
				<clipPath id="SVGID_29_">
					<use xlink:href="#SVGID_28_"  overflow="visible"/>
				</clipPath>
				<polygon clip-path="url(#SVGID_29_)" fill="#D30214" points="3558.256,-1655.35 3576.105,-1644.953 3576.105,-1643.279 
					3558.256,-1653.678 				"/>
			</g>
		</g>
		<g>
			<g>
				<defs>
					<path id="SVGID_30_" d="M3569.834-1654.398c0,6.852-5.549,12.4-12.4,12.4c-6.851,0-12.399-5.548-12.399-12.4
						c0-6.849,5.549-12.4,12.399-12.4C3564.285-1666.798,3569.834-1661.247,3569.834-1654.398z"/>
				</defs>
				<clipPath id="SVGID_31_">
					<use xlink:href="#SVGID_30_"  overflow="visible"/>
				</clipPath>
				<polygon clip-path="url(#SVGID_31_)" fill="#D30214" points="3553.904,-1650.922 3551.16,-1650.922 3538.76,-1643.279 
					3541.748,-1643.279 				"/>
			</g>
		</g>
		<g>
			<g>
				<defs>
					<path id="SVGID_32_" d="M3569.834-1654.398c0,6.852-5.549,12.4-12.4,12.4c-6.851,0-12.399-5.548-12.399-12.4
						c0-6.849,5.549-12.4,12.399-12.4C3564.285-1666.798,3569.834-1661.247,3569.834-1654.398z"/>
				</defs>
				<clipPath id="SVGID_33_">
					<use xlink:href="#SVGID_32_"  overflow="visible"/>
				</clipPath>
				<polygon clip-path="url(#SVGID_33_)" fill="#D30214" points="3560.963,-1657.866 3563.705,-1657.866 3576.105,-1665.51 
					3573.117,-1665.51 				"/>
			</g>
		</g>
		<g>
			<g>
				<defs>
					<path id="SVGID_34_" d="M3569.834-1654.398c0,6.852-5.549,12.4-12.4,12.4c-6.851,0-12.399-5.548-12.399-12.4
						c0-6.849,5.549-12.4,12.399-12.4C3564.285-1666.798,3569.834-1661.247,3569.834-1654.398z"/>
				</defs>
				<clipPath id="SVGID_35_">
					<use xlink:href="#SVGID_34_"  overflow="visible"/>
				</clipPath>
				<polygon clip-path="url(#SVGID_35_)" fill="#FFFFFF" points="3553.982,-1616.864 3553.982,-1667.915 3555.014,-1666.56 
					3557.848,-1662.911 3559.709,-1666.589 3560.758,-1667.915 3560.758,-1616.864 3559.709,-1642.207 3556.777,-1645.873 
					3555.014,-1642.234 				"/>
			</g>
		</g>
		<g>
			<g>
				<defs>
					<path id="SVGID_36_" d="M3569.834-1654.398c0,6.852-5.549,12.4-12.4,12.4c-6.851,0-12.399-5.548-12.399-12.4
						c0-6.849,5.549-12.4,12.399-12.4C3564.285-1666.798,3569.834-1661.247,3569.834-1654.398z"/>
				</defs>
				<clipPath id="SVGID_37_">
					<use xlink:href="#SVGID_36_"  overflow="visible"/>
				</clipPath>
				<polygon clip-path="url(#SVGID_37_)" fill="#FFFFFF" points="3539.197,-1657.772 3575.668,-1657.772 3575.668,-1656.401 
					3573.336,-1653.887 3575.668,-1652.393 3575.668,-1651.005 3539.197,-1651.005 3539.197,-1652.393 3541.533,-1654.958 
					3539.197,-1656.398 				"/>
			</g>
		</g>
		<g>
			<g>
				<defs>
					<path id="SVGID_38_" d="M3569.834-1654.398c0,6.852-5.549,12.4-12.4,12.4c-6.851,0-12.399-5.548-12.399-12.4
						c0-6.849,5.549-12.4,12.399-12.4C3564.285-1666.798,3569.834-1661.247,3569.834-1654.398z"/>
				</defs>
				<clipPath id="SVGID_39_">
					<use xlink:href="#SVGID_38_"  overflow="visible"/>
				</clipPath>
				<rect x="3536.092" y="-1656.742" clip-path="url(#SVGID_39_)" fill="#D30214" width="42.685" height="4.693"/>
			</g>
		</g>
		<g>
			<g>
				<defs>
					<path id="SVGID_40_" d="M3569.834-1654.398c0,6.852-5.549,12.4-12.4,12.4c-6.851,0-12.399-5.548-12.399-12.4
						c0-6.849,5.549-12.4,12.399-12.4C3564.285-1666.798,3569.834-1661.247,3569.834-1654.398z"/>
				</defs>
				<clipPath id="SVGID_41_">
					<use xlink:href="#SVGID_40_"  overflow="visible"/>
				</clipPath>
				<rect x="3555.014" y="-1667.098" clip-path="url(#SVGID_41_)" fill="#D30214" width="4.695" height="25.409"/>
			</g>
		</g>
	</g>
	<g>
		<path fill="#E9CA33" d="M3547.572-1692.361c-0.408-0.115-0.801-0.226-1.195-0.336c-0.639-0.178-1.273-0.354-1.91-0.532
			c-0.438-0.123-0.879-0.247-1.318-0.37c-0.592-0.166-1.182-0.332-1.772-0.498c-0.522-0.146-1.045-0.292-1.565-0.438
			c-0.021-0.006-0.041-0.008-0.058-0.019c-0.016-0.01-0.032-0.026-0.037-0.043c-0.02-0.097-0.032-0.195-0.039-0.294
			c-0.018-0.258-0.037-0.515-0.067-0.771c-0.002-0.014-0.002-0.027-0.004-0.04c-0.019-0.224-0.027-0.449-0.056-0.672
			c-0.028-0.243-0.03-0.488-0.063-0.731c-0.023-0.183-0.031-0.369-0.047-0.554c-0.009-0.079-0.017-0.158-0.021-0.237
			c-0.002-0.02-0.006-0.04-0.008-0.059c-0.021-0.237-0.035-0.475-0.057-0.712c-0.021-0.23-0.041-0.46-0.062-0.691
			c-0.002-0.02-0.004-0.04-0.006-0.059c-0.019-0.211-0.023-0.423-0.051-0.633c-0.029-0.224-0.023-0.449-0.062-0.671
			c-0.004-0.013-0.004-0.026-0.004-0.04c-0.02-0.244-0.035-0.488-0.057-0.731c-0.019-0.204-0.039-0.408-0.06-0.612
			c-0.002-0.02-0.004-0.039-0.006-0.059c-0.019-0.217-0.027-0.436-0.053-0.653c-0.027-0.23-0.033-0.462-0.062-0.691
			c-0.026-0.209-0.032-0.421-0.053-0.633c-0.008-0.099-0.021-0.197-0.027-0.296c-0.02-0.244-0.034-0.488-0.057-0.731
			c-0.019-0.198-0.039-0.395-0.062-0.592c-0.004-0.04-0.006-0.079-0.008-0.118c-0.006-0.125-0.01-0.252-0.033-0.375
			c-0.004-0.021-0.004-0.04-0.006-0.061c-0.016-0.217-0.022-0.437-0.051-0.652c-0.031-0.223-0.023-0.45-0.064-0.671
			c-0.004-0.026-0.004-0.052-0.006-0.079c-0.012-0.258-0.039-0.514-0.065-0.771c-0.004-0.026-0.007-0.053-0.009-0.08
			c-0.018-0.224-0.024-0.449-0.055-0.672c-0.029-0.224-0.021-0.45-0.062-0.672c-0.007-0.038-0.007-0.079-0.009-0.118
			c-0.01-0.112-0.02-0.224-0.028-0.336c-0.021-0.231-0.037-0.462-0.056-0.693c-0.004-0.046-0.008-0.092-0.012-0.138
			c-0.006-0.065-0.016-0.131-0.021-0.197c-0.019-0.224-0.029-0.449-0.056-0.672c-0.018-0.158-0.024-0.316-0.037-0.474
			c-0.016-0.191-0.039-0.382-0.059-0.572c-0.006-0.059-0.008-0.119-0.012-0.178c-0.008-0.086-0.021-0.171-0.025-0.257
			c-0.008-0.119-0.014-0.238-0.018-0.356c-0.002-0.026,0.022-0.053,0.045-0.056c0.02-0.002,0.041-0.004,0.061-0.004
			c0.06-0.001,0.119,0,0.178,0c6.17,0,12.338,0,18.509,0c0.071,0,0.146,0.001,0.219,0.003c0.033,0.001,0.06,0.03,0.06,0.065
			c0,0.013,0,0.026,0,0.04c-0.021,0.224-0.043,0.447-0.064,0.671c-0.002,0.02-0.004,0.04-0.006,0.06
			c-0.017,0.218-0.031,0.435-0.051,0.653c-0.021,0.237-0.045,0.474-0.064,0.711c-0.02,0.217-0.035,0.435-0.053,0.653
			c-0.012,0.125-0.023,0.25-0.035,0.375c-0.027,0.263-0.041,0.527-0.07,0.79c-0.018,0.151-0.021,0.303-0.039,0.455
			c-0.022,0.203-0.031,0.408-0.053,0.612c-0.025,0.257-0.035,0.514-0.068,0.771c-0.008,0.065-0.004,0.132-0.012,0.198
			c-0.031,0.256-0.039,0.514-0.07,0.771c-0.024,0.204-0.033,0.409-0.051,0.613c-0.02,0.23-0.041,0.461-0.062,0.691
			c-0.004,0.046-0.008,0.092-0.012,0.138c-0.01,0.105-0.018,0.211-0.029,0.316c-0.014,0.151-0.021,0.303-0.039,0.455
			c-0.026,0.25-0.032,0.502-0.061,0.751c-0.023,0.21-0.021,0.423-0.061,0.631c-0.009,0.045-0.004,0.092-0.009,0.139
			c-0.012,0.118-0.021,0.237-0.032,0.355c-0.002,0.02-0.004,0.04-0.004,0.059c-0.019,0.225-0.031,0.45-0.056,0.673
			c-0.018,0.158-0.02,0.317-0.041,0.474c-0.028,0.21-0.032,0.422-0.059,0.632c-0.027,0.223-0.035,0.449-0.054,0.673
			c-0.006,0.079-0.02,0.157-0.026,0.236c-0.019,0.224-0.027,0.449-0.056,0.672c-0.028,0.229-0.024,0.462-0.062,0.691
			c-0.004,0.019-0.004,0.04-0.006,0.059c-0.017,0.211-0.021,0.424-0.052,0.633c-0.03,0.223-0.021,0.45-0.063,0.671
			c-0.004,0.026-0.002,0.053-0.004,0.08c-0.008,0.146-0.022,0.29-0.037,0.435c-0.017,0.145-0.017,0.291-0.039,0.435
			c-0.01,0.065-0.004,0.132-0.012,0.198c-0.021,0.217-0.041,0.435-0.062,0.652c0,0.006-0.002,0.013-0.002,0.02
			c-0.002,0.225-0.041,0.447-0.055,0.672c-0.008,0.152-0.024,0.303-0.039,0.455c-0.004,0.045-0.035,0.07-0.074,0.083
			c-0.045,0.014-0.088,0.026-0.133,0.039c-0.992,0.278-1.986,0.556-2.979,0.834c-0.795,0.222-1.592,0.443-2.387,0.666
			C3549.107-1692.792,3548.344-1692.578,3547.572-1692.361z M3547.58-1703.176c0,2.938,0,5.877,0,8.816c0,0.066,0,0.132,0,0.199
			c0.002,0.019,0.002,0.042,0.012,0.058c0.008,0.015,0.027,0.031,0.043,0.035c0.025,0.005,0.055,0.006,0.078-0.003
			c0.154-0.059,0.318-0.087,0.477-0.132c0.119-0.034,0.24-0.065,0.361-0.097c0.217-0.057,0.435-0.115,0.648-0.177
			c0.201-0.059,0.41-0.096,0.606-0.172c0.24-0.045,0.472-0.131,0.707-0.184c0.129-0.028,0.254-0.068,0.384-0.102
			c0.217-0.057,0.432-0.121,0.647-0.176c0.133-0.034,0.267-0.075,0.399-0.105c0.142-0.033,0.279-0.072,0.418-0.115
			c0.164-0.051,0.332-0.088,0.496-0.137c0.113-0.034,0.228-0.07,0.343-0.094c0.116-0.024,0.225-0.08,0.344-0.093
			c0.053-0.005,0.104-0.025,0.152-0.04c0.043-0.012,0.065-0.043,0.073-0.085c0.004-0.013,0.004-0.026,0.004-0.04
			c0.004-0.125-0.01-0.252,0.037-0.373c0.009-0.018,0.002-0.04,0.004-0.059c0.002-0.138-0.014-0.278,0.037-0.412
			c0-0.073,0-0.146,0.004-0.219c0-0.053-0.008-0.109,0.011-0.157c0.03-0.09,0.024-0.182,0.028-0.274
			c0.002-0.046-0.002-0.095,0.015-0.137c0.024-0.071,0.022-0.143,0.024-0.215c0.002-0.066-0.01-0.137,0.01-0.197
			c0.033-0.111,0.027-0.222,0.031-0.334c0-0.053-0.006-0.109,0.01-0.157c0.029-0.084,0.027-0.169,0.029-0.254
			c0.002-0.06-0.008-0.124,0.01-0.178c0.033-0.097,0.027-0.196,0.029-0.294c0.002-0.06-0.008-0.124,0.01-0.178
			c0.033-0.097,0.029-0.195,0.031-0.294c0-0.053-0.004-0.109,0.012-0.157c0.027-0.078,0.025-0.156,0.027-0.235
			c0.002-0.066-0.008-0.136,0.012-0.197c0.025-0.085,0.025-0.169,0.027-0.255c0.002-0.059-0.008-0.123,0.01-0.177
			c0.033-0.097,0.027-0.195,0.031-0.294c0-0.06-0.01-0.124,0.008-0.178c0.035-0.104,0.027-0.208,0.031-0.314
			c0.002-0.046-0.004-0.096,0.012-0.137c0.031-0.084,0.025-0.169,0.027-0.255c0.002-0.06-0.006-0.123,0.012-0.177
			c0.031-0.091,0.025-0.182,0.029-0.274c0-0.053-0.008-0.11,0.008-0.157c0.035-0.098,0.027-0.196,0.031-0.295
			c0.002-0.046-0.008-0.096,0.008-0.138c0.039-0.103,0.029-0.208,0.031-0.312c0.002-0.061-0.004-0.123,0.014-0.177
			c0.027-0.085,0.025-0.169,0.025-0.254c0.002-0.06-0.006-0.124,0.012-0.178c0.031-0.091,0.027-0.182,0.029-0.274
			c0.002-0.053-0.008-0.11,0.01-0.158c0.033-0.097,0.027-0.195,0.029-0.294c0.002-0.066,0-0.131,0.023-0.196
			c0.014-0.037,0.014-0.078,0.016-0.117c0.002-0.073,0-0.146,0.002-0.218c0-0.04-0.006-0.083,0.006-0.118
			c0.041-0.109,0.029-0.221,0.033-0.333c0.002-0.046,0.002-0.094,0.016-0.137c0.023-0.064,0.023-0.129,0.023-0.195
			c0.002-0.06-0.008-0.124,0.01-0.178c0.033-0.097,0.029-0.195,0.031-0.294c0-0.06-0.01-0.124,0.008-0.177
			c0.035-0.104,0.029-0.209,0.031-0.314c0.002-0.046-0.004-0.096,0.012-0.137c0.031-0.084,0.025-0.169,0.027-0.255
			c0.002-0.059-0.008-0.123,0.012-0.177c0.029-0.091,0.027-0.182,0.029-0.274c0-0.066-0.01-0.137,0.01-0.197
			c0.029-0.091,0.027-0.182,0.029-0.274c0-0.04-0.006-0.083,0.008-0.118c0.041-0.109,0.029-0.222,0.031-0.333
			c0.002-0.053-0.004-0.109,0.012-0.158c0.029-0.084,0.027-0.168,0.029-0.254c0-0.06-0.008-0.123,0.01-0.177
			c0.031-0.091,0.027-0.182,0.029-0.274c0.002-0.066-0.01-0.137,0.01-0.197c0.033-0.104,0.027-0.209,0.031-0.313
			c0.002-0.059-0.006-0.122,0.012-0.177c0.025-0.078,0.025-0.156,0.027-0.235c0-0.059-0.008-0.12,0.016-0.177
			c0.025-0.063,0.023-0.129,0.023-0.196c0.002-0.066-0.012-0.136,0.008-0.198c0.037-0.124,0.029-0.248,0.033-0.373
			c0-0.046-0.002-0.095,0.014-0.137c0.027-0.078,0.023-0.156,0.025-0.235c0.002-0.086-0.006-0.172,0.027-0.255
			c0.014-0.029,0.01-0.065,0.012-0.098c0.002-0.08,0.002-0.159,0-0.238c-0.002-0.083-0.025-0.106-0.107-0.109
			c-0.039-0.001-0.078-0.001-0.117-0.001c-2.391,0-4.778,0-7.168,0c-0.047,0-0.094,0-0.141,0.002
			c-0.064,0.002-0.09,0.03-0.092,0.101c-0.002,0.066-0.002,0.132-0.002,0.199C3547.58-1709.053,3547.58-1706.115,3547.58-1703.176z
			 M3546.834-1703.271L3546.834-1703.271c0-2.138,0-4.275,0-6.412c0-0.06,0-0.119,0-0.179c0-0.02-0.004-0.04-0.004-0.059
			c-0.004-0.022-0.031-0.052-0.051-0.053c-0.062-0.003-0.119-0.005-0.18-0.005c-0.523,0-1.045-0.001-1.568,0
			c-0.32,0.001-0.283-0.038-0.283,0.287c-0.002,3.355,0,6.71,0,10.065c0,0.065,0,0.132-0.002,0.198c0,0.02-0.004,0.04-0.012,0.057
			c-0.006,0.01-0.021,0.023-0.029,0.022c-0.033-0.002-0.064-0.007-0.096-0.015c-0.537-0.146-1.072-0.292-1.607-0.438
			c-0.58-0.158-1.158-0.316-1.74-0.474c-0.037-0.01-0.075-0.018-0.114-0.025c-0.037-0.006-0.07,0.017-0.07,0.049
			c-0.004,0.053-0.006,0.106-0.006,0.159c0,0.324,0,0.647,0,0.973c0,0.251,0,0.503,0,0.754c0,0.053,0,0.106,0.002,0.159
			c0.002,0.047,0.022,0.077,0.062,0.089c0.051,0.016,0.103,0.03,0.152,0.044c0.18,0.049,0.357,0.097,0.537,0.146
			c0.49,0.135,0.98,0.27,1.471,0.404c0.67,0.182,1.34,0.363,2.008,0.545c0.466,0.126,0.933,0.253,1.396,0.38
			c0.031,0.009,0.064,0.015,0.096,0.018c0.01,0.001,0.027-0.013,0.027-0.021c0.006-0.072,0.012-0.145,0.012-0.217
			C3546.834-1698.97,3546.834-1701.121,3546.834-1703.271z"/>
		<path fill="#060505" d="M3549.148-1715.634c-0.496,0-0.992,0-1.488,0c-0.047,0-0.094-0.001-0.139-0.003
			c-0.027,0-0.054-0.024-0.054-0.048c-0.002-0.04-0.004-0.079-0.004-0.119c0-0.238,0-0.476,0.002-0.714
			c0-0.038,0.023-0.059,0.062-0.061c0.021-0.001,0.041-0.002,0.061-0.002c0.045,0,0.092,0,0.139,0c0.654,0,1.312,0,1.966,0
			c0.053,0,0.104-0.003,0.157-0.007c0.011,0,0.027-0.017,0.027-0.026c0.002-0.112,0.004-0.225,0.002-0.337
			c-0.002-0.017-0.014-0.039-0.037-0.041c-0.045-0.004-0.092-0.008-0.137-0.008c-0.49,0-0.98,0-1.471,0c-0.211,0-0.424,0-0.635,0
			c-0.025,0-0.054-0.002-0.078-0.004c-0.029-0.002-0.053-0.022-0.055-0.047c-0.002-0.026-0.002-0.053-0.002-0.08
			c0-0.642,0-1.283,0-1.925c0-0.033-0.002-0.067,0.006-0.099c0.004-0.015,0.021-0.035,0.037-0.039
			c0.031-0.007,0.063-0.007,0.098-0.007c1.025,0,2.053,0,3.078,0c0.02,0,0.039,0,0.059,0c0.062,0.002,0.082,0.022,0.082,0.084
			c0.002,0.258,0.002,0.517,0.002,0.774c0,0.007-0.002,0.013-0.002,0.02c-0.002,0.039-0.024,0.064-0.059,0.065
			c-0.062,0.001-0.119,0.002-0.18,0.002c-0.654,0-1.31,0-1.966,0c-0.053,0-0.104,0.002-0.157,0.003
			c-0.023,0-0.043,0.018-0.043,0.033c-0.004,0.112-0.002,0.225-0.002,0.337c0,0.01,0.03,0.033,0.045,0.033
			c0.059,0.002,0.118,0.004,0.178,0.004c0.647,0,1.297,0,1.945,0c0.059,0,0.118,0.001,0.178,0.003
			c0.035,0.001,0.059,0.028,0.061,0.064c0.002,0.04,0.002,0.08,0.002,0.119c0,0.615,0,1.231,0,1.846c0,0.033,0,0.066,0,0.099
			c-0.002,0.049-0.027,0.077-0.07,0.077c-0.053,0.001-0.104,0-0.157,0C3550.115-1715.634,3549.631-1715.634,3549.148-1715.634z"/>
		<path fill="#050505" d="M3544.441-1715.648c-0.007-0.025-0.013-0.051-0.015-0.077c-0.01-0.356-0.004-0.73,0.015-0.831
			c0-0.006,0.006-0.01,0.016-0.022c0.061-0.001,0.127-0.003,0.193-0.003c0.402,0,0.807,0,1.209,0c0.033,0,0.065-0.002,0.1-0.004
			c0.012,0,0.035-0.028,0.035-0.042c0.002-0.06,0.004-0.119,0.004-0.179c0-0.734,0-1.469,0-2.204c0-0.052,0.004-0.105,0.008-0.158
			c0-0.01,0.017-0.021,0.027-0.027c0.012-0.005,0.025-0.007,0.039-0.007c0.264,0,0.529,0,0.793,0c0.059,0,0.076,0.022,0.078,0.088
			c0.002,0.033,0,0.066,0,0.099c0,1.064,0,2.131,0,3.196c0,0.195,0.016,0.185-0.18,0.185c-0.722,0-1.441,0-2.162,0
			C3544.549-1715.634,3544.496-1715.627,3544.441-1715.648z"/>
		<path fill="#FFDE26" d="M3547.58-1703.176c0-2.939,0-5.877,0-8.816c0-0.066,0-0.133,0-0.199c0.002-0.071,0.027-0.098,0.094-0.101
			c0.047-0.001,0.092-0.001,0.139-0.001c2.392,0,4.779,0,7.168,0c0.041,0,0.08,0,0.119,0c0.082,0.003,0.105,0.027,0.107,0.109
			c0,0.08,0,0.159-0.002,0.238c0,0.033,0.002,0.068-0.01,0.098c-0.033,0.083-0.027,0.169-0.029,0.255
			c0,0.079,0.004,0.157-0.025,0.235c-0.014,0.042-0.012,0.091-0.012,0.137c-0.004,0.125,0.004,0.25-0.033,0.374
			c-0.02,0.061-0.008,0.131-0.008,0.197c-0.002,0.066,0.002,0.132-0.023,0.196c-0.022,0.056-0.016,0.117-0.016,0.177
			c-0.002,0.079-0.002,0.157-0.027,0.235c-0.018,0.055-0.012,0.117-0.014,0.177c-0.004,0.105,0.004,0.209-0.029,0.314
			c-0.02,0.061-0.008,0.131-0.01,0.197c-0.002,0.092,0,0.184-0.029,0.274c-0.02,0.054-0.01,0.118-0.012,0.177
			c-0.002,0.086,0.002,0.17-0.027,0.255c-0.018,0.048-0.01,0.104-0.012,0.157c-0.004,0.112,0.01,0.224-0.031,0.334
			c-0.014,0.035-0.008,0.078-0.008,0.118c-0.002,0.092-0.002,0.183-0.029,0.274c-0.02,0.061-0.01,0.131-0.012,0.197
			c-0.002,0.092,0.002,0.183-0.027,0.274c-0.02,0.054-0.01,0.118-0.012,0.177c-0.002,0.086,0.002,0.171-0.027,0.255
			c-0.016,0.042-0.012,0.091-0.012,0.137c-0.002,0.105,0.004,0.21-0.031,0.314c-0.018,0.054-0.008,0.118-0.01,0.178
			c-0.002,0.099,0.004,0.197-0.029,0.294c-0.018,0.055-0.008,0.118-0.01,0.178c-0.002,0.066-0.002,0.131-0.023,0.195
			c-0.014,0.043-0.014,0.091-0.016,0.137c-0.004,0.112,0.008,0.225-0.033,0.334c-0.014,0.035-0.006,0.079-0.008,0.118
			c0,0.073,0.002,0.146,0,0.218c-0.002,0.039-0.004,0.081-0.016,0.117c-0.023,0.064-0.023,0.13-0.023,0.196
			c-0.002,0.099,0.004,0.197-0.029,0.294c-0.018,0.048-0.01,0.105-0.01,0.157c-0.004,0.093,0.002,0.184-0.029,0.275
			c-0.02,0.054-0.01,0.118-0.012,0.177c-0.002,0.086,0,0.17-0.027,0.255c-0.018,0.055-0.01,0.118-0.012,0.177
			c-0.004,0.105,0.008,0.211-0.031,0.314c-0.016,0.042-0.008,0.092-0.008,0.138c-0.004,0.099,0.004,0.197-0.031,0.294
			c-0.016,0.047-0.008,0.104-0.01,0.157c-0.002,0.093,0.002,0.184-0.027,0.275c-0.02,0.054-0.01,0.118-0.012,0.177
			c-0.002,0.086,0.004,0.171-0.027,0.254c-0.016,0.042-0.01,0.092-0.012,0.138c-0.004,0.105,0.004,0.21-0.031,0.314
			c-0.018,0.054-0.008,0.118-0.01,0.178c-0.002,0.099,0.004,0.196-0.029,0.294c-0.018,0.054-0.008,0.118-0.01,0.178
			c-0.002,0.086-0.002,0.169-0.027,0.254c-0.02,0.062-0.012,0.131-0.012,0.197c-0.004,0.08-0.002,0.157-0.027,0.235
			c-0.018,0.048-0.012,0.104-0.012,0.157c-0.004,0.099,0.002,0.197-0.031,0.294c-0.018,0.054-0.008,0.118-0.01,0.178
			c-0.002,0.099,0.004,0.196-0.029,0.294c-0.02,0.054-0.01,0.118-0.01,0.178c-0.002,0.086,0,0.17-0.029,0.254
			c-0.018,0.048-0.01,0.104-0.012,0.157c-0.002,0.112,0.004,0.223-0.031,0.334c-0.018,0.061-0.006,0.131-0.008,0.197
			c-0.002,0.073,0,0.144-0.025,0.215c-0.016,0.042-0.014,0.091-0.014,0.137c-0.004,0.093,0.002,0.184-0.031,0.275
			c-0.016,0.048-0.008,0.104-0.01,0.157c-0.002,0.073-0.002,0.146-0.004,0.218c-0.051,0.134-0.033,0.274-0.037,0.412
			c0,0.02,0.004,0.042-0.002,0.06c-0.049,0.121-0.033,0.248-0.037,0.373c0,0.013-0.002,0.026-0.004,0.04
			c-0.01,0.042-0.033,0.073-0.074,0.085c-0.049,0.015-0.102,0.034-0.151,0.04c-0.119,0.013-0.228,0.069-0.345,0.093
			c-0.114,0.024-0.229,0.06-0.344,0.094c-0.164,0.049-0.33,0.086-0.494,0.137c-0.139,0.043-0.276,0.082-0.42,0.115
			c-0.133,0.032-0.266,0.072-0.399,0.106c-0.217,0.056-0.432,0.12-0.647,0.176c-0.127,0.034-0.252,0.073-0.382,0.102
			c-0.237,0.053-0.467,0.139-0.707,0.184c-0.196,0.078-0.405,0.115-0.608,0.173c-0.213,0.062-0.43,0.12-0.646,0.177
			c-0.121,0.032-0.242,0.062-0.363,0.097c-0.157,0.045-0.319,0.073-0.475,0.132c-0.023,0.009-0.053,0.008-0.078,0.003
			c-0.018-0.003-0.035-0.02-0.043-0.035c-0.01-0.016-0.012-0.038-0.012-0.057c-0.002-0.066,0-0.132,0-0.199
			C3547.58-1697.298,3547.58-1700.237,3547.58-1703.176z M3554.082-1707.895c0.029-0.064,0.035-0.129,0.043-0.195
			c0.014-0.164,0.029-0.329,0.043-0.494c0.018-0.217,0.035-0.435,0.055-0.652c0.002-0.033,0.008-0.065,0.012-0.099
			c0.007-0.059,0.013-0.118,0.019-0.177c0.01-0.105,0.019-0.211,0.027-0.316c0.002-0.02,0.004-0.04,0.006-0.059
			c0.002-0.059-0.022-0.091-0.078-0.092c-0.059-0.001-0.118-0.001-0.178-0.001c-1.813,0-3.629,0-5.44,0
			c-0.318,0-0.285-0.033-0.285,0.289c0,2.536,0,5.071,0,7.606c0,0.06,0,0.119,0,0.179c0.002,0.02,0,0.042,0.01,0.057
			c0.008,0.016,0.027,0.031,0.043,0.034c0.025,0.004,0.053,0.002,0.078-0.002c0.149-0.024,0.301-0.05,0.451-0.073
			c0.188-0.03,0.379-0.058,0.565-0.088c0.307-0.048,0.613-0.097,0.92-0.146c0.203-0.032,0.406-0.062,0.606-0.094
			c0.209-0.033,0.418-0.068,0.627-0.101c0.021-0.003,0.039,0,0.06,0c0.017,0,0.041,0.022,0.041,0.036
			c0,0.026,0.002,0.053-0.002,0.079c-0.008,0.072-0.019,0.144-0.024,0.216c-0.021,0.191-0.037,0.382-0.058,0.572
			c-0.012,0.119-0.024,0.237-0.039,0.355c-0.022,0.21-0.047,0.42-0.069,0.631c-0.019,0.164-0.031,0.329-0.052,0.493
			c-0.012,0.098-0.024,0.196-0.039,0.297c-0.043,0.032-0.094,0.046-0.145,0.061c-0.357,0.097-0.713,0.196-1.07,0.295
			c-0.51,0.141-1.021,0.281-1.529,0.421c-0.106,0.03-0.215,0.062-0.321,0.095c-0.025,0.008-0.045,0.03-0.048,0.058
			c-0.004,0.06-0.006,0.119-0.006,0.179c0,0.569,0,1.138,0,1.708c0,0.079-0.014,0.159,0.017,0.236
			c0.09,0.024,0.166-0.029,0.246-0.047c0.008-0.001,0.014-0.003,0.02-0.004c0.568-0.156,1.135-0.312,1.701-0.468
			c0.402-0.111,0.803-0.222,1.205-0.333c0.535-0.147,1.07-0.294,1.604-0.442c0.031-0.009,0.062-0.021,0.093-0.034
			c0.018-0.008,0.032-0.025,0.039-0.042c0.012-0.03,0.02-0.063,0.021-0.096c0.012-0.172,0.031-0.343,0.047-0.514
			c0.021-0.244,0.045-0.487,0.07-0.729c0.019-0.171,0.031-0.342,0.045-0.513c0.021-0.231,0.039-0.461,0.06-0.692
			c0-0.006,0-0.013,0.002-0.02c0.02-0.184,0.041-0.367,0.059-0.551c0.02-0.225,0.037-0.449,0.055-0.673
			c0.002-0.02,0.004-0.039,0.006-0.059c0.021-0.197,0.043-0.395,0.062-0.592c0.021-0.224,0.037-0.449,0.057-0.672
			c0.002-0.026,0.007-0.053,0.009-0.079c0.02-0.178,0.039-0.355,0.055-0.533c0.02-0.271,0.045-0.541,0.074-0.81
			c0.006-0.046,0.006-0.093,0.008-0.139c0.002-0.013-0.002-0.026-0.002-0.04c-0.002-0.013-0.027-0.036-0.041-0.037
			c-0.113-0.005-0.223,0.019-0.334,0.037c-0.262,0.043-0.523,0.08-0.785,0.119c-0.273,0.042-0.547,0.083-0.822,0.124
			c-0.092,0.014-0.184,0.027-0.274,0.041c-0.144,0.021-0.287,0.041-0.431,0.063c-0.202,0.03-0.405,0.062-0.608,0.094
			c-0.024,0.004-0.053,0.004-0.078,0.005c-0.039,0.001-0.065-0.021-0.067-0.056c-0.002-0.04-0.004-0.079-0.004-0.118
			c0-1.1,0-2.198,0-3.297c0-0.188-0.004-0.186,0.186-0.185c0.039,0,0.078,0,0.117,0c1.039,0,2.08,0,3.119,0
			c0.059,0,0.118,0.001,0.178-0.001C3554.029-1707.884,3554.055-1707.89,3554.082-1707.895z"/>
		<path fill="#FFFFFE" d="M3546.834-1703.271c0,2.15,0,4.301,0,6.452c0,0.072-0.006,0.145-0.012,0.216
			c0,0.008-0.019,0.022-0.027,0.021c-0.031-0.003-0.064-0.009-0.096-0.018c-0.465-0.126-0.93-0.253-1.396-0.38
			c-0.668-0.182-1.338-0.362-2.008-0.545c-0.49-0.134-0.98-0.269-1.471-0.404c-0.18-0.049-0.357-0.097-0.537-0.146
			c-0.051-0.014-0.103-0.028-0.152-0.044c-0.039-0.013-0.061-0.042-0.062-0.089c-0.002-0.053-0.002-0.106-0.002-0.159
			c0-0.252,0-0.503,0-0.755c0-0.324,0-0.648,0-0.973c0-0.053,0.002-0.105,0.007-0.159c0-0.033,0.032-0.056,0.069-0.049
			c0.039,0.007,0.078,0.014,0.115,0.024c0.582,0.158,1.16,0.316,1.74,0.474c0.535,0.146,1.072,0.292,1.607,0.437
			c0.03,0.009,0.062,0.014,0.096,0.016c0.01,0,0.022-0.012,0.029-0.023c0.008-0.018,0.012-0.038,0.012-0.057
			c0.002-0.066,0.002-0.132,0.002-0.199c0-3.355-0.002-6.709,0-10.064c0-0.325-0.037-0.286,0.283-0.287c0.522-0.001,1.045,0,1.567,0
			c0.062,0,0.119,0.003,0.181,0.005c0.02,0.001,0.047,0.031,0.051,0.053c0,0.02,0.004,0.04,0.004,0.06c0,0.06,0,0.119,0,0.179
			C3546.834-1707.546,3546.834-1705.409,3546.834-1703.271L3546.834-1703.271z"/>
		<path fill="#FFFFFD" d="M3554.082-1707.895c-0.027,0.004-0.053,0.01-0.078,0.011c-0.061,0.001-0.119,0.001-0.18,0.001
			c-1.039,0-2.078,0-3.117,0c-0.041,0-0.08,0-0.119,0c-0.188-0.001-0.186-0.003-0.186,0.185c0,1.099,0,2.198,0,3.297
			c0,0.04,0.002,0.079,0.004,0.119c0.002,0.034,0.031,0.057,0.068,0.055c0.027-0.001,0.053-0.001,0.08-0.005
			c0.201-0.031,0.404-0.063,0.606-0.094c0.144-0.021,0.287-0.042,0.431-0.062c0.092-0.014,0.184-0.027,0.274-0.041
			c0.274-0.042,0.549-0.083,0.824-0.124c0.262-0.039,0.522-0.075,0.782-0.119c0.111-0.019,0.222-0.042,0.334-0.037
			c0.015,0.001,0.041,0.023,0.041,0.037c0,0.014,0.004,0.027,0.004,0.04c-0.002,0.046-0.004,0.092-0.008,0.139
			c-0.031,0.271-0.055,0.54-0.076,0.811c-0.014,0.178-0.034,0.354-0.055,0.533c-0.002,0.026-0.006,0.052-0.008,0.079
			c-0.018,0.224-0.035,0.448-0.055,0.672c-0.021,0.197-0.041,0.395-0.062,0.591c-0.002,0.02-0.004,0.04-0.004,0.059
			c-0.02,0.225-0.035,0.449-0.057,0.673c-0.016,0.184-0.039,0.368-0.059,0.552c0,0.007-0.002,0.014-0.002,0.02
			c-0.021,0.23-0.037,0.461-0.058,0.692c-0.016,0.171-0.028,0.343-0.047,0.514c-0.024,0.243-0.047,0.487-0.07,0.73
			c-0.014,0.171-0.034,0.342-0.047,0.514c0,0.033-0.01,0.064-0.021,0.096c-0.007,0.017-0.021,0.034-0.037,0.042
			c-0.029,0.015-0.062,0.025-0.095,0.034c-0.534,0.147-1.069,0.295-1.604,0.442c-0.4,0.111-0.803,0.222-1.203,0.333
			c-0.568,0.156-1.135,0.312-1.701,0.468c-0.008,0.001-0.014,0.003-0.02,0.004c-0.082,0.019-0.156,0.072-0.246,0.047
			c-0.031-0.076-0.017-0.157-0.017-0.235c-0.002-0.569-0.002-1.139-0.002-1.708c0-0.06,0.002-0.119,0.007-0.178
			c0.002-0.029,0.021-0.05,0.047-0.058c0.106-0.034,0.215-0.065,0.324-0.095c0.508-0.141,1.018-0.281,1.526-0.421
			c0.357-0.099,0.716-0.198,1.07-0.295c0.053-0.014,0.103-0.029,0.146-0.061c0.014-0.101,0.028-0.199,0.039-0.297
			c0.02-0.164,0.034-0.329,0.053-0.493c0.021-0.21,0.047-0.42,0.068-0.631c0.014-0.119,0.026-0.237,0.039-0.355
			c0.02-0.191,0.037-0.381,0.057-0.572c0.008-0.072,0.02-0.145,0.027-0.217c0.002-0.026,0-0.053,0-0.079
			c0-0.014-0.023-0.037-0.039-0.037c-0.021,0-0.041-0.003-0.062,0c-0.209,0.033-0.416,0.068-0.625,0.102
			c-0.203,0.032-0.404,0.062-0.606,0.094c-0.308,0.048-0.613,0.098-0.92,0.146c-0.189,0.03-0.379,0.058-0.568,0.088
			c-0.15,0.022-0.301,0.049-0.451,0.073c-0.025,0.004-0.053,0.007-0.078,0.002c-0.016-0.003-0.035-0.019-0.043-0.034
			c-0.008-0.016-0.008-0.038-0.008-0.057c-0.002-0.06-0.002-0.12-0.002-0.179c0-2.536,0-5.071,0.002-7.606
			c0-0.322-0.033-0.289,0.283-0.289c1.812,0,3.627,0,5.44,0c0.06,0,0.119,0,0.181,0.001c0.053,0.001,0.077,0.034,0.075,0.092
			c-0.002,0.02-0.004,0.04-0.006,0.06c-0.008,0.105-0.019,0.211-0.027,0.316c-0.006,0.059-0.012,0.119-0.018,0.178
			c-0.004,0.033-0.011,0.065-0.013,0.099c-0.018,0.217-0.034,0.435-0.055,0.652c-0.014,0.165-0.027,0.33-0.043,0.494
			C3554.117-1708.024,3554.111-1707.959,3554.082-1707.895z"/>
	</g>
	<g>
		<path fill="#AFD0E9" d="M3539.791-1623.678c0,0-28.221,0-42.16,0l-0.004-14.911h11.389
			C3522.818-1638.589,3539.791-1628.413,3539.791-1623.678z"/>
		<path fill="#93B0DC" d="M3455.467-1623.678c0,0,28.223,0,42.16,0l0.004-14.911h-11.389
			C3472.441-1638.589,3455.467-1628.413,3455.467-1623.678z"/>
		<path fill="#38B9D8" d="M3525.947-1627.012"/>
		<line fill="none" x1="3508.854" y1="-1638.589" x2="3508.904" y2="-1638.533"/>
		<polygon fill="#F9B189" points="3497.629,-1629.083 3497.635,-1629.083 3497.627,-1629.083 		"/>
		<path fill="#4BC5DF" d="M3469.279-1627.012"/>
		<path fill="#EFB192" d="M3497.494-1649.146c0.006,0.201-8.896-0.048-8.892,0.184c0.015,0.904,4,2.029,4,3.413
			c0,3.572-2.565,5.482-4.213,6.959h-1.985h5.936c2.324,0,5.295,9.507,5.295,9.507v0.06c0,0,8.928-9.51,11.252-9.51l-0.029-0.057
			c-1.649-1.478-2.229-3.387-2.229-6.959c0-1.742,0.016-3.071,0.045-4.069"/>
		<path fill="#FBC9AA" d="M3497.494-1684.088c-15.648,0.443-11.123,16.357-11.123,16.357s-1.373,0.746-1.373,3.744
			c0.475,7.521,2.996,4.272,3.512,7.569c0.572,3.643,1.479,5.317,2.291,6.481l-1.986-0.003c2.438,3.106,3.412,5.156,8.812,5.156
			c5.397,0,8.361-2.05,10.801-5.156v0.003c0.812-1.164,1.713-2.838,2.289-6.476c0.521-3.296,3.035-0.053,3.525-7.575
			c0-2.993-1.379-3.741-1.379-3.741s-3.084-10.403-2.81-13.814"/>
		<path fill="#DC9D87" d="M3497.615-1648.542c0.004,0.208-9.017-0.597-9.012-0.361c0.014,0.903,0.026,2.028,0.026,3.416
			c0,3.572-0.577,5.479-2.227,6.954h-0.027c2.324,0,11.258,9.51,11.258,9.51"/>
		<path fill="#EFB192" d="M3497.494-1684.088c-15.648,0.443-15.098,16.357-15.098,16.357s-1.375,0.746-1.375,3.744
			c0.479,7.521,2.996,4.272,3.516,7.569c0.57,3.643,1.475,5.317,2.289,6.481v-0.003c2.438,3.106,5.4,5.156,10.801,5.156
			L3497.494-1684.088z"/>
		<path fill="#6D594E" d="M3487.723-1668.952c0,0,0.111-0.028,0.318-0.065c0.199-0.039,0.488-0.102,0.836-0.159
			c0.172-0.031,0.361-0.065,0.561-0.099c0.197-0.035,0.416-0.047,0.642-0.071c0.451-0.041,0.935-0.078,1.412-0.111
			c0.478-0.004,0.953-0.004,1.399,0.003c0.226,0.005,0.441,0,0.646,0.023c0.209,0.016,0.398,0.033,0.576,0.052
			c0.356,0.028,0.654,0.069,0.858,0.089c0.207,0.025,0.326,0.041,0.326,0.041c0.221,0.03,0.367,0.233,0.332,0.447
			c-0.022,0.198-0.185,0.337-0.375,0.346h-0.029c0,0-0.112,0.002-0.317,0.004c-0.205-0.002-0.494,0.003-0.836-0.002
			c-0.175-0.002-0.363-0.008-0.564-0.011c-0.193-0.01-0.408,0.014-0.621,0.014c-0.432,0.015-0.896,0.021-1.354,0.028
			c-0.461,0.029-0.918,0.062-1.347,0.079c-0.215,0.018-0.418,0.014-0.621,0.041c-0.2,0.019-0.391,0.037-0.565,0.051
			c-0.353,0.035-0.644,0.054-0.848,0.07c-0.207,0.013-0.326,0.02-0.326,0.02c-0.221,0.008-0.406-0.163-0.414-0.383
			C3487.406-1668.741,3487.537-1668.912,3487.723-1668.952"/>
		<path fill="#6D594E" d="M3507.432-1668.016c0,0-0.117-0.003-0.322-0.018c-0.205-0.017-0.5-0.035-0.852-0.07
			c-0.174-0.014-0.363-0.031-0.568-0.054c-0.199-0.024-0.404-0.02-0.619-0.037c-0.426-0.021-0.885-0.051-1.34-0.083
			c-0.463-0.006-0.926-0.011-1.358-0.026c-0.218,0-0.42-0.024-0.621-0.014c-0.197,0.002-0.386,0.011-0.558,0.012
			c-0.352,0.007-0.639,0.001-0.844,0.001s-0.315-0.003-0.315-0.003l-0.027-0.005c-0.223-0.005-0.396-0.186-0.392-0.409
			c0.013-0.196,0.16-0.352,0.349-0.378c0,0,0.121-0.019,0.319-0.044c0.211-0.021,0.504-0.06,0.863-0.088
			c0.18-0.017,0.371-0.036,0.576-0.054c0.203-0.024,0.42-0.019,0.645-0.021c0.447-0.006,0.929-0.003,1.404-0.003
			c0.48,0.034,0.963,0.069,1.414,0.112c0.215,0.023,0.439,0.032,0.635,0.071c0.203,0.034,0.392,0.068,0.564,0.095
			c0.348,0.064,0.637,0.124,0.84,0.162c0.199,0.038,0.314,0.066,0.314,0.066c0.211,0.047,0.348,0.261,0.297,0.479
			C3507.791-1668.134,3507.619-1668.008,3507.432-1668.016"/>
		<path fill="#7B6356" d="M3507.902-1687.255c-1.164-0.784-1.359-0.784-2.976-1.239c-0.305-0.917-2.737-1.738-4.479-1.821
			c-0.787-0.034-1.752-0.01-2.822,0.089c-3.521,0.319-6.731,1.383-9.379,3.294c-4.459,3.313-5.656,8.555-5.435,11.347
			c0.277,3.412,0.373,7.854,0.373,7.854l0.646,6.455c0-18.233,1.455-18.346,13.795-18.346s13.799,0.112,13.799,18.346l1.438-6.45
			c0,0,0.688-4.441,0.967-7.854C3514.059-1678.468,3512.785-1683.995,3507.902-1687.255"/>
		<path fill="#5F483B" d="M3497.627-1690.226c-3.52,0.319-8.123,1.383-10.771,3.294c-4.459,3.313-5.651,8.555-5.438,11.347
			c0.281,3.412,0.977,7.854,0.977,7.854l1.438,6.455c0-18.233,1.455-18.346,13.795-18.346"/>
		<path fill="#FBC9AA" d="M3497.584-1667.236c-0.09,3.479-2.125,7.04-2.125,9.043c0,0.959,1.656,1.553,2.32,1.553"/>
		<path fill="#FFFFFF" d="M3503.756-1667.132c-1.213,0-2.315,0.501-3.108,1.304c0.793,0.809,1.896,1.31,3.108,1.31
			c1.221,0,2.322-0.5,3.117-1.31C3506.078-1666.631,3504.977-1667.132,3503.756-1667.132"/>
		<path fill="#2875BA" d="M3505.064-1665.827c0,0.722-0.584,1.308-1.302,1.308c-0.725,0-1.312-0.585-1.312-1.308
			c0-0.72,0.588-1.304,1.312-1.304C3504.48-1667.13,3505.064-1666.546,3505.064-1665.827"/>
		<path d="M3504.297-1665.827c0,0.297-0.242,0.538-0.533,0.538c-0.303,0-0.539-0.24-0.539-0.538c0-0.295,0.236-0.534,0.539-0.534
			C3504.055-1666.361,3504.297-1666.122,3504.297-1665.827"/>
		<path fill="#FFFFFF" d="M3491.502-1667.132c-1.221,0-2.324,0.501-3.113,1.304c0.789,0.809,1.894,1.31,3.113,1.31
			s2.32-0.5,3.109-1.31C3493.822-1666.631,3492.723-1667.132,3491.502-1667.132"/>
		<path fill="#2875BA" d="M3492.807-1665.827c0,0.722-0.584,1.308-1.305,1.308c-0.723,0-1.309-0.585-1.309-1.308
			c0-0.72,0.586-1.304,1.309-1.304C3492.223-1667.13,3492.807-1666.546,3492.807-1665.827"/>
		<path d="M3492.035-1665.827c0,0.297-0.24,0.538-0.533,0.538c-0.295,0-0.537-0.24-0.537-0.538c0-0.295,0.242-0.534,0.537-0.534
			C3491.795-1666.361,3492.035-1666.122,3492.035-1665.827"/>
		<path fill="#88484A" d="M3502.727-1654.342c-2.604,3.27-7.651,3.253-10.26,0
			C3495.588-1652.401,3499.602-1652.392,3502.727-1654.342"/>
		<polygon fill="#93B0DC" points="3502.873,-1623.982 3509.039,-1638.533 3497.627,-1629.083 		"/>
		<polygon fill="#AFD0E9" points="3497.635,-1629.025 3492.807,-1625.723 3486.377,-1638.533 3487.689,-1640.16 		"/>
		<polygon fill="#AFD0E9" points="3497.779,-1629.025 3502.607,-1625.723 3509.039,-1638.533 3507.723,-1640.16 		"/>
	</g>
</g>
<g>
	<path fill="#1E2225" d="M4574.5-1331.5c0-6.993-23.365-48.275-59.922-60.259c-33.529-10.991-95.582-32.356-141.543-47.866
		c-56.316-19.004-108.158,25.888-162.538,26.157c-50.39,0.25-121.75,50.033-141.997,60.749c-40.759,21.571-72,178.5-72,207.219
		c0,1.888-4.273,6.628-5.742,13.278c-2.408,10.904-2.338,25.256-1.031,28.091c2.502,5.433,9.014,14.813,14.968,16.829
		c17.864,6.046,46.722-6.198,75.307-6.198c3.611,0,10.36,0.423,19.713,1.137c11.655,0.89-12.053,47.162-24.438,105.816
		c-2.019,9.562,7.945,18.479,5.989,28.619c-0.836,4.337-1.657,8.715-2.457,13.123c-2.585,14.249-2.036,28.812-4.131,43.332
		c-2.299,15.941,0.688,32.803-0.789,48.106c-0.622,6.437-4.139,12.775-4.529,18.979c-2.762,43.761,0.707,80.825,17.327,98.657
		c90.188,96.762,349.588-23.912,431.009-39.908c1.957-0.384,0.826-15.892,5.755-39.871c2.7-13.133,6.46-28.807,8.548-45.929
		c1.892-15.507,2.05-32.203,5.421-49.274c4.934-24.981-1.539-93.773,3.93-117.824c13.367-58.798,38.371-64.21,41.412-65.078
		c14.93-4.265,27.666-9.446,37.606-15.689c8.383-5.265-4.81-35.873-15.78-80.971C4589.919-1250.558,4574.5-1328.863,4574.5-1331.5z"
		/>
	<path d="M4574.5-1331.5c0-6.993-23.365-48.275-59.922-60.259c-33.529-10.991-95.582-32.356-141.543-47.866
		c-56.316-19.004-108.158,25.888-162.538,26.157c-10.104,0.05-26.824-5.13-31.992,28.842
		c-4.825,31.711,34.205,58.894,33.087,101.341c-0.65,24.713,5.092,84.604-7.775,107.782c-9.231,16.633-37.75-0.192-40.006,5.141
		c-12.26,28.985-40.901-99.974-50.64-99.974c-15.677,0,1.743,76.394-29.883,104.165c-9.856,8.655-59.28-4.438-72.271,1.532
		c-11.09,5.097-18.793,25.767-20.261,32.417c-2.408,10.904-2.338,25.256-1.032,28.091c2.503,5.433,9.014,14.814,14.969,16.829
		c17.864,6.046,46.722-6.198,75.307-6.198c3.611,0,10.359,0.423,19.713,1.137c11.654,0.89-12.053,47.162-24.438,105.816
		c-2.02,9.562,57.976,28.196,111.375,20.696c4.373-0.614,9.648,82.943,8.851,87.351c-2.585,14.249,48.095,111.479,46,126
		c-2.299,15.941-126.851-3.665-128.329,11.638c-0.622,6.438-43.423-99.729-43.812-93.526c-2.763,43.761,0.707,80.825,17.326,98.657
		c90.188,96.762,349.588-23.912,431.01-39.908c1.957-0.384,0.826-15.892,5.754-39.871c2.701-13.133,6.461-28.808,8.549-45.929
		c1.891-15.507,2.049-32.203,5.42-49.275c4.934-24.981-1.539-93.773,3.93-117.824c13.368-58.798,38.372-64.21,41.412-65.078
		c14.93-4.265,27.666-9.446,37.607-15.689c8.383-5.265-4.811-35.873-15.781-80.971C4589.919-1250.558,4574.5-1328.863,4574.5-1331.5
		z"/>
	<path fill="#DC9D87" d="M4175-1145.166c0,4.879-92.096,9.671-98.999,9.671c-0.812,0-6.711-7.583-8.955-15.069
		c-0.702-2.342,1.121-4.936,3.468-8.326c0,0-18.123-10.227-18.804-14.08c-0.604-3.42-0.571-7.179,0.913-9.309
		c2.477-3.551,7.212-4.358,6.735-4.57c-3.521-1.562-5.858-4.33-5.858-7.484c0-4.878,1.598-10.833,8.5-10.833
		c2.9,0,24.301,3.725,46.986,15.366c3.404,1.747-13.021-12.864-18.001-23.276c-3.705-7.744,3.388-12.271,5.912-10.771
		c7.479,4.445,19.354,9.93,29.558,19.739C4150.793-1180.712,4175-1146.782,4175-1145.166z"/>
	<path fill="#FBC9AA" d="M4143.5-1152.61c0,4.884-41.471-20.295-48.34-24.137c-7.25-4.055-38.91-12.119-38.91-17.003
		s0.331-11.77,8-10C4122.75-1190.25,4143.5-1157.494,4143.5-1152.61z"/>
	<path fill="#FBC9AA" d="M4133.25-1134.5c0,4.884-37.014-17.321-44.5-19.75c-16.25-5.272-35.5-15.866-35.5-20.75s0.331-11.77,8-10
		C4119.75-1171.5,4133.25-1139.384,4133.25-1134.5z"/>
	<path fill="#FBC9AA" d="M4161-1153.75c0,4.884-27.855-24.572-36.625-30.118c-14.438-9.132-30.625-26.748-30.625-31.632
		s-1.612-9.122,5.5-5.75C4137.75-1203,4161-1158.634,4161-1153.75z"/>
	<path fill="#DC9D87" d="M4069.25-1179.813c0,2.656-1.756,6.813-5,6.813s-8-3.403-8-6.059c0-2.656,0.506-6.225,3.75-6.225
		S4069.25-1182.47,4069.25-1179.813z"/>
	<path fill="#DC9D87" d="M4071.312-1201.12c0.42,2.622-0.653,7.005-3.856,7.52c-3.203,0.514-8.438-2.092-8.858-4.714
		c-0.423-2.623-0.487-6.227,2.716-6.741C4064.515-1205.569,4070.891-1203.742,4071.312-1201.12z"/>
	<path fill="#DC9D87" d="M4105.618-1217.183c-0.51,2.171-1.638,5.258-4.093,4.682c-2.455-0.577-9.4-6.205-8.891-8.376
		c0.51-2.172,2.578-3,5.033-2.423C4100.125-1222.724,4106.129-1219.354,4105.618-1217.183z"/>
	<path fill="#FBC9AA" d="M4072.25-1152.573c0,2.387,5.336,8.573,3.75,8.573c-1.585,0-7.492-5.186-7.492-7.573
		c0-2.387,3.286-6.323,4.871-6.323C4074.965-1157.896,4072.25-1154.96,4072.25-1152.573z"/>
	<path fill="#DC9D87" d="M4378.5-1438.5c12.812,15.144-63.82,46-71,46s23-49.214,23-69.051c0-19.837,10.82-47.949,18-47.949
		S4359.5-1460.958,4378.5-1438.5z"/>
	<path fill="#FBC9AA" d="M4356.5-1523.5c0,26.462-88.01,86.288-137.129,97.559c-15.467,3.549-27.078-24.745-30.871-25.559
		c-21.749-4.667-52.667-114.873-52.667-149.667s7.133-74.333,23.333-74.333c8.473,0,82.055-47.953,131.246-12.394
		C4335.283-1655.458,4356.5-1540.098,4356.5-1523.5z"/>
	<path fill="#DC9D87" d="M4356.5-1523.5c0,26.462-88.01,86.288-137.129,97.559c-15.467,3.549-27.078-24.745-30.871-25.559
		c-11.209-2.405,5.122-21.792,11.95-44.781c3.354-11.289,0.036-23.446-0.077-34.888c-0.104-10.465,3.127-20.331,3.127-28.386
		c0-4.786-0.451-16.424,1.48-26.646c0.99-5.243,5.555-10.112,4.996-13.495c-0.435-2.634-4.629,0.631-7.904,2.343
		c-2.055,1.074-4.95,4.293-5.92,2.55c-1.152-2.072,1.83-5.267,1.777-6.46c-0.564-12.671,0.953-29.509-4.324-39.419
		c-12.358-23.213-42.196-34.818-34.439-34.818c8.473,0,82.055-47.953,131.246-12.394
		C4335.283-1655.458,4356.5-1540.098,4356.5-1523.5z"/>
	<path fill="#5F483B" d="M4284.166-1575.5c0,1.699-15.633-5.395-31.995-5.862c-14.673-0.419-30.126,5.862-32.172,5.862
		c-4.326,0-7.833-2.612-7.833-5.833s3.507-5.833,7.833-5.833c2.163,0,21.205-4.889,36.706-2.375
		C4272.206-1587.028,4284.166-1577.111,4284.166-1575.5z"/>
	<path fill="#5F483B" d="M4182.499-1572.833c0,3.067-17.872,4.192-26.409,9.202c-7.348,4.312-5.443,12.798-6.424,12.798
		c-2.117,0-3.834-4.626-3.834-10.333s18-18,31-18C4178.949-1579.167,4182.499-1578.541,4182.499-1572.833z"/>
	<path fill="#BA7560" d="M4238.165-1507.167c-1.997,3.334-6.845,0.52-15.96,2.033c-2.953,0.49-4.83,2.195-7.271,3.87
		c-2.771,1.902-7.026,4.087-8.102,3.765c-3.331-1,0.896-4.067,0.746-9.998c-0.141-5.531-3.141-12.682-3.086-19.668
		c0.091-11.747,3.34-23.025,3.34-25.334c0-4.145,0.701-10.658,4.438-11.877c0.912-0.297,3.885,2.543,4.896,2.543
		c1.484,0,15.107,12.195,18.089,18.292c0.67,1.371-11.733-9.229-11.202-7.812c2.1,5.589-1.789,11.299,1.209,18.785
		c2.105,5.257,8.628,10.826,11.824,15.507C4240.854-1511.544,4238.727-1508.103,4238.165-1507.167z"/>
	<path fill="#DC9D87" d="M4234.501-1510.417c0,2.624-3.507,2.75-7.833,2.75c-4.327,0-7.834,0.874-7.834-1.75s3.507-7.75,7.834-7.75
		C4230.994-1517.167,4234.501-1513.04,4234.501-1510.417z"/>
	<path fill="#934F3F" d="M4280.001-1559.333c0,1.612-15.97,0.101-17.166,0.101c-0.472,0-2.806-8.83-9.013-10.042
		c-0.433-0.085-7.883,2.113-14.59,5.869c-2.791,1.562-8.238,4.648-8.489,6.805c-0.092,0.79,5.709,1.456,5.196,1.876
		c-0.568,0.469-3.955,0.823-5.951,0.393c-0.844-0.182-1.438-1.324-1.467-1.329c-0.48-0.068,4.994-5.963,11.08-10
		c4.27-2.832,9.855-4.242,9.537-4.269c-12.664-1.047-19.476,4.39-18.972,3.675c5.333-7.579,23.722-4.304,24.916-4.246
		C4265.335-1569.999,4280.001-1560.944,4280.001-1559.333z"/>
	<path fill="#FFFFFF" d="M4182.499-1550.313c0,3.487-4.085,6.313-9.124,6.313s-9.124-2.826-9.124-6.313s4.085-10.313,9.124-10.313
		S4182.499-1553.8,4182.499-1550.313z"/>
	<path fill="#DC9D87" d="M4193.834-1544.833c0,1.381-11.947,9.667-15.584,9.667s-6.583-1.119-6.583-2.5
		c0.001-0.145,12.302-2.485,10.274-4.263c-1.233-1.083-8.369-0.2-11.828-1.273c-6.244-1.937-9.547-5.729-8.629-6.908
		c0.242-0.31,0.797-1.047,2.894-0.545c0.812,0.194,2.729,4.448,3.698,4.736c5.225,1.55,11.002,0.065,11.145-0.674
		c0.515-2.691-4.903-5.634-4.354-8.295c0.459-2.229-2.72-5.162-1.353-6.431c1.353-1.255,16.467,0.977,17.158,0.977
		c0.91,0,4.562,1.883,5.029,3.229C4197.102-1553.075,4193.834-1545.869,4193.834-1544.833z"/>
	<path fill="#DC9D87" d="M4179.833-1595.792c0.235,0.418,3.856,1.345,4.687,2.566c0.348,0.51-3.303,0.072-2.953,0.669
		c3.025,5.175,9.916,14.039,8.685,14.472c-2.353,0.827-11.011-8.509-14.983-14.055c-0.463-0.646-11.862-0.241-12.182-0.762
		c-0.531-0.869,10.165-2.533,10.165-2.891C4173.25-1598.208,4175.583-1603.333,4179.833-1595.792z"/>
	<path fill="#FBC9AA" d="M4273.833-1499.167c0,3.406-10.392,1.222-13.667-0.833c-12-7.528-23.5-28.094-23.5-31.5
		c0-3.405,4.624-2.822,7.834-0.667C4256.417-1524.167,4273.833-1502.572,4273.833-1499.167z"/>
	<path fill="#BA7560" d="M4187.343-1506.647c0,2.244-1.819,12.979-1.175,12.979s7.969-6.329,6.167-7.667
		c-3.14-2.333-1.688-14.32-2.334-14.32S4187.343-1508.892,4187.343-1506.647z"/>
	<path fill="#FBC9AA" d="M4253.25-1551.375c0,1.088-8.713,2.94-11.75,2.94s-5.5-0.882-5.5-1.97c0-1.088,2.501-2.447,5.5-1.97
		C4247-1551.5,4253.25-1552.463,4253.25-1551.375z"/>
	<path fill="#FFFFFF" d="M4257.75-1558.589c0,2.058-11.584,3.672-16.334,2.714c-2.57-0.519-4.75-1.668-4.75-3.726
		s4.334-7.899,12.501-8.774C4251.775-1568.654,4257.75-1560.646,4257.75-1558.589z"/>
	<path d="M4263.667-1565c0,3.36-2.5,7.5-7.25,7.5c-5.083,0-7.25-6.474-7.25-9.833c0-2.481,4.13-1.925,7.25-1.333
		C4262.34-1567.543,4263.667-1568.36,4263.667-1565z"/>
	<path fill="#DC9D87" d="M4378.5-1570.45c0,22.533-10.611,45.799-20,45.799s-14-23.267-14-45.799c0-22.533,7.611-40.8,17-40.8
		S4378.5-1592.983,4378.5-1570.45z"/>
	<path fill="#934F3F" d="M4367.25-1564.486c-1.205,6.524-5.093,12.013-11.375,12.013c-0.377,0,4.252,4.241,3.885,5.829
		c-0.354,1.529-3.104,13.538-4.768,14.121c-1.476,0.518-1.881-10.301-2.176-10.388c-4.797-1.41-8.316-16.059-8.316-21.575
		c0-6.635,12-20.731,12-27.014c0-5.75,5-15.25,10.33-12.714c2.67,1.27,7.963,12.794,7.826,19.712
		c-0.068,3.475,0.002,26.613-1.177,29.349c-0.187,0.43-8.171,13.884-8.144,11.184c0.021-2.264,4.61-8.258,6.278-14.92
		c2.112-8.437,1.354-17.944,0.711-22.298c-1.449-9.783-3.576-16.313-6.376-17.473c-1.27-0.525-6.508,2.994-6.242,8.89
		C4360.154-1579.805,4368.5-1571.252,4367.25-1564.486z"/>
	<path fill="#83634D" d="M4366.5-1614.166c0,0.557-16.014,9.154-16.229,21.997c-0.166,10.014,1.434,22.609,2.287,35.986
		c0.974,15.229,5.153,29.472,5.871,44.07c1.324,26.916,1.403,37.281-2.932,49.34c-0.223,0.617-3.512,17.495-14.893,38.001
		c-10.498,18.918-33.842,40.316-50.694,52.592c-14.604,10.638-30.894,17.227-45.362,18.751c-22.539,2.375-39.569-1.86-40.059-3.07
		c-1.628-4.034-19.107-15.201-20.32-33.667c-0.431-6.558-7.262-30.672-13.574-54.206c-6.539-24.381-12.523-48.139-10.258-51.102
		c0,0,24.859,49.585,44.933,52.9c2.208,0.365,4.358,0.169,6.412-0.714c3.698-1.59-1.756-16.727,3.172-17.801
		c3.919-0.854,14.599-2.345,21.728,0.827c3.479,1.547,4.59,9.537,6.599,8.961c7.175-2.056,14.021-4.894,19.296-9.565
		c1.824-1.616,4.816-6.108,1.714-11.453c-2.056-3.539-41.155-10.382-61.925,0.661c-2.954,1.571-5.706,7.01-4.85,13.168
		c0.857,6.17,5.328,13.061,4.801,17.508c-0.58,4.886-9.85,3.332-10.272,2.801c-1.256-1.572-20.345-30.727-10.992-40.515
		c3.149-3.295,10.036-15.096,15.543-18.938c0.188-0.131-2.627-4.252-2.442-4.364c0.352-0.213,3.694,3.609,4.031,3.472
		c0,0,2.484,2.109,7.668,1.775c5.84-0.376,12.49-8.525,18.748-8.583c12.153-0.111,22.826,8.125,23.201,7.724
		c4.019-4.292,37.865,13.213,41.334,8.591c27.729-36.948,43.463-81.981,40.727-95.866c-2.467-12.524-25.884-14.635-31.072-25.545
		c-7.567-15.914,2.222-39.272-4.994-47.622c-27.104-31.37-58.92-8.345-86.815,4.593c-17.146,7.951-37.787,4.625-40.21,4.625
		c-14.818,0-28.5-2.449-28.5-12.667s32.666-80,112.666-87.333c3.832-0.351,24.493-0.265,45.564,10.555
		c14.27,7.326,28.727,22.823,38.274,33.961C4365.339-1668.546,4366.5-1619.935,4366.5-1614.166z"/>
	<path fill="#DC9D87" d="M4568-1042c0,6.457-6.504,34.741-37.021,47.766c-13.844,5.909-36.601-1.648-58.971,2.295
		c-39.041,6.882-92.135,9.195-163.008,1.438c-76.255-8.346-134-30.502-134-45s45.995-24,76.211-24c6.412,0,26.9-5.971,54.729-14.998
		c29.979-9.726,68.474-22.999,107.055-36.175c13.98-4.775,27.975-9.537,41.577-14.113c15.203-5.114-2.083-16.54,11.587-26.492
		c5.518-4.017,18.545-8.871,31.521-11.684c13.508-2.928,26.961-3.729,31.82-3.408c10.432,0.688,58.041,9.847,63.586,22.916
		C4607.954-1108.407,4568-1045.247,4568-1042z"/>
	<path fill="#FBC9AA" d="M4518.5-1030.5c-3.863,5.174,39.518,15.975,9,29c-13.844,5.909-32.63-9.943-55-6
		c-39.041,6.882-92.627,20.757-163.5,13c-29.396-3.218-56.041-7.893-77.688-13.254c-34.508-8.547,49.791-11.746,80.688-34.746
		c25.281-18.82,56.611-39.916,101-61.5c13.287-6.461,27.598-17.514,41.57-20.786c13.725-3.214,35.47,8.613,34.57,7.575
		c-10.643-12.289-27.84-16.359-28.396-20.323c-0.619-4.399-0.797-9.224,5.412-13.744c5.518-4.017,18.545-8.871,31.521-11.684
		c13.509-2.928,26.961-3.729,31.82-3.408c7.242,0.477-16.74,39.421-27.424,64.118c-0.986,2.278-1.858,4.436-2.582,6.43
		c-0.336,0.923-0.64,1.812-0.908,2.661c-1.918,6.075-2.035,10.157,0.916,10.746C4531.5-1076.039,4552.5-1076.039,4518.5-1030.5z"/>
	<path fill="#DC9D87" d="M4413.166-1110.167c-10.369,4.548-156.628,84.167-256.912,111.771
		c-36.896,10.156-83.459-3.105-87.088-3.105c-46.666,0-72.666-100.465-72.666-115.954c0-15.489,4-42.046,30-42.046
		c2.135,0,8.926-0.563,33.061,4.723c4.235,0.928,11.912,12.698,17.067,13.224c16.92,1.726,45.826-6.765,67.878-6.097
		c23.057,0.698,48.457,0.477,75.245-1.381c21.845-1.515,45.899-8.119,69.862-13.433c48.933-10.852,97.477-22.667,126.002-19.199
		c13.016,1.582,23.215-4.643,31.026-1.091c26.866,12.211,25.502,42.58,13.312,55.995
		C4456.514-1122.976,4432.166-1118.5,4413.166-1110.167z"/>
	<path d="M4187.834-1554.917c0,3.375-2.99,7.585-6.68,7.585c-3.69,0-6.681-2.736-6.681-6.112c0-3.375-0.699-6.111,2.99-6.111
		S4187.834-1558.292,4187.834-1554.917z"/>
	<path fill="#934F3F" d="M4191.501-1559.499c0,0.524-12.966-1.919-17.026-0.056c-4.809,2.206-7.896,6.145-9.877,9.12
		c-1.492,2.241-2.354,3.936-2.848,3.936c-1.702,0-3.083-1.306-3.083-2.917c0-5.502,15.798-13.92,17.5-13.92
		C4180.667-1563.335,4191.501-1561.11,4191.501-1559.499z"/>
	<path fill="#634430" d="M4366.5-1614.166c0,0.557-16.014,9.154-16.229,21.997c-0.166,10.014,1.434,22.609,2.287,35.986
		c0.974,15.229,5.153,29.472,5.871,44.07c1.324,26.916,1.403,37.281-2.932,49.34c-0.223,0.617-3.512,17.495-14.893,38.001
		c-10.498,18.918-33.842,40.316-50.694,52.592c-14.604,10.638-30.894,17.227-45.362,18.751
		c-10.412,1.097-28.506-20.751-22.918-45.04c6.508-28.287,38.006-59.882,40.845-62.395c1.824-1.616,4.817-6.108,1.714-11.453
		c-2.055-3.539-41.154-10.382-61.925,0.661c-2.954,1.571-5.706,7.01-4.851,13.168c0.858,6.17,5.328,10.061,4.801,14.508
		c-0.578,4.886-7.849-0.668-8.271-1.199c-1.256-1.572-8.343-23.727,1.009-33.515c3.149-3.295,14.498-3.292,13.542-9.939
		c-0.299-2.078-5.678-4.212-9.092-6.923c-3.703-2.94-5.447-6.383-5.352-6.441c0.352-0.213,3.694,3.609,4.031,3.472
		c0,0,2.484,2.109,7.668,1.775c5.84-0.376,12.49-8.525,18.748-8.583c12.153-0.111,22.826,8.125,23.201,7.724
		c4.019-4.292,37.865,13.213,41.334,8.591c27.729-36.948,43.463-81.981,40.727-95.866c-2.467-12.524-25.884-14.635-31.072-25.545
		c-7.567-15.914,2.222-39.272-4.994-47.622c-27.104-31.37-58.92-8.345-86.815,4.593c-17.146,7.951-34.185-21.079-2.386-63.84
		c21.756-29.256,70.834-31.799,91.906-20.979c14.27,7.326,28.727,22.823,38.274,33.961
		C4365.339-1668.546,4366.5-1619.935,4366.5-1614.166z"/>
	<path fill="#FBC9AA" d="M4367.167-1108.167c-7.046,4.23-231.667,113.602-269.123,95.905c-12.095-5.714,64.086-43.483,51.456-40.237
		c-18.757,4.819-38.898,4.907-53.252,14.101c-18.259,11.695-8.748,36.899-27.082,36.899c-46.666,0-72.666-100.465-72.666-115.954
		s4-42.046,30-42.046c2.135,0,8.926-0.563,33.061,4.723c4.235,0.928-10.215,24.084-5.06,24.61c16.92,1.726,35.34-7.367,79.933-8.831
		c23.055-0.756,58.529-2.176,85.317-4.034c21.845-1.515,45.899-8.119,69.862-13.433c48.933-10.852,64.76-6.612,72.221-2.369
		c12.992,7.389,13.333,15.333,16,30.667C4378.71-1123.129,4376.833-1113.971,4367.167-1108.167z"/>
</g>
<path d="M4406.779-1100.936c0,3.544-11.947,6.115-11.947,6.115c-5.994,0-12.607-80.272-55.598-78.536
	c-3.541,0.143,2.302-11.245,27.266-5.143C4389-1173,4406.779-1104.479,4406.779-1100.936z"/>
<path fill="#BA7560" d="M4250.836-1476.499c0,0.605-8.288,1.395-16.27,2.735c-5.362,0.9-10.586,2.598-13.063,2.598
	c-2.638,0-6.733-0.541-10.562-0.095c-5.127,0.598-9.771,2.174-9.771,1.594c0-1.012,6.666-5.167,18.333-4.5
	c2.228,0.127,6.94-1.275,12.054-1.793C4240.578-1476.872,4250.836-1477.145,4250.836-1476.499z"/>
<path fill="#FBC9AA" d="M4211.75-1457.214c0,5.178-1.91,9.375-5.5,9.375s-6.5-4.197-6.5-9.375c0-5.178-0.68-10.375,2.91-10.375
	c0.547,0,2.182-0.181,4.25-0.385c4.723-0.465,11.699-0.049,13.141,1.13c1.318,1.079-3.99,1.632-6.574,4.014
	C4211.994-1461.465,4211.75-1458.157,4211.75-1457.214z"/>
<g>
	<polygon fill="#F0F1F2" points="0,0.004 176.281,0.004 244.54,10.005 259.7,0.004 558.294,0.004 621.103,10.005 641.711,0.004 
		940.303,0.004 1008.767,10.005 1023.716,0.004 1200,0.004 1200,424.004 0,424.004 	"/>
	<path fill="#272A35" d="M558.293-0.003c-7.153,5.677-11.422,12.135-11.422,17.457c0,2.271,1.842,4.114,4.115,4.114h98.029
		c2.272,0,4.114-1.842,4.114-4.114c0-5.32-4.268-11.777-11.418-17.453L558.293-0.003z"/>
	
		<linearGradient id="SVGID_42_" gradientUnits="userSpaceOnUse" x1="1111.999" y1="666.084" x2="1111.999" y2="298.5693" gradientTransform="matrix(1 0 0 1 -512 -277)">
		<stop  offset="0" style="stop-color:#FFFFFF;stop-opacity:0"/>
		<stop  offset="1" style="stop-color:#FFFFFF"/>
	</linearGradient>
	<polygon fill="url(#SVGID_42_)" points="798.822,389.084 401.177,389.084 551.192,21.568 648.809,21.568 	"/>
	<path fill="#484B54" d="M560.764,0.002c-4.584,3.805-10.119,9.833-10.119,14.015c0,1.333,1.166,1.255,5.749,1.255
		c2.625,0,17.634,0,21.084,0c4.268,0,3.079-9.015,7.241-15.271L560.764,0.002z"/>
	<path d="M546.87,17.453c0,2.271,1.843,4.114,4.115,4.114h98.029c2.271,0,4.114-1.842,4.114-4.114"/>
	<g>
		<g>
			<g>
				<path fill="#272A35" d="M176.281,0c-7.15,5.676-11.418,12.133-11.418,17.454c0,2.271,1.842,4.114,4.115,4.114h98.029
					c2.272,0,4.114-1.842,4.114-4.114c0-5.32-4.27-11.778-11.42-17.454H176.281z"/>
				
					<linearGradient id="SVGID_43_" gradientUnits="userSpaceOnUse" x1="729.9902" y1="666.084" x2="729.9902" y2="298.5693" gradientTransform="matrix(1 0 0 1 -512 -277)">
					<stop  offset="0" style="stop-color:#FFFFFF;stop-opacity:0"/>
					<stop  offset="1" style="stop-color:#FFFFFF"/>
				</linearGradient>
				<polygon fill="url(#SVGID_43_)" points="416.812,389.084 19.168,389.084 169.182,21.568 266.799,21.568 				"/>
			</g>
			<path d="M164.857,17.453c0,2.271,1.842,4.114,4.115,4.114h98.029c2.272,0,4.115-1.842,4.115-4.114"/>
		</g>
		<g>
			<g>
				<path fill="#272A35" d="M940.302-0.001c-7.153,5.676-11.422,12.134-11.422,17.455c0,2.271,1.842,4.114,4.114,4.114h98.029
					c2.272,0,4.114-1.842,4.114-4.114c0-5.321-4.271-11.779-11.421-17.456L940.302-0.001z"/>
				
					<linearGradient id="SVGID_44_" gradientUnits="userSpaceOnUse" x1="1494.0088" y1="666.084" x2="1494.0088" y2="298.5693" gradientTransform="matrix(1 0 0 1 -512 -277)">
					<stop  offset="0" style="stop-color:#FFFFFF;stop-opacity:0"/>
					<stop  offset="1" style="stop-color:#FFFFFF"/>
				</linearGradient>
				<polygon fill="url(#SVGID_44_)" points="1180.832,389.084 783.186,389.084 933.199,21.568 1030.818,21.568 				"/>
				<path fill="#484B54" d="M942.779-0.004c-4.584,3.805-10.125,9.836-10.125,14.021c0,1.333,1.166,1.255,5.75,1.255
					c2.625,0,17.633,0,21.084,0c4.267,0,3.078-9.015,7.239-15.271L942.779-0.004z"/>
			</g>
			<path d="M928.876,17.453c0,2.271,1.842,4.114,4.114,4.114h98.028c2.272,0,4.114-1.842,4.114-4.114"/>
		</g>
		<path fill="#484B54" d="M178.754,0.002c-4.583,3.805-10.118,9.833-10.119,14.015c0,1.333,1.167,1.255,5.75,1.255
			c2.625,0,17.634,0,21.084,0c4.267,0,3.079-9.014,7.239-15.27H178.754z"/>
	</g>
</g>
</svg>
