<?xml version="1.0" standalone="no"?>
<!DOCTYPE svg PUBLIC "-//W3C//DTD SVG 20010904//EN"
 "http://www.w3.org/TR/2001/REC-SVG-20010904/DTD/svg10.dtd">
<svg version="1.0" xmlns="http://www.w3.org/2000/svg"
 width="1200.000000pt" height="1200.000000pt" viewBox="0 0 1200.000000 1200.000000"
 preserveAspectRatio="xMidYMid meet">
<metadata>
Created by potrace 1.11, written by Peter Selinger 2001-2013
</metadata>
<g transform="translate(0.000000,1200.000000) scale(0.100000,-0.100000)"
fill="#000000" stroke="none">
<path d="M3140 10047 c-3 -2 -39 -7 -80 -10 -168 -14 -280 -51 -322 -108 -28
-37 -30 -103 -6 -167 11 -30 96 -169 189 -307 150 -226 349 -545 349 -560 0
-3 11 -23 25 -45 27 -43 172 -330 200 -395 97 -228 148 -370 194 -545 31 -118
69 -288 77 -350 2 -19 8 -57 13 -85 10 -50 23 -151 38 -295 10 -99 10 -728 0
-850 -5 -52 -10 -115 -12 -139 -2 -25 -6 -65 -9 -90 -3 -25 -9 -73 -12 -106
-3 -33 -7 -71 -9 -85 -2 -14 -7 -45 -10 -70 -3 -25 -7 -56 -10 -70 -2 -14 -7
-47 -10 -75 -3 -27 -11 -81 -16 -120 -6 -38 -12 -117 -14 -174 -3 -98 -2 -105
20 -127 32 -32 80 -31 181 1 246 79 512 138 814 180 25 3 56 8 70 10 14 2 75
9 135 15 61 6 124 13 140 15 157 22 947 23 1085 1 14 -2 66 -7 115 -11 50 -3
104 -8 120 -10 17 -2 58 -6 92 -10 307 -28 792 -124 1158 -227 172 -48 621
-202 830 -283 323 -126 441 -177 681 -296 100 -49 191 -89 202 -89 37 0 55 43
56 128 0 74 -9 223 -19 307 -3 22 -10 81 -16 130 -6 50 -17 128 -25 175 -8 47
-17 101 -20 120 -3 19 -12 63 -19 96 -8 34 -16 74 -19 88 -7 41 -46 195 -68
271 -140 488 -327 910 -591 1340 -59 96 -233 355 -246 365 -3 3 -17 21 -30 40
-23 33 -164 212 -186 236 -5 6 -35 40 -65 75 -107 124 -146 166 -300 319 -224
223 -393 370 -623 542 -166 124 -475 328 -497 328 -5 0 -10 3 -12 8 -7 17
-305 169 -455 232 -54 22 -107 45 -118 50 -97 46 -649 235 -830 285 -27 8
-107 30 -176 49 -266 74 -679 170 -864 200 -16 3 -72 12 -123 21 -51 8 -109
17 -129 20 -36 4 -90 12 -153 20 -19 3 -62 8 -95 11 -33 3 -76 8 -95 10 -58 6
-495 15 -500 11z"/>
<path d="M5309 5225 c-2 -2 -63 -6 -135 -9 -73 -4 -141 -8 -152 -11 -11 -2
-56 -6 -99 -10 -43 -3 -89 -8 -103 -10 -14 -2 -59 -8 -100 -14 -41 -6 -95 -13
-120 -17 -92 -12 -392 -75 -501 -104 -63 -17 -123 -33 -134 -35 -11 -3 -76
-23 -145 -44 -501 -160 -933 -375 -1380 -688 -104 -73 -317 -244 -425 -343
-86 -77 -358 -352 -405 -409 -25 -30 -52 -61 -60 -70 -13 -13 -70 -82 -117
-141 -183 -229 -354 -482 -508 -750 -114 -199 -267 -508 -263 -533 8 -55 170
-81 282 -46 60 18 65 22 122 101 72 101 56 81 161 213 149 188 234 279 473
505 14 14 62 55 106 90 43 35 81 67 84 71 11 15 246 179 337 235 114 71 173
104 303 168 52 26 106 54 120 61 49 26 296 122 395 154 116 38 124 40 130 41
3 1 19 6 37 11 29 9 70 21 118 34 49 12 194 45 245 55 33 6 69 13 80 15 34 7
217 34 275 40 30 3 73 8 95 10 243 27 917 27 1085 1 14 -2 56 -7 93 -10 37 -4
82 -8 100 -11 18 -2 50 -6 72 -9 22 -3 51 -8 65 -10 14 -2 50 -7 80 -11 58 -7
73 -10 130 -20 19 -4 46 -9 60 -11 300 -54 744 -172 1059 -284 156 -54 433
-163 536 -209 39 -18 97 -44 130 -59 67 -30 428 -212 520 -262 117 -64 410
-243 529 -323 123 -81 380 -264 420 -297 11 -10 80 -64 151 -121 72 -57 139
-112 150 -122 86 -81 141 -97 317 -93 338 9 783 137 1226 352 371 180 602 366
602 483 0 29 -9 43 -53 85 -106 102 -246 225 -346 306 -24 19 -48 40 -55 46
-77 72 -444 346 -651 486 -366 248 -659 420 -1060 621 -230 116 -335 164 -545
252 -63 26 -128 53 -145 60 -189 81 -588 217 -864 295 -123 35 -431 113 -496
126 -11 2 -54 11 -95 19 -118 24 -117 24 -270 50 -80 13 -167 27 -195 30 -27
4 -57 8 -65 10 -8 2 -40 6 -70 10 -30 3 -71 8 -90 10 -53 8 -158 17 -345 31
-84 6 -691 14 -696 9z"/>
</g>
</svg>
